<svg width="58" height="58" viewBox="0 0 58 58" fill="none" xmlns="http://www.w3.org/2000/svg">
<path d="M38.4882 31.7498L55.0314 41.3992L47.9689 43.4184L53.0169 52.1627L48.9025 54.5383L43.8545 45.7963L38.5737 50.9037L38.4882 31.7498ZM33.7372 15.1211H38.4882V19.8722H50.3659C50.9958 19.8722 51.6002 20.1225 52.0456 20.568C52.491 21.0135 52.7414 21.6177 52.7414 22.2477V31.7498H47.9903V24.6232H24.2351V48.3785H33.7372V53.1296H21.8595C21.2295 53.1296 20.6253 52.8792 20.1798 52.4338C19.7343 51.9884 19.484 51.384 19.484 50.754V38.8764H14.7329V34.1253H19.484V22.2477C19.484 21.6177 19.7343 21.0135 20.1798 20.568C20.6253 20.1225 21.2295 19.8722 21.8595 19.8722H33.7372V15.1211ZM9.98189 34.1253V38.8764H5.23083V34.1253H9.98189ZM9.98189 24.6232V29.3743H5.23083V24.6232H9.98189ZM9.98189 15.1211V19.8722H5.23083V15.1211H9.98189ZM9.98189 5.61902V10.3701H5.23083V5.61902H9.98189ZM19.484 5.61902V10.3701H14.7329V5.61902H19.484ZM28.9861 5.61902V10.3701H24.2351V5.61902H28.9861ZM38.4882 5.61902V10.3701H33.7372V5.61902H38.4882Z" fill="url(#paint0_linear_184_2292)"/>
<defs>
<linearGradient id="paint0_linear_184_2292" x1="12.0181" y1="5.61902" x2="30.1311" y2="59.4295" gradientUnits="userSpaceOnUse">
<stop stop-color="#DEBCFF"/>
<stop offset="0.979167" stop-color="#794AFF"/>
</linearGradient>
</defs>
</svg>
