<svg width="541" height="388" viewBox="0 0 541 388" fill="none" xmlns="http://www.w3.org/2000/svg">
<path d="M540.488 52.1875H0V387.221H540.488V52.1875Z" fill="white"/>
<path d="M9.01623 0H531.475C533.866 0 536.159 0.90149 537.85 2.50615C539.541 4.11082 540.491 6.28721 540.491 8.55654V25.4094H0V8.55654C0 6.28721 0.949921 4.11082 2.64079 2.50615C4.33166 0.90149 6.62498 0 9.01623 0Z" fill="#DFE1E5"/>
<path d="M21.8278 17.086C24.5092 17.086 26.6829 15.0231 26.6829 12.4784C26.6829 9.93373 24.5092 7.87085 21.8278 7.87085C19.1464 7.87085 16.9727 9.93373 16.9727 12.4784C16.9727 15.0231 19.1464 17.086 21.8278 17.086Z" fill="#EC6C5F"/>
<path d="M36.4791 17.086C39.1605 17.086 41.3342 15.0231 41.3342 12.4784C41.3342 9.93373 39.1605 7.87085 36.4791 7.87085C33.7977 7.87085 31.624 9.93373 31.624 12.4784C31.624 15.0231 33.7977 17.086 36.4791 17.086Z" fill="#F5BF50"/>
<path d="M51.13 17.086C53.8114 17.086 55.9851 15.0231 55.9851 12.4784C55.9851 9.93373 53.8114 7.87085 51.13 7.87085C48.4486 7.87085 46.2749 9.93373 46.2749 12.4784C46.2749 15.0231 48.4486 17.086 51.13 17.086Z" fill="#63C855"/>
<path d="M540.488 25.4094H0V52.1876H540.488V25.4094Z" fill="white"/>
</svg>
