<svg width="54" height="54" viewBox="0 0 54 54" fill="none" xmlns="http://www.w3.org/2000/svg">
<path d="M27.3785 52.2338C41.143 52.2338 52.3013 41.0755 52.3013 27.311C52.3013 13.5465 41.143 2.38818 27.3785 2.38818C13.614 2.38818 2.45567 13.5465 2.45567 27.311C2.45567 41.0755 13.614 52.2338 27.3785 52.2338Z" fill="url(#paint0_linear_184_2263)"/>
<path d="M27.3785 48.08C38.8489 48.08 48.1475 38.7814 48.1475 27.311C48.1475 15.8406 38.8489 6.54199 27.3785 6.54199C15.9081 6.54199 6.60948 15.8406 6.60948 27.311C6.60948 38.7814 15.9081 48.08 27.3785 48.08Z" fill="#FCFBFF"/>
<path d="M21.2244 32.9017C21.0602 32.9017 20.8934 32.8627 20.7382 32.7802L11.858 28.0636C11.5187 27.8833 11.3066 27.5306 11.3066 27.1464C11.3066 26.7622 11.5187 26.4095 11.858 26.2293L20.7382 21.5126C21.2446 21.2437 21.8737 21.4362 22.1424 21.9425C22.4114 22.4489 22.2191 23.0778 21.7125 23.3467L14.559 27.1464L21.7125 30.9459C22.2191 31.2149 22.4116 31.8437 22.1426 32.3501C21.9559 32.7015 21.5964 32.9017 21.2244 32.9017Z" fill="#00155A"/>
<path d="M33.9959 32.9017C33.6241 32.9017 33.2646 32.7014 33.0779 32.35C32.809 31.8437 33.0015 31.2148 33.5078 30.9458L40.6615 27.1464L33.5078 23.3469C33.0015 23.0779 32.809 22.449 33.0779 21.9427C33.3471 21.4359 33.9756 21.2438 34.4823 21.5126L43.3627 26.2292C43.7019 26.4095 43.9139 26.7621 43.9139 27.1464C43.9139 27.5306 43.7019 27.8832 43.3627 28.0635L34.4823 32.7802C34.327 32.8626 34.1602 32.9017 33.9959 32.9017Z" fill="#00155A"/>
<path d="M24.7844 35.5224C24.6602 35.5224 24.5342 35.5 24.4114 35.4528C23.8762 35.2466 23.6095 34.6457 23.8156 34.1105L29.4668 19.4364C29.6728 18.901 30.2739 18.6345 30.8091 18.8405C31.3443 19.0468 31.611 19.6476 31.405 20.1828L25.7537 34.857C25.5948 35.2694 25.2015 35.5224 24.7844 35.5224Z" fill="#00155A"/>
<path d="M8.52417 18.5921L44.354 39.2785C45.1726 38.1196 45.8747 36.873 46.4451 35.5558L10.7076 14.9229C9.86003 16.0616 9.12709 17.2905 8.52417 18.5921Z" fill="url(#paint1_linear_184_2263)"/>
<defs>
<linearGradient id="paint0_linear_184_2263" x1="9.24904" y1="2.38818" x2="27.9683" y2="57.0155" gradientUnits="userSpaceOnUse">
<stop stop-color="#DEBCFF"/>
<stop offset="0.979167" stop-color="#794AFF"/>
</linearGradient>
<linearGradient id="paint1_linear_184_2263" x1="13.6923" y1="14.9229" x2="19.9535" y2="43.3712" gradientUnits="userSpaceOnUse">
<stop stop-color="#DEBCFF"/>
<stop offset="0.979167" stop-color="#794AFF"/>
</linearGradient>
</defs>
</svg>
