<svg width="47" height="47" viewBox="0 0 47 47" fill="none" xmlns="http://www.w3.org/2000/svg">
<path d="M22.824 44.6481C22.7537 44.6481 22.6823 44.643 22.6106 44.6326C22.0585 44.5496 21.6028 44.1552 21.4423 43.6197L12.7886 14.774C12.6364 14.2663 12.7753 13.7154 13.1506 13.34C13.5267 12.9647 14.0809 12.8251 14.5846 12.978L43.4303 21.6317C43.9654 21.7922 44.3599 22.2479 44.4431 22.8C44.5257 23.3527 44.2813 23.9037 43.8165 24.2134L36.627 29.0065L44.0364 36.4166C44.6 36.9801 44.6 37.8928 44.0364 38.456L38.2673 44.2251C37.7037 44.7887 36.7911 44.7887 36.2279 44.2251L28.8178 36.8157L24.0247 44.0052C23.7543 44.4108 23.3014 44.6481 22.824 44.6481ZM28.5932 33.1098C28.9743 33.1098 29.341 33.2605 29.6129 33.5324L37.2469 41.1664L40.9763 37.4366L33.3426 29.8026C33.0368 29.4969 32.8847 29.071 32.9272 28.6405C32.9694 28.2111 33.2027 27.822 33.5626 27.5826L39.6656 23.5143L16.3222 16.5112L23.3252 39.8546L27.3935 33.7516C27.633 33.3917 28.0217 33.1585 28.4515 33.1163C28.4987 33.1119 28.5459 33.1098 28.5932 33.1098ZM9.42088 9.61063C9.98445 9.04706 9.98445 8.13446 9.42088 7.57124L6.53631 4.68668C5.97273 4.1231 5.06013 4.1231 4.49692 4.68668C3.9337 5.25025 3.93334 6.16285 4.49692 6.72607L7.38149 9.61063C7.66309 9.89224 8.03196 10.0332 8.40118 10.0332C8.77041 10.0332 9.13927 9.89224 9.42088 9.61063ZM8.40118 14.3601C8.40118 13.5636 7.7554 12.9178 6.9589 12.9178H2.63204C1.83554 12.9178 1.18976 13.5636 1.18976 14.3601C1.18976 15.1566 1.83554 15.8024 2.63204 15.8024H6.9589C7.7554 15.8024 8.40118 15.1566 8.40118 14.3601ZM6.53631 24.0335L9.42088 21.1489C9.98445 20.5853 9.98445 19.6727 9.42088 19.1095C8.8573 18.5463 7.9447 18.5459 7.38149 19.1095L4.49692 21.9941C3.93334 22.5577 3.93334 23.4703 4.49692 24.0335C4.77852 24.3151 5.14739 24.4561 5.51661 24.4561C5.88584 24.4561 6.2547 24.3151 6.53631 24.0335ZM20.9592 9.61063L23.8437 6.72607C24.4073 6.16249 24.4073 5.24989 23.8437 4.68668C23.2801 4.12346 22.3675 4.1231 21.8043 4.68668L18.9198 7.57124C18.3562 8.13482 18.3562 9.04742 18.9198 9.61063C19.2014 9.89224 19.5702 10.0332 19.9395 10.0332C20.3087 10.0332 20.6775 9.89224 20.9592 9.61063ZM15.6126 7.14866V2.8218C15.6126 2.0253 14.9668 1.37952 14.1703 1.37952C13.3738 1.37952 12.728 2.0253 12.728 2.8218V7.14866C12.728 7.94516 13.3738 8.59094 14.1703 8.59094C14.9668 8.59094 15.6126 7.94516 15.6126 7.14866Z" fill="url(#paint0_linear_184_2284)"/>
<defs>
<linearGradient id="paint0_linear_184_2284" x1="7.08685" y1="1.37952" x2="23.3359" y2="48.799" gradientUnits="userSpaceOnUse">
<stop stop-color="#DEBCFF"/>
<stop offset="0.979167" stop-color="#794AFF"/>
</linearGradient>
</defs>
</svg>
