<svg width="48" height="48" viewBox="0 0 48 48" fill="none" xmlns="http://www.w3.org/2000/svg">
<path d="M45.0863 0.297852H2.70857C2.08416 0.297852 1.48533 0.545895 1.04381 0.987415C0.602292 1.42894 0.354248 2.02777 0.354248 2.65217V45.0299C0.354248 45.6543 0.602292 46.2531 1.04381 46.6946C1.48533 47.1362 2.08416 47.3842 2.70857 47.3842H45.0863C45.7107 47.3842 46.3095 47.1362 46.751 46.6946C47.1925 46.2531 47.4406 45.6543 47.4406 45.0299V2.65217C47.4406 2.02777 47.1925 1.42894 46.751 0.987415C46.3095 0.545895 45.7107 0.297852 45.0863 0.297852ZM1.92379 2.65217C1.92379 2.44403 2.00647 2.24442 2.15365 2.09725C2.30082 1.95008 2.50043 1.8674 2.70857 1.8674H45.0863C45.2944 1.8674 45.494 1.95008 45.6412 2.09725C45.7884 2.24442 45.871 2.44403 45.871 2.65217V9.71512H1.92379V2.65217ZM45.871 45.0299C45.871 45.238 45.7884 45.4376 45.6412 45.5848C45.494 45.732 45.2944 45.8147 45.0863 45.8147H2.70857C2.50043 45.8147 2.30082 45.732 2.15365 45.5848C2.00647 45.4376 1.92379 45.238 1.92379 45.0299V11.2847H45.871V45.0299Z" fill="url(#paint0_linear_184_2300)"/>
<path d="M41.9472 8.14558H23.1126C22.4882 8.14558 21.8894 7.89753 21.4479 7.45601C21.0064 7.01449 20.7583 6.41566 20.7583 5.79126C20.7583 5.16685 21.0064 4.56803 21.4479 4.1265C21.8894 3.68498 22.4882 3.43694 23.1126 3.43694H41.9472C42.5716 3.43694 43.1704 3.68498 43.6119 4.1265C44.0535 4.56803 44.3015 5.16685 44.3015 5.79126C44.3015 6.41566 44.0535 7.01449 43.6119 7.45601C43.1704 7.89753 42.5716 8.14558 41.9472 8.14558ZM23.1126 5.00649C22.9045 5.00649 22.7049 5.08917 22.5577 5.23634C22.4106 5.38351 22.3279 5.58312 22.3279 5.79126C22.3279 5.99939 22.4106 6.199 22.5577 6.34618C22.7049 6.49335 22.9045 6.57603 23.1126 6.57603H41.9472C42.1553 6.57603 42.3549 6.49335 42.5021 6.34618C42.6493 6.199 42.732 5.99939 42.732 5.79126C42.732 5.58312 42.6493 5.38351 42.5021 5.23634C42.3549 5.08917 42.1553 5.00649 41.9472 5.00649H23.1126Z" fill="url(#paint1_linear_184_2300)"/>
<path d="M5.84766 8.14558C5.38202 8.14558 4.92683 8.0075 4.53967 7.7488C4.1525 7.49011 3.85074 7.12241 3.67255 6.69222C3.49436 6.26202 3.44773 5.78865 3.53858 5.33195C3.62942 4.87526 3.85364 4.45576 4.1829 4.12651C4.51216 3.79725 4.93166 3.57302 5.38835 3.48218C5.84504 3.39134 6.31842 3.43796 6.74861 3.61615C7.17881 3.79435 7.5465 4.0961 7.8052 4.48327C8.06389 4.87044 8.20197 5.32562 8.20197 5.79126C8.20197 6.41566 7.95393 7.01449 7.51241 7.45601C7.07089 7.89753 6.47206 8.14558 5.84766 8.14558ZM5.84766 5.00649C5.69244 5.00649 5.54071 5.05251 5.41166 5.13874C5.2826 5.22498 5.18202 5.34754 5.12262 5.49094C5.06322 5.63434 5.04768 5.79213 5.07796 5.94436C5.10824 6.09659 5.18299 6.23642 5.29274 6.34618C5.40249 6.45593 5.54232 6.53067 5.69455 6.56095C5.84678 6.59123 6.00458 6.57569 6.14797 6.51629C6.29137 6.4569 6.41394 6.35631 6.50017 6.22726C6.5864 6.0982 6.63243 5.94647 6.63243 5.79126C6.63243 5.58312 6.54975 5.38351 6.40257 5.23634C6.2554 5.08917 6.05579 5.00649 5.84766 5.00649Z" fill="url(#paint2_linear_184_2300)"/>
<path d="M11.3411 8.14558C10.8754 8.14558 10.4202 8.0075 10.0331 7.7488C9.64591 7.49011 9.34415 7.12241 9.16596 6.69222C8.98776 6.26202 8.94114 5.78865 9.03198 5.33195C9.12282 4.87526 9.34705 4.45576 9.67631 4.12651C10.0056 3.79725 10.4251 3.57302 10.8818 3.48218C11.3385 3.39134 11.8118 3.43796 12.242 3.61615C12.6722 3.79435 13.0399 4.0961 13.2986 4.48327C13.5573 4.87044 13.6954 5.32562 13.6954 5.79126C13.6954 6.41566 13.4473 7.01449 13.0058 7.45601C12.5643 7.89753 11.9655 8.14558 11.3411 8.14558ZM11.3411 5.00649C11.1859 5.00649 11.0341 5.05251 10.9051 5.13874C10.776 5.22498 10.6754 5.34754 10.616 5.49094C10.5566 5.63434 10.5411 5.79213 10.5714 5.94436C10.6016 6.09659 10.6764 6.23642 10.7861 6.34618C10.8959 6.45593 11.0357 6.53067 11.188 6.56095C11.3402 6.59123 11.498 6.57569 11.6414 6.51629C11.7848 6.4569 11.9073 6.35631 11.9936 6.22726C12.0798 6.0982 12.1258 5.94647 12.1258 5.79126C12.1258 5.58312 12.0432 5.38351 11.896 5.23634C11.7488 5.08917 11.5492 5.00649 11.3411 5.00649Z" fill="url(#paint3_linear_184_2300)"/>
<path d="M16.8345 8.14558C16.3688 8.14558 15.9136 8.0075 15.5265 7.7488C15.1393 7.49011 14.8376 7.12241 14.6594 6.69222C14.4812 6.26202 14.4345 5.78865 14.5254 5.33195C14.6162 4.87526 14.8405 4.45576 15.1697 4.12651C15.499 3.79725 15.9185 3.57302 16.3752 3.48218C16.8319 3.39134 17.3052 3.43796 17.7354 3.61615C18.1656 3.79435 18.5333 4.0961 18.792 4.48327C19.0507 4.87044 19.1888 5.32562 19.1888 5.79126C19.1888 6.41566 18.9407 7.01449 18.4992 7.45601C18.0577 7.89753 17.4589 8.14558 16.8345 8.14558ZM16.8345 5.00649C16.6793 5.00649 16.5275 5.05251 16.3985 5.13874C16.2694 5.22498 16.1688 5.34754 16.1094 5.49094C16.05 5.63434 16.0345 5.79213 16.0648 5.94436C16.0951 6.09659 16.1698 6.23642 16.2796 6.34618C16.3893 6.45593 16.5291 6.53067 16.6814 6.56095C16.8336 6.59123 16.9914 6.57569 17.1348 6.51629C17.2782 6.4569 17.4008 6.35631 17.487 6.22726C17.5732 6.0982 17.6192 5.94647 17.6192 5.79126C17.6192 5.58312 17.5366 5.38351 17.3894 5.23634C17.2422 5.08917 17.0426 5.00649 16.8345 5.00649Z" fill="url(#paint4_linear_184_2300)"/>
<path d="M19.9736 25.4106H7.4172C7.20906 25.4106 7.00946 25.3279 6.86228 25.1807C6.71511 25.0335 6.63243 24.8339 6.63243 24.6258V15.2085C6.63243 15.0004 6.71511 14.8008 6.86228 14.6536C7.00946 14.5064 7.20906 14.4238 7.4172 14.4238H19.9736C20.1817 14.4238 20.3813 14.5064 20.5285 14.6536C20.6756 14.8008 20.7583 15.0004 20.7583 15.2085V24.6258C20.7583 24.8339 20.6756 25.0335 20.5285 25.1807C20.3813 25.3279 20.1817 25.4106 19.9736 25.4106ZM8.20197 23.841H19.1888V15.9933H8.20197V23.841Z" fill="url(#paint5_linear_184_2300)"/>
<path d="M40.3776 17.5628H24.6822C24.4741 17.5628 24.2744 17.4802 24.1273 17.333C23.9801 17.1858 23.8974 16.9862 23.8974 16.7781C23.8974 16.5699 23.9801 16.3703 24.1273 16.2232C24.2744 16.076 24.4741 15.9933 24.6822 15.9933H40.3776C40.5858 15.9933 40.7854 16.076 40.9326 16.2232C41.0797 16.3703 41.1624 16.5699 41.1624 16.7781C41.1624 16.9862 41.0797 17.1858 40.9326 17.333C40.7854 17.4802 40.5858 17.5628 40.3776 17.5628Z" fill="url(#paint6_linear_184_2300)"/>
<path d="M40.3776 20.7019H24.6822C24.4741 20.7019 24.2744 20.6193 24.1273 20.4721C23.9801 20.3249 23.8974 20.1253 23.8974 19.9172C23.8974 19.709 23.9801 19.5094 24.1273 19.3622C24.2744 19.2151 24.4741 19.1324 24.6822 19.1324H40.3776C40.5858 19.1324 40.7854 19.2151 40.9326 19.3622C41.0797 19.5094 41.1624 19.709 41.1624 19.9172C41.1624 20.1253 41.0797 20.3249 40.9326 20.4721C40.7854 20.6193 40.5858 20.7019 40.3776 20.7019Z" fill="url(#paint7_linear_184_2300)"/>
<path d="M40.3776 23.841H24.6822C24.4741 23.841 24.2744 23.7583 24.1273 23.6112C23.9801 23.464 23.8974 23.2644 23.8974 23.0563C23.8974 22.8481 23.9801 22.6485 24.1273 22.5013C24.2744 22.3542 24.4741 22.2715 24.6822 22.2715H40.3776C40.5858 22.2715 40.7854 22.3542 40.9326 22.5013C41.0797 22.6485 41.1624 22.8481 41.1624 23.0563C41.1624 23.2644 41.0797 23.464 40.9326 23.6112C40.7854 23.7583 40.5858 23.841 40.3776 23.841Z" fill="url(#paint8_linear_184_2300)"/>
<path d="M40.3776 31.6887H32.5299C32.3218 31.6887 32.1222 31.6061 31.975 31.4589C31.8278 31.3117 31.7451 31.1121 31.7451 30.904V27.7649C31.7451 27.5568 31.8278 27.3571 31.975 27.21C32.1222 27.0628 32.3218 26.9801 32.5299 26.9801H40.3776C40.5858 26.9801 40.7854 27.0628 40.9326 27.21C41.0797 27.3571 41.1624 27.5568 41.1624 27.7649V30.904C41.1624 31.1121 41.0797 31.3117 40.9326 31.4589C40.7854 31.6061 40.5858 31.6887 40.3776 31.6887ZM33.3147 30.1192H39.5929V28.5497H33.3147V30.1192Z" fill="url(#paint9_linear_184_2300)"/>
<path d="M15.2649 31.6887H7.4172C7.20906 31.6887 7.00946 31.6061 6.86228 31.4589C6.71511 31.3117 6.63243 31.1121 6.63243 30.904V27.7649C6.63243 27.5568 6.71511 27.3571 6.86228 27.21C7.00946 27.0628 7.20906 26.9801 7.4172 26.9801H15.2649C15.4731 26.9801 15.6727 27.0628 15.8198 27.21C15.967 27.3571 16.0497 27.5568 16.0497 27.7649V30.904C16.0497 31.1121 15.967 31.3117 15.8198 31.4589C15.6727 31.6061 15.4731 31.6887 15.2649 31.6887ZM8.20197 30.1192H14.4802V28.5497H8.20197V30.1192Z" fill="url(#paint10_linear_184_2300)"/>
<path d="M27.8213 31.6887H19.9736C19.7654 31.6887 19.5658 31.6061 19.4186 31.4589C19.2715 31.3117 19.1888 31.1121 19.1888 30.904V27.7649C19.1888 27.5568 19.2715 27.3571 19.4186 27.21C19.5658 27.0628 19.7654 26.9801 19.9736 26.9801H27.8213C28.0294 26.9801 28.229 27.0628 28.3762 27.21C28.5234 27.3571 28.6061 27.5568 28.6061 27.7649V30.904C28.6061 31.1121 28.5234 31.3117 28.3762 31.4589C28.229 31.6061 28.0294 31.6887 27.8213 31.6887ZM20.7583 30.1192H27.0365V28.5497H20.7583V30.1192Z" fill="url(#paint11_linear_184_2300)"/>
<path d="M40.3776 42.6756H7.4172C7.20906 42.6756 7.00946 42.5929 6.86228 42.4457C6.71511 42.2985 6.63243 42.0989 6.63243 41.8908V34.0431C6.63243 33.8349 6.71511 33.6353 6.86228 33.4881C7.00946 33.341 7.20906 33.2583 7.4172 33.2583H40.3776C40.5858 33.2583 40.7854 33.341 40.9326 33.4881C41.0797 33.6353 41.1624 33.8349 41.1624 34.0431V41.8908C41.1624 42.0989 41.0797 42.2985 40.9326 42.4457C40.7854 42.5929 40.5858 42.6756 40.3776 42.6756ZM8.20197 41.106H39.5929V34.8278H8.20197V41.106Z" fill="url(#paint12_linear_184_2300)"/>
<defs>
<linearGradient id="paint0_linear_184_2300" x1="6.77155" y1="0.297852" x2="24.4546" y2="51.9012" gradientUnits="userSpaceOnUse">
<stop stop-color="#DEBCFF"/>
<stop offset="0.979167" stop-color="#794AFF"/>
</linearGradient>
<linearGradient id="paint1_linear_184_2300" x1="6.77155" y1="0.297852" x2="24.4546" y2="51.9012" gradientUnits="userSpaceOnUse">
<stop stop-color="#DEBCFF"/>
<stop offset="0.979167" stop-color="#794AFF"/>
</linearGradient>
<linearGradient id="paint2_linear_184_2300" x1="6.77155" y1="0.297852" x2="24.4546" y2="51.9012" gradientUnits="userSpaceOnUse">
<stop stop-color="#DEBCFF"/>
<stop offset="0.979167" stop-color="#794AFF"/>
</linearGradient>
<linearGradient id="paint3_linear_184_2300" x1="6.77155" y1="0.297852" x2="24.4546" y2="51.9012" gradientUnits="userSpaceOnUse">
<stop stop-color="#DEBCFF"/>
<stop offset="0.979167" stop-color="#794AFF"/>
</linearGradient>
<linearGradient id="paint4_linear_184_2300" x1="6.77155" y1="0.297852" x2="24.4546" y2="51.9012" gradientUnits="userSpaceOnUse">
<stop stop-color="#DEBCFF"/>
<stop offset="0.979167" stop-color="#794AFF"/>
</linearGradient>
<linearGradient id="paint5_linear_184_2300" x1="6.77155" y1="0.297852" x2="24.4546" y2="51.9012" gradientUnits="userSpaceOnUse">
<stop stop-color="#DEBCFF"/>
<stop offset="0.979167" stop-color="#794AFF"/>
</linearGradient>
<linearGradient id="paint6_linear_184_2300" x1="6.77155" y1="0.297852" x2="24.4546" y2="51.9012" gradientUnits="userSpaceOnUse">
<stop stop-color="#DEBCFF"/>
<stop offset="0.979167" stop-color="#794AFF"/>
</linearGradient>
<linearGradient id="paint7_linear_184_2300" x1="6.77155" y1="0.297852" x2="24.4546" y2="51.9012" gradientUnits="userSpaceOnUse">
<stop stop-color="#DEBCFF"/>
<stop offset="0.979167" stop-color="#794AFF"/>
</linearGradient>
<linearGradient id="paint8_linear_184_2300" x1="6.77155" y1="0.297852" x2="24.4546" y2="51.9012" gradientUnits="userSpaceOnUse">
<stop stop-color="#DEBCFF"/>
<stop offset="0.979167" stop-color="#794AFF"/>
</linearGradient>
<linearGradient id="paint9_linear_184_2300" x1="6.77155" y1="0.297852" x2="24.4546" y2="51.9012" gradientUnits="userSpaceOnUse">
<stop stop-color="#DEBCFF"/>
<stop offset="0.979167" stop-color="#794AFF"/>
</linearGradient>
<linearGradient id="paint10_linear_184_2300" x1="6.77155" y1="0.297852" x2="24.4546" y2="51.9012" gradientUnits="userSpaceOnUse">
<stop stop-color="#DEBCFF"/>
<stop offset="0.979167" stop-color="#794AFF"/>
</linearGradient>
<linearGradient id="paint11_linear_184_2300" x1="6.77155" y1="0.297852" x2="24.4546" y2="51.9012" gradientUnits="userSpaceOnUse">
<stop stop-color="#DEBCFF"/>
<stop offset="0.979167" stop-color="#794AFF"/>
</linearGradient>
<linearGradient id="paint12_linear_184_2300" x1="6.77155" y1="0.297852" x2="24.4546" y2="51.9012" gradientUnits="userSpaceOnUse">
<stop stop-color="#DEBCFF"/>
<stop offset="0.979167" stop-color="#794AFF"/>
</linearGradient>
</defs>
</svg>
