<svg width="66" height="72" viewBox="0 0 66 72" fill="none" xmlns="http://www.w3.org/2000/svg">
<g clip-path="url(#clip0_184_2118)">
<path d="M55.5289 72H10.8562C6.45911 72 2.87891 68.4181 2.87891 64.019V9.74831C2.87891 5.3492 6.45911 1.76733 10.8562 1.76733H55.5289C59.926 1.76733 63.5062 5.3492 63.5062 9.74831V64.019C63.5062 68.4181 59.926 72 55.5289 72ZM10.8562 4.95973C8.2173 4.95973 6.06982 7.10821 6.06982 9.74831V64.019C6.06982 66.6591 8.2173 68.8076 10.8562 68.8076H55.5289C58.1678 68.8076 60.3153 66.6591 60.3153 64.019V9.74831C60.3153 7.10821 58.1678 4.95973 55.5289 4.95973H10.8562Z" fill="#794AFF"/>
<path d="M52.338 52.8455H17.238C16.3573 52.8455 15.6426 52.1304 15.6426 51.2493C15.6426 50.3682 16.3573 49.6531 17.238 49.6531H52.338C53.2187 49.6531 53.9335 50.3682 53.9335 51.2493C53.9335 52.1304 53.2187 52.8455 52.338 52.8455Z" fill="#794AFF"/>
<path d="M52.338 40.0762H17.238C16.3573 40.0762 15.6426 39.3611 15.6426 38.48C15.6426 37.5989 16.3573 36.8838 17.238 36.8838H52.338C53.2187 36.8838 53.9335 37.5989 53.9335 38.48C53.9335 39.3611 53.2187 40.0762 52.338 40.0762Z" fill="#794AFF"/>
<path d="M36.3835 27.3064H17.238C16.3573 27.3064 15.6426 26.5913 15.6426 25.7102C15.6426 24.8291 16.3573 24.114 17.238 24.114H36.3835C37.2642 24.114 37.9789 24.8291 37.9789 25.7102C37.9789 26.5913 37.2642 27.3064 36.3835 27.3064Z" fill="#794AFF"/>
</g>
<defs>
<clipPath id="clip0_184_2118">
<rect width="66" height="72" fill="white"/>
</clipPath>
</defs>
</svg>
