<svg width="75" height="75" viewBox="0 0 75 75" fill="none" xmlns="http://www.w3.org/2000/svg">
<path d="M17.2341 26.4993H45.3614C45.6622 26.4936 45.9488 26.37 46.1596 26.1552C46.3703 25.9404 46.4883 25.6515 46.4883 25.3506C46.4883 25.0497 46.3703 24.7608 46.1595 24.546C45.9488 24.3312 45.6621 24.2077 45.3613 24.202H17.2341C16.9333 24.2077 16.6467 24.3312 16.4359 24.546C16.2252 24.7608 16.1071 25.0497 16.1071 25.3506C16.1071 25.6515 16.2252 25.9404 16.4359 26.1552C16.6467 26.37 16.9333 26.4936 17.2341 26.4993Z" fill="#7A69F3"/>
<path d="M17.2341 35.2499H34.548C34.8487 35.2439 35.135 35.1202 35.3456 34.9055C35.5561 34.6907 35.674 34.4019 35.674 34.1012C35.674 33.8004 35.5561 33.5117 35.3455 33.2969C35.1349 33.0822 34.8486 32.9585 34.5479 32.9526H17.2341C16.9334 32.9585 16.6471 33.0822 16.4365 33.2969C16.226 33.5117 16.108 33.8005 16.108 34.1012C16.108 34.402 16.226 34.6907 16.4365 34.9055C16.6471 35.1203 16.9334 35.2439 17.2341 35.2499Z" fill="#7A69F3"/>
<path d="M34.9237 41.7032H17.2341C16.9295 41.7032 16.6373 41.8242 16.4219 42.0396C16.2065 42.255 16.0854 42.5472 16.0854 42.8519C16.0854 43.1565 16.2065 43.4487 16.4219 43.6641C16.6373 43.8795 16.9295 44.0005 17.2341 44.0005H34.9237C35.2247 43.995 35.5114 43.8715 35.7223 43.6567C35.9332 43.4419 36.0513 43.1529 36.0513 42.8519C36.0513 42.5508 35.9332 42.2618 35.7223 42.047C35.5114 41.8322 35.2247 41.7088 34.9237 41.7032Z" fill="#7A69F3"/>
<path d="M32.2978 50.4537H17.2341C16.9332 50.4593 16.6464 50.5828 16.4356 50.7976C16.2247 51.0124 16.1066 51.3014 16.1066 51.6024C16.1066 51.9035 16.2247 52.1924 16.4356 52.4072C16.6465 52.6221 16.9332 52.7455 17.2342 52.7511H32.2978C32.5988 52.7455 32.8855 52.622 33.0964 52.4072C33.3073 52.1924 33.4254 51.9034 33.4254 51.6024C33.4254 51.3014 33.3073 51.0124 33.0964 50.7976C32.8855 50.5828 32.5988 50.4593 32.2978 50.4537Z" fill="#7A69F3"/>
<path d="M70.5474 11.0543C70.4702 10.6191 70.3074 10.2036 70.0684 9.83178C69.8295 9.45997 69.5191 9.13926 69.1554 8.88824L65.8329 6.58365C65.0993 6.07687 64.1948 5.88144 63.3174 6.04018C62.4401 6.19891 61.6614 6.69887 61.1519 7.43055L56.7491 13.7772C56.6911 12.5886 56.1788 11.4677 55.3182 10.6459C54.4576 9.82414 53.3142 9.36419 52.1242 9.36104H10.4712C9.23874 9.36247 8.05713 9.85276 7.18567 10.7243C6.31421 11.5959 5.82408 12.7776 5.82281 14.0101V62.943C5.82408 64.1755 6.31421 65.3572 7.18567 66.2288C8.05713 67.1003 9.23874 67.5906 10.4712 67.5921H52.1242C53.3568 67.5906 54.5384 67.1003 55.4098 66.2288C56.2813 65.3572 56.7714 64.1755 56.7727 62.943V32.637C59.8416 28.2114 67.0036 17.8905 70.0001 13.5697C70.2531 13.2074 70.4317 12.7986 70.5257 12.3668C70.6196 11.935 70.627 11.4889 70.5474 11.0543ZM54.4753 62.943C54.4747 63.5665 54.2269 64.1642 53.7861 64.6051C53.3453 65.046 52.7476 65.294 52.1242 65.2947H10.4712C9.84781 65.294 9.25013 65.046 8.80935 64.6051C8.36857 64.1642 8.1207 63.5665 8.12012 62.943V14.01C8.1207 13.3866 8.36857 12.7889 8.80935 12.348C9.25013 11.9071 9.84781 11.6591 10.4712 11.6583H52.1242C52.7477 11.6591 53.3454 11.9071 53.7861 12.348C54.2269 12.7888 54.4748 13.3866 54.4754 14.01V17.0549L40.5862 37.0767C40.5297 37.2008 40.4719 37.3173 40.4179 37.4429L37.4364 48.9339C37.382 49.1585 37.3963 49.3944 37.4773 49.6109C37.5583 49.8274 37.7024 50.0146 37.891 50.1483C38.0795 50.2821 38.3038 50.3562 38.5349 50.3612C38.766 50.3661 38.9933 50.3017 39.1874 50.1761L49.1122 43.5269C49.2349 43.424 49.3488 43.311 49.4526 43.189L54.4754 35.9486L54.4753 62.943ZM42.2276 39.6138L46.4518 42.5445L40.4191 46.586L42.2276 39.6138ZM48.2016 40.9622L43.128 37.4423L57.5214 16.6935L62.5956 20.2137L48.2016 40.9622ZM68.1133 12.2596L63.9054 18.3256L58.8312 14.8055L63.0386 8.74015C63.2002 8.50819 63.447 8.34968 63.7252 8.29932C64.0033 8.24897 64.2901 8.31088 64.5227 8.47149L67.8452 10.7755C68.0766 10.9375 68.2347 11.1844 68.2849 11.4623C68.3351 11.7403 68.2734 12.0269 68.1133 12.2596Z" fill="#7A69F3"/>
</svg>
