<svg width="76" height="76" viewBox="0 0 76 76" fill="none" xmlns="http://www.w3.org/2000/svg">
<g clip-path="url(#clip0_184_2210)">
<path d="M60.8 0H15.2C13.0464 0 11.4 1.64642 11.4 3.8V72.2C11.4 74.3536 13.0464 76 15.2 76H49.9065L64.6 61.3065V3.8C64.6 1.64642 62.9536 0 60.8 0ZM62.0667 60.2935L50.6667 71.6935V63.3333C50.6667 62.5732 51.1732 62.0667 51.9333 62.0667H58.2667V59.5333H51.9333C49.7797 59.5333 48.1333 61.1798 48.1333 63.3333V73.4667H15.2C14.4399 73.4667 13.9333 72.9601 13.9333 72.2V3.8C13.9333 3.03988 14.4399 2.53333 15.2 2.53333H60.8C61.5601 2.53333 62.0667 3.03988 62.0667 3.8V60.2935Z" fill="#7C6BF7"/>
<path d="M30.4 7.59998H45.6V10.1333H30.4V7.59998Z" fill="#7C6BF7"/>
<path d="M21.5333 41.8H54.4667V44.3333H21.5333V41.8Z" fill="#7C6BF7"/>
<path d="M21.5333 48.1334H54.4667V50.6667H21.5333V48.1334Z" fill="#7C6BF7"/>
<path d="M21.5333 54.4667H54.4667V57H21.5333V54.4667Z" fill="#7C6BF7"/>
<path d="M21.5333 60.8H43.0667V63.3333H21.5333V60.8Z" fill="#7C6BF7"/>
<path d="M49.4 33.6934V18.2399L38 12.5399L26.6 18.2399V33.6934L38 39.3934L49.4 33.6934ZM38 23.8131L34.8333 21.9131L42.4333 17.6065L45.6 19.1268L38 23.8131ZM39.6464 16.2131L32.4268 20.3934L30.4 19.1268L38 15.3268L39.6464 16.2131ZM29.1333 21.2797L36.7333 25.9666V33.3131H39.2667V25.9666L46.8667 21.2797V32.1732L38 36.6065L29.1333 32.1732V21.2797Z" fill="#7C6BF7"/>
</g>
<defs>
<clipPath id="clip0_184_2210">
<rect width="76" height="76" fill="white"/>
</clipPath>
</defs>
</svg>
