<svg width="61" height="61" viewBox="0 0 61 61" fill="none" xmlns="http://www.w3.org/2000/svg">
<path d="M55.4707 0.176025H5.70575C2.65609 0.176025 0.17627 2.65585 0.17627 5.7055V55.4704C0.17627 58.52 2.65609 60.9999 5.70575 60.9999H55.4707C58.5202 60.9999 61.0002 58.5201 61.0002 55.4704V5.7055C61 2.65585 58.5202 0.176025 55.4707 0.176025ZM58.2353 55.4704C58.2353 56.9945 56.9947 58.2351 55.4707 58.2351H5.70575C4.1817 58.2351 2.94107 56.9945 2.94107 55.4704V49.9409H58.2353V55.4704ZM58.2353 47.1763H2.94094V13.9997H58.2353V47.1763ZM58.2353 11.2349H2.94094V5.7055C2.94094 4.18145 4.18157 2.94083 5.70562 2.94083H55.4705C56.9946 2.94083 58.2352 4.18145 58.2352 5.7055V11.2349H58.2353Z" fill="#7C6BF6"/>
<path d="M7.08821 8.47025C7.85169 8.47025 8.47061 7.85133 8.47061 7.08785C8.47061 6.32437 7.85169 5.70544 7.08821 5.70544C6.32473 5.70544 5.70581 6.32437 5.70581 7.08785C5.70581 7.85133 6.32473 8.47025 7.08821 8.47025Z" fill="#7C6BF6"/>
<path d="M12.6177 8.47025C13.3812 8.47025 14.0001 7.85133 14.0001 7.08785C14.0001 6.32437 13.3812 5.70544 12.6177 5.70544C11.8542 5.70544 11.2353 6.32437 11.2353 7.08785C11.2353 7.85133 11.8542 8.47025 12.6177 8.47025Z" fill="#7C6BF6"/>
<path d="M18.1472 8.47025C18.9107 8.47025 19.5296 7.85133 19.5296 7.08785C19.5296 6.32437 18.9107 5.70544 18.1472 5.70544C17.3838 5.70544 16.7648 6.32437 16.7648 7.08785C16.7648 7.85133 17.3838 8.47025 18.1472 8.47025Z" fill="#7C6BF6"/>
<path d="M18.1472 55.4706H43.0297C43.7938 55.4706 44.4121 54.8522 44.4121 54.0882C44.4121 53.3241 43.7938 52.7057 43.0297 52.7057H18.1472C17.3831 52.7057 16.7648 53.3241 16.7648 54.0882C16.7648 54.8522 17.3831 55.4706 18.1472 55.4706Z" fill="#7C6BF6"/>
</svg>
