<svg width="64" height="64" viewBox="0 0 64 64" fill="none" xmlns="http://www.w3.org/2000/svg">
<g clip-path="url(#clip0_184_2190)">
<path d="M58.08 0H5.80804C2.60475 0 0 2.60475 0 5.80804V58.08C0 61.2831 2.60475 63.888 5.80804 63.888H58.08C61.2831 63.888 63.888 61.2833 63.888 58.08V5.80804C63.8879 2.60475 61.2831 0 58.08 0ZM60.9839 58.08C60.9839 59.6808 59.6808 60.9839 58.08 60.9839H5.80804C4.20721 60.9839 2.90409 59.6808 2.90409 58.08V26.136H60.9839V58.08ZM60.9839 23.232H2.90395V14.52H60.9839V23.232ZM60.9839 11.6159H2.90395V5.80804C2.90395 4.20721 4.20707 2.90409 5.8079 2.90409H58.0798C59.6807 2.90409 60.9838 4.20721 60.9838 5.80804V11.6159H60.9839Z" fill="#794AFF"/>
<path d="M7.25995 8.71201C8.06189 8.71201 8.71199 8.06191 8.71199 7.25997C8.71199 6.45802 8.06189 5.80792 7.25995 5.80792C6.45801 5.80792 5.80791 6.45802 5.80791 7.25997C5.80791 8.06191 6.45801 8.71201 7.25995 8.71201Z" fill="#794AFF"/>
<path d="M13.068 8.71201C13.8699 8.71201 14.52 8.06191 14.52 7.25997C14.52 6.45802 13.8699 5.80792 13.068 5.80792C12.266 5.80792 11.6159 6.45802 11.6159 7.25997C11.6159 8.06191 12.266 8.71201 13.068 8.71201Z" fill="#794AFF"/>
<path d="M18.876 8.71201C19.678 8.71201 20.3281 8.06191 20.3281 7.25997C20.3281 6.45802 19.678 5.80792 18.876 5.80792C18.0741 5.80792 17.424 6.45802 17.424 7.25997C17.424 8.06191 18.0741 8.71201 18.876 8.71201Z" fill="#794AFF"/>
<path d="M18.876 20.3279H45.012C45.8146 20.3279 46.464 19.6784 46.464 18.8759C46.464 18.0733 45.8146 17.424 45.012 17.424H18.876C18.0734 17.424 17.424 18.0734 17.424 18.876C17.424 19.6786 18.0734 20.3279 18.876 20.3279Z" fill="#794AFF"/>
</g>
<defs>
<clipPath id="clip0_184_2190">
<rect width="63.8879" height="63.8879" fill="white"/>
</clipPath>
</defs>
</svg>
