<svg width="59" height="67" viewBox="0 0 59 67" fill="none" xmlns="http://www.w3.org/2000/svg">
<g filter="url(#filter0_d_184_2161)">
<path fill-rule="evenodd" clip-rule="evenodd" d="M55.9164 7.49984C55.9164 3.58842 52.7444 0.416504 48.833 0.416504C39.0212 0.416504 18.9782 0.416504 9.16634 0.416504C5.25493 0.416504 2.08301 3.58842 2.08301 7.49984V58.4998C2.08301 62.4113 5.25493 65.5832 9.16634 65.5832H48.833C52.7444 65.5832 55.9164 62.4113 55.9164 58.4998V7.49984ZM53.083 7.49984V58.4998C53.083 60.8473 51.1804 62.7498 48.833 62.7498H9.16634C6.81893 62.7498 4.91634 60.8473 4.91634 58.4998C4.91634 46.6466 4.91634 19.3531 4.91634 7.49984C4.91634 5.15242 6.81893 3.24984 9.16634 3.24984H48.833C51.1804 3.24984 53.083 5.15242 53.083 7.49984Z" fill="#7666EA"/>
<path fill-rule="evenodd" clip-rule="evenodd" d="M14.833 11.7498C12.487 11.7498 10.583 13.6538 10.583 15.9998C10.583 18.3458 12.487 20.2498 14.833 20.2498C17.179 20.2498 19.083 18.3458 19.083 15.9998C19.083 13.6538 17.179 11.7498 14.833 11.7498ZM14.833 14.5832C15.615 14.5832 16.2497 15.2178 16.2497 15.9998C16.2497 16.7818 15.615 17.4165 14.833 17.4165C14.051 17.4165 13.4163 16.7818 13.4163 15.9998C13.4163 15.2178 14.051 14.5832 14.833 14.5832Z" fill="#7666EA"/>
<path fill-rule="evenodd" clip-rule="evenodd" d="M14.833 28.7498C12.487 28.7498 10.583 30.6538 10.583 32.9998C10.583 35.3458 12.487 37.2498 14.833 37.2498C17.179 37.2498 19.083 35.3458 19.083 32.9998C19.083 30.6538 17.179 28.7498 14.833 28.7498ZM14.833 31.5832C15.615 31.5832 16.2497 32.2178 16.2497 32.9998C16.2497 33.7818 15.615 34.4165 14.833 34.4165C14.051 34.4165 13.4163 33.7818 13.4163 32.9998C13.4163 32.2178 14.051 31.5832 14.833 31.5832Z" fill="#7666EA"/>
<path fill-rule="evenodd" clip-rule="evenodd" d="M14.833 45.7499C12.487 45.7499 10.583 47.6539 10.583 49.9999C10.583 52.3459 12.487 54.2499 14.833 54.2499C17.179 54.2499 19.083 52.3459 19.083 49.9999C19.083 47.6539 17.179 45.7499 14.833 45.7499ZM14.833 48.5832C15.615 48.5832 16.2497 49.2179 16.2497 49.9999C16.2497 50.7819 15.615 51.4165 14.833 51.4165C14.051 51.4165 13.4163 50.7819 13.4163 49.9999C13.4163 49.2179 14.051 48.5832 14.833 48.5832Z" fill="#7666EA"/>
<path fill-rule="evenodd" clip-rule="evenodd" d="M23.333 14.5832H45.9997C46.7817 14.5832 47.4164 13.9485 47.4164 13.1665C47.4164 12.3845 46.7817 11.7498 45.9997 11.7498H23.333C22.551 11.7498 21.9164 12.3845 21.9164 13.1665C21.9164 13.9485 22.551 14.5832 23.333 14.5832Z" fill="#7666EA"/>
<path fill-rule="evenodd" clip-rule="evenodd" d="M23.333 31.5832H45.9997C46.7817 31.5832 47.4164 30.9485 47.4164 30.1665C47.4164 29.3845 46.7817 28.7498 45.9997 28.7498H23.333C22.551 28.7498 21.9164 29.3845 21.9164 30.1665C21.9164 30.9485 22.551 31.5832 23.333 31.5832Z" fill="#7666EA"/>
<path fill-rule="evenodd" clip-rule="evenodd" d="M23.333 48.5832H45.9997C46.7817 48.5832 47.4164 47.9485 47.4164 47.1665C47.4164 46.3845 46.7817 45.7499 45.9997 45.7499H23.333C22.551 45.7499 21.9164 46.3845 21.9164 47.1665C21.9164 47.9485 22.551 48.5832 23.333 48.5832Z" fill="#7666EA"/>
<path fill-rule="evenodd" clip-rule="evenodd" d="M23.333 20.2498H37.4997C38.2817 20.2498 38.9164 19.6152 38.9164 18.8332C38.9164 18.0512 38.2817 17.4165 37.4997 17.4165H23.333C22.551 17.4165 21.9164 18.0512 21.9164 18.8332C21.9164 19.6152 22.551 20.2498 23.333 20.2498Z" fill="#7666EA"/>
<path fill-rule="evenodd" clip-rule="evenodd" d="M23.333 37.2498H37.4997C38.2817 37.2498 38.9164 36.6152 38.9164 35.8332C38.9164 35.0512 38.2817 34.4165 37.4997 34.4165H23.333C22.551 34.4165 21.9164 35.0512 21.9164 35.8332C21.9164 36.6152 22.551 37.2498 23.333 37.2498Z" fill="#7666EA"/>
<path fill-rule="evenodd" clip-rule="evenodd" d="M23.333 54.2498H37.4997C38.2817 54.2498 38.9164 53.6152 38.9164 52.8332C38.9164 52.0512 38.2817 51.4165 37.4997 51.4165H23.333C22.551 51.4165 21.9164 52.0512 21.9164 52.8332C21.9164 53.6152 22.551 54.2498 23.333 54.2498Z" fill="#7666EA"/>
<path fill-rule="evenodd" clip-rule="evenodd" d="M45.9997 17.4165H43.1664C42.3844 17.4165 41.7497 18.0512 41.7497 18.8332C41.7497 19.6152 42.3844 20.2498 43.1664 20.2498H45.9997C46.7817 20.2498 47.4164 19.6152 47.4164 18.8332C47.4164 18.0512 46.7817 17.4165 45.9997 17.4165Z" fill="#7666EA"/>
<path fill-rule="evenodd" clip-rule="evenodd" d="M45.9997 34.4165H43.1664C42.3844 34.4165 41.7497 35.0512 41.7497 35.8332C41.7497 36.6152 42.3844 37.2498 43.1664 37.2498H45.9997C46.7817 37.2498 47.4164 36.6152 47.4164 35.8332C47.4164 35.0512 46.7817 34.4165 45.9997 34.4165Z" fill="#7666EA"/>
<path fill-rule="evenodd" clip-rule="evenodd" d="M45.9997 51.4165H43.1664C42.3844 51.4165 41.7497 52.0512 41.7497 52.8332C41.7497 53.6152 42.3844 54.2498 43.1664 54.2498H45.9997C46.7817 54.2498 47.4164 53.6152 47.4164 52.8332C47.4164 52.0512 46.7817 51.4165 45.9997 51.4165Z" fill="#7666EA"/>
</g>
<defs>
<filter id="filter0_d_184_2161" x="-1.91699" y="0.416504" width="61.8334" height="73.1667" filterUnits="userSpaceOnUse" color-interpolation-filters="sRGB">
<feFlood flood-opacity="0" result="BackgroundImageFix"/>
<feColorMatrix in="SourceAlpha" type="matrix" values="0 0 0 0 0 0 0 0 0 0 0 0 0 0 0 0 0 0 127 0" result="hardAlpha"/>
<feOffset dy="4"/>
<feGaussianBlur stdDeviation="2"/>
<feComposite in2="hardAlpha" operator="out"/>
<feColorMatrix type="matrix" values="0 0 0 0 0 0 0 0 0 0 0 0 0 0 0 0 0 0 0.25 0"/>
<feBlend mode="normal" in2="BackgroundImageFix" result="effect1_dropShadow_184_2161"/>
<feBlend mode="normal" in="SourceGraphic" in2="effect1_dropShadow_184_2161" result="shape"/>
</filter>
</defs>
</svg>
