<svg width="66" height="66" viewBox="0 0 66 66" fill="none" xmlns="http://www.w3.org/2000/svg">
<path d="M60.8438 2.0625H5.15625C4.33574 2.0625 3.54883 2.38845 2.96864 2.96864C2.38845 3.54883 2.0625 4.33574 2.0625 5.15625V60.8438C2.0625 61.6643 2.38845 62.4512 2.96864 63.0314C3.54883 63.6115 4.33574 63.9375 5.15625 63.9375H60.8438C61.6643 63.9375 62.4512 63.6115 63.0314 63.0314C63.6115 62.4512 63.9375 61.6643 63.9375 60.8438V5.15625C63.9375 4.33574 63.6115 3.54883 63.0314 2.96864C62.4512 2.38845 61.6643 2.0625 60.8438 2.0625ZM4.125 5.15625C4.125 4.88275 4.23365 4.62044 4.42705 4.42705C4.62044 4.23365 4.88275 4.125 5.15625 4.125H60.8438C61.1173 4.125 61.3796 4.23365 61.573 4.42705C61.7663 4.62044 61.875 4.88275 61.875 5.15625V14.4375H4.125V5.15625ZM61.875 60.8438C61.875 61.1173 61.7663 61.3796 61.573 61.573C61.3796 61.7663 61.1173 61.875 60.8438 61.875H5.15625C4.88275 61.875 4.62044 61.7663 4.42705 61.573C4.23365 61.3796 4.125 61.1173 4.125 60.8438V16.5H61.875V60.8438Z" fill="white"/>
<path d="M56.7188 12.375H31.9688C31.1482 12.375 30.3613 12.0491 29.7811 11.4689C29.2009 10.8887 28.875 10.1018 28.875 9.28125C28.875 8.46074 29.2009 7.67383 29.7811 7.09364C30.3613 6.51345 31.1482 6.1875 31.9688 6.1875H56.7188C57.5393 6.1875 58.3262 6.51345 58.9064 7.09364C59.4866 7.67383 59.8125 8.46074 59.8125 9.28125C59.8125 10.1018 59.4866 10.8887 58.9064 11.4689C58.3262 12.0491 57.5393 12.375 56.7188 12.375ZM31.9688 8.25C31.6952 8.25 31.4329 8.35865 31.2395 8.55205C31.0461 8.74544 30.9375 9.00775 30.9375 9.28125C30.9375 9.55475 31.0461 9.81706 31.2395 10.0105C31.4329 10.2039 31.6952 10.3125 31.9688 10.3125H56.7188C56.9923 10.3125 57.2546 10.2039 57.448 10.0105C57.6414 9.81706 57.75 9.55475 57.75 9.28125C57.75 9.00775 57.6414 8.74544 57.448 8.55205C57.2546 8.35865 56.9923 8.25 56.7188 8.25H31.9688Z" fill="white"/>
<path d="M9.28125 12.375C8.66937 12.375 8.07122 12.1936 7.56246 11.8536C7.05369 11.5137 6.65716 11.0305 6.423 10.4652C6.18884 9.89987 6.12757 9.27782 6.24695 8.67769C6.36632 8.07756 6.66097 7.52631 7.09364 7.09364C7.52631 6.66097 8.07756 6.36632 8.67769 6.24695C9.27782 6.12757 9.89987 6.18884 10.4652 6.423C11.0305 6.65716 11.5137 7.05369 11.8536 7.56246C12.1936 8.07122 12.375 8.66937 12.375 9.28125C12.375 10.1018 12.0491 10.8887 11.4689 11.4689C10.8887 12.0491 10.1018 12.375 9.28125 12.375ZM9.28125 8.25C9.07729 8.25 8.87791 8.31048 8.70832 8.4238C8.53873 8.53711 8.40655 8.69817 8.3285 8.88661C8.25045 9.07504 8.23003 9.2824 8.26982 9.48244C8.30961 9.68248 8.40782 9.86623 8.55205 10.0105C8.69627 10.1547 8.88002 10.2529 9.08006 10.2927C9.28011 10.3325 9.48746 10.3121 9.67589 10.234C9.86433 10.1559 10.0254 10.0238 10.1387 9.85418C10.252 9.6846 10.3125 9.48521 10.3125 9.28125C10.3125 9.00775 10.2039 8.74544 10.0105 8.55205C9.81706 8.35865 9.55476 8.25 9.28125 8.25Z" fill="white"/>
<path d="M16.5 12.375C15.8881 12.375 15.29 12.1936 14.7812 11.8536C14.2724 11.5137 13.8759 11.0305 13.6417 10.4652C13.4076 9.89987 13.3463 9.27782 13.4657 8.67769C13.5851 8.07756 13.8797 7.52631 14.3124 7.09364C14.7451 6.66097 15.2963 6.36632 15.8964 6.24695C16.4966 6.12757 17.1186 6.18884 17.6839 6.423C18.2492 6.65716 18.7324 7.05369 19.0724 7.56246C19.4123 8.07122 19.5938 8.66937 19.5938 9.28125C19.5938 10.1018 19.2678 10.8887 18.6876 11.4689C18.1074 12.0491 17.3205 12.375 16.5 12.375ZM16.5 8.25C16.296 8.25 16.0967 8.31048 15.9271 8.4238C15.7575 8.53711 15.6253 8.69817 15.5473 8.88661C15.4692 9.07504 15.4488 9.2824 15.4886 9.48244C15.5284 9.68248 15.6266 9.86623 15.7708 10.0105C15.915 10.1547 16.0988 10.2529 16.2988 10.2927C16.4989 10.3325 16.7062 10.3121 16.8946 10.234C17.0831 10.1559 17.2441 10.0238 17.3575 9.85418C17.4708 9.6846 17.5313 9.48521 17.5313 9.28125C17.5313 9.00775 17.4226 8.74544 17.2292 8.55205C17.0358 8.35865 16.7735 8.25 16.5 8.25Z" fill="white"/>
<path d="M23.7188 12.375C23.1069 12.375 22.5087 12.1936 22 11.8536C21.4912 11.5137 21.0947 11.0305 20.8605 10.4652C20.6263 9.89987 20.5651 9.27782 20.6844 8.67769C20.8038 8.07756 21.0985 7.52631 21.5311 7.09364C21.9638 6.66097 22.5151 6.36632 23.1152 6.24695C23.7153 6.12757 24.3374 6.18884 24.9027 6.423C25.468 6.65716 25.9512 7.05369 26.2911 7.56246C26.6311 8.07122 26.8125 8.66937 26.8125 9.28125C26.8125 10.1018 26.4866 10.8887 25.9064 11.4689C25.3262 12.0491 24.5393 12.375 23.7188 12.375ZM23.7188 8.25C23.5148 8.25 23.3154 8.31048 23.1458 8.4238C22.9762 8.53711 22.8441 8.69817 22.766 8.88661C22.6879 9.07504 22.6675 9.2824 22.7073 9.48244C22.7471 9.68248 22.8453 9.86623 22.9895 10.0105C23.1338 10.1547 23.3175 10.2529 23.5176 10.2927C23.7176 10.3325 23.925 10.3121 24.1134 10.234C24.3018 10.1559 24.4629 10.0238 24.5762 9.85418C24.6895 9.6846 24.75 9.48521 24.75 9.28125C24.75 9.00775 24.6414 8.74544 24.448 8.55205C24.2546 8.35865 23.9923 8.25 23.7188 8.25Z" fill="white"/>
<path d="M27.8438 35.0625H11.3438C11.0702 35.0625 10.8079 34.9539 10.6145 34.7605C10.4211 34.5671 10.3125 34.3048 10.3125 34.0312V21.6562C10.3125 21.3827 10.4211 21.1204 10.6145 20.927C10.8079 20.7336 11.0702 20.625 11.3438 20.625H27.8438C28.1173 20.625 28.3796 20.7336 28.573 20.927C28.7664 21.1204 28.875 21.3827 28.875 21.6562V34.0312C28.875 34.3048 28.7664 34.5671 28.573 34.7605C28.3796 34.9539 28.1173 35.0625 27.8438 35.0625ZM12.375 33H26.8125V22.6875H12.375V33Z" fill="white"/>
<path d="M54.6562 24.75H34.0312C33.7577 24.75 33.4954 24.6414 33.302 24.448C33.1086 24.2546 33 23.9923 33 23.7188C33 23.4452 33.1086 23.1829 33.302 22.9895C33.4954 22.7961 33.7577 22.6875 34.0312 22.6875H54.6562C54.9298 22.6875 55.1921 22.7961 55.3855 22.9895C55.5789 23.1829 55.6875 23.4452 55.6875 23.7188C55.6875 23.9923 55.5789 24.2546 55.3855 24.448C55.1921 24.6414 54.9298 24.75 54.6562 24.75Z" fill="white"/>
<path d="M54.6562 28.875H34.0312C33.7577 28.875 33.4954 28.7664 33.302 28.573C33.1086 28.3796 33 28.1173 33 27.8438C33 27.5702 33.1086 27.3079 33.302 27.1145C33.4954 26.9211 33.7577 26.8125 34.0312 26.8125H54.6562C54.9298 26.8125 55.1921 26.9211 55.3855 27.1145C55.5789 27.3079 55.6875 27.5702 55.6875 27.8438C55.6875 28.1173 55.5789 28.3796 55.3855 28.573C55.1921 28.7664 54.9298 28.875 54.6562 28.875Z" fill="white"/>
<path d="M54.6562 33H34.0312C33.7577 33 33.4954 32.8914 33.302 32.698C33.1086 32.5046 33 32.2423 33 31.9688C33 31.6952 33.1086 31.4329 33.302 31.2395C33.4954 31.0461 33.7577 30.9375 34.0312 30.9375H54.6562C54.9298 30.9375 55.1921 31.0461 55.3855 31.2395C55.5789 31.4329 55.6875 31.6952 55.6875 31.9688C55.6875 32.2423 55.5789 32.5046 55.3855 32.698C55.1921 32.8914 54.9298 33 54.6562 33Z" fill="white"/>
<path d="M54.6562 43.3125H44.3438C44.0702 43.3125 43.8079 43.2039 43.6145 43.0105C43.4211 42.8171 43.3125 42.5548 43.3125 42.2812V38.1562C43.3125 37.8827 43.4211 37.6204 43.6145 37.427C43.8079 37.2336 44.0702 37.125 44.3438 37.125H54.6562C54.9298 37.125 55.1921 37.2336 55.3855 37.427C55.5789 37.6204 55.6875 37.8827 55.6875 38.1562V42.2812C55.6875 42.5548 55.5789 42.8171 55.3855 43.0105C55.1921 43.2039 54.9298 43.3125 54.6562 43.3125ZM45.375 41.25H53.625V39.1875H45.375V41.25Z" fill="white"/>
<path d="M21.6562 43.3125H11.3438C11.0702 43.3125 10.8079 43.2039 10.6145 43.0105C10.4211 42.8171 10.3125 42.5548 10.3125 42.2812V38.1562C10.3125 37.8827 10.4211 37.6204 10.6145 37.427C10.8079 37.2336 11.0702 37.125 11.3438 37.125H21.6562C21.9298 37.125 22.1921 37.2336 22.3855 37.427C22.5789 37.6204 22.6875 37.8827 22.6875 38.1562V42.2812C22.6875 42.5548 22.5789 42.8171 22.3855 43.0105C22.1921 43.2039 21.9298 43.3125 21.6562 43.3125ZM12.375 41.25H20.625V39.1875H12.375V41.25Z" fill="white"/>
<path d="M38.1562 43.3125H27.8438C27.5702 43.3125 27.3079 43.2039 27.1145 43.0105C26.9211 42.8171 26.8125 42.5548 26.8125 42.2812V38.1562C26.8125 37.8827 26.9211 37.6204 27.1145 37.427C27.3079 37.2336 27.5702 37.125 27.8438 37.125H38.1562C38.4298 37.125 38.6921 37.2336 38.8855 37.427C39.0789 37.6204 39.1875 37.8827 39.1875 38.1562V42.2812C39.1875 42.5548 39.0789 42.8171 38.8855 43.0105C38.6921 43.2039 38.4298 43.3125 38.1562 43.3125ZM28.875 41.25H37.125V39.1875H28.875V41.25Z" fill="white"/>
<path d="M54.6562 57.75H11.3438C11.0702 57.75 10.8079 57.6414 10.6145 57.448C10.4211 57.2546 10.3125 56.9923 10.3125 56.7188V46.4062C10.3125 46.1327 10.4211 45.8704 10.6145 45.677C10.8079 45.4836 11.0702 45.375 11.3438 45.375H54.6562C54.9298 45.375 55.1921 45.4836 55.3855 45.677C55.5788 45.8704 55.6875 46.1327 55.6875 46.4062V56.7188C55.6875 56.9923 55.5788 57.2546 55.3855 57.448C55.1921 57.6414 54.9298 57.75 54.6562 57.75ZM12.375 55.6875H53.625V47.4375H12.375V55.6875Z" fill="white"/>
</svg>
