<svg width="58" height="58" viewBox="0 0 58 58" fill="none" xmlns="http://www.w3.org/2000/svg">
<path d="M38.4883 31.7498L55.0315 41.3992L47.9691 43.4184L53.0171 52.1627L48.9027 54.5383L43.8547 45.7963L38.5739 50.9037L38.4883 31.7498ZM33.7373 15.1211H38.4883V19.8722H50.366C50.996 19.8722 51.6003 20.1225 52.0457 20.568C52.4911 21.0135 52.7415 21.6177 52.7415 22.2477V31.7498H47.9905V24.6232H24.2352V48.3785H33.7373V53.1296H21.8596C21.2296 53.1296 20.6254 52.8792 20.1799 52.4338C19.7344 51.9884 19.4841 51.384 19.4841 50.754V38.8764H14.7331V34.1253H19.4841V22.2477C19.4841 21.6177 19.7344 21.0135 20.1799 20.568C20.6254 20.1225 21.2296 19.8722 21.8596 19.8722H33.7373V15.1211ZM9.98201 34.1253V38.8764H5.23096V34.1253H9.98201ZM9.98201 24.6232V29.3743H5.23096V24.6232H9.98201ZM9.98201 15.1211V19.8722H5.23096V15.1211H9.98201ZM9.98201 5.61902V10.3701H5.23096V5.61902H9.98201ZM19.4841 5.61902V10.3701H14.7331V5.61902H19.4841ZM28.9862 5.61902V10.3701H24.2352V5.61902H28.9862ZM38.4883 5.61902V10.3701H33.7373V5.61902H38.4883Z" fill="url(#paint0_linear_184_2442)"/>
<defs>
<linearGradient id="paint0_linear_184_2442" x1="20.2723" y1="5.72429" x2="55.1328" y2="57.2108" gradientUnits="userSpaceOnUse">
<stop stop-color="#FFD9CB"/>
<stop offset="1" stop-color="#FF8254"/>
</linearGradient>
</defs>
</svg>
