<svg width="284" height="15" viewBox="0 0 284 15" fill="none" xmlns="http://www.w3.org/2000/svg">
<path d="M-5.27554e-05 14.2138C5.72625 12.0569 11.7387 10.7508 17.8168 9.62897C39.9026 5.55468 62.3457 3.78065 84.8764 2.73488C122.8 0.973516 160.761 0.0977893 198.765 0.585773C218.701 0.841194 238.573 2.42944 258.469 3.47644C265.143 3.82847 271.814 4.32112 278.505 3.94364C279.019 3.9194 279.535 3.94551 280.042 4.02134C281.895 4.29039 283.228 5.40028 283.366 6.83209C283.519 8.40083 282.619 9.45814 281.019 10.1101C279.957 10.5402 278.802 10.6375 277.639 10.6956C271.656 11.0009 265.688 10.5752 259.721 10.2638C236.559 9.06019 213.414 7.23713 190.185 7.15033C157.717 7.02997 125.28 7.84668 92.8566 8.96048C71.5545 9.69505 50.2329 10.4305 28.9256 11.2917C19.2117 11.674 9.46844 12.029 -5.27554e-05 14.2138Z" fill="url(#paint0_linear_184_2682)"/>
<defs>
<linearGradient id="paint0_linear_184_2682" x1="85.9999" y1="-2.57365" x2="86.556" y2="26.8932" gradientUnits="userSpaceOnUse">
<stop stop-color="#FFD9CB"/>
<stop offset="1" stop-color="#FF8254"/>
</linearGradient>
</defs>
</svg>
