<svg width="47" height="47" viewBox="0 0 47 47" fill="none" xmlns="http://www.w3.org/2000/svg">
<path d="M22.824 44.6481C22.7537 44.6481 22.6823 44.643 22.6105 44.6326C22.0585 44.5496 21.6027 44.1552 21.4423 43.6197L12.7885 14.774C12.6364 14.2663 12.7752 13.7154 13.1506 13.34C13.5266 12.9647 14.0808 12.8251 14.5846 12.978L43.4302 21.6317C43.9653 21.7922 44.3598 22.2479 44.4431 22.8C44.5257 23.3527 44.2812 23.9037 43.8164 24.2134L36.627 29.0065L44.0364 36.4166C44.5999 36.9801 44.5999 37.8928 44.0364 38.456L38.2672 44.2251C37.7037 44.7887 36.791 44.7887 36.2278 44.2251L28.8177 36.8157L24.0247 44.0052C23.7542 44.4108 23.3014 44.6481 22.824 44.6481ZM28.5931 33.1098C28.9742 33.1098 29.3409 33.2605 29.6128 33.5324L37.2468 41.1664L40.9762 37.4366L33.3425 29.8026C33.0368 29.4969 32.8846 29.071 32.9272 28.6405C32.9694 28.2111 33.2026 27.822 33.5625 27.5826L39.6655 23.5143L16.3221 16.5112L23.3252 39.8546L27.3935 33.7516C27.6329 33.3917 28.0216 33.1585 28.4514 33.1163C28.4986 33.1119 28.5459 33.1098 28.5931 33.1098ZM9.42081 9.61063C9.98439 9.04706 9.98439 8.13446 9.42081 7.57124L6.53625 4.68668C5.97267 4.1231 5.06007 4.1231 4.49686 4.68668C3.93364 5.25025 3.93328 6.16285 4.49686 6.72607L7.38142 9.61063C7.66303 9.89224 8.03189 10.0332 8.40112 10.0332C8.77034 10.0332 9.13921 9.89224 9.42081 9.61063ZM8.40112 14.3601C8.40112 13.5636 7.75534 12.9178 6.95884 12.9178H2.63198C1.83548 12.9178 1.1897 13.5636 1.1897 14.3601C1.1897 15.1566 1.83548 15.8024 2.63198 15.8024H6.95884C7.75534 15.8024 8.40112 15.1566 8.40112 14.3601ZM6.53625 24.0335L9.42081 21.1489C9.98439 20.5853 9.98439 19.6727 9.42081 19.1095C8.85724 18.5463 7.94464 18.5459 7.38142 19.1095L4.49686 21.9941C3.93328 22.5577 3.93328 23.4703 4.49686 24.0335C4.77846 24.3151 5.14733 24.4561 5.51655 24.4561C5.88578 24.4561 6.25464 24.3151 6.53625 24.0335ZM20.9591 9.61063L23.8437 6.72607C24.4072 6.16249 24.4072 5.24989 23.8437 4.68668C23.2801 4.12346 22.3675 4.1231 21.8043 4.68668L18.9197 7.57124C18.3561 8.13482 18.3561 9.04742 18.9197 9.61063C19.2013 9.89224 19.5702 10.0332 19.9394 10.0332C20.3086 10.0332 20.6775 9.89224 20.9591 9.61063ZM15.6125 7.14866V2.8218C15.6125 2.0253 14.9668 1.37952 14.1703 1.37952C13.3738 1.37952 12.728 2.0253 12.728 2.8218V7.14866C12.728 7.94516 13.3738 8.59094 14.1703 8.59094C14.9668 8.59094 15.6125 7.94516 15.6125 7.14866Z" fill="url(#paint0_linear_184_2434)"/>
<defs>
<linearGradient id="paint0_linear_184_2434" x1="14.2584" y1="1.47263" x2="45.2928" y2="46.4979" gradientUnits="userSpaceOnUse">
<stop stop-color="#FFD9CB"/>
<stop offset="1" stop-color="#FF8254"/>
</linearGradient>
</defs>
</svg>
