<svg width="25" height="24" viewBox="0 0 25 24" fill="none" xmlns="http://www.w3.org/2000/svg">
<g clip-path="url(#clip0_184_2251)">
<path d="M12.0397 0C5.39577 0 0.0396729 5.3561 0.0396729 12C0.0396729 18.6439 5.39577 24 12.0397 24C18.6836 24 24.0397 18.6439 24.0397 12C24.0397 5.3561 18.6836 0 12.0397 0ZM17.3665 12.5561L9.37626 17.239C9.28845 17.2976 9.14211 17.3268 9.05431 17.3268C8.9665 17.3268 8.82016 17.2976 8.73236 17.239C8.52748 17.0927 8.41041 16.9171 8.41041 16.6829V7.34634H8.38114C8.38114 7.1122 8.52748 6.87805 8.70309 6.79024C8.8787 6.70244 9.17138 6.6439 9.37626 6.79024L17.3665 11.4439C17.5714 11.5902 17.6885 11.7659 17.6885 12C17.6885 12.2341 17.5421 12.4683 17.3665 12.5561Z" fill="white"/>
</g>
<defs>
<clipPath id="clip0_184_2251">
<rect width="24" height="24" fill="white" transform="translate(0.0396729)"/>
</clipPath>
</defs>
</svg>
