<svg width="30" height="30" viewBox="0 0 30 30" fill="none" xmlns="http://www.w3.org/2000/svg">
<rect width="30" height="30" rx="15" fill="#BA7DFF"/>
<path d="M21.5 15C21.5 15.2917 21.4062 15.5312 21.2188 15.7188C21.0312 15.9062 20.7917 16 20.5 16H16V20.5C16 20.7917 15.9062 21.0312 15.7188 21.2188C15.5312 21.4062 15.2917 21.5 15 21.5C14.7083 21.5 14.4688 21.4062 14.2812 21.2188C14.0938 21.0312 14 20.7917 14 20.5V16H9.5C9.20833 16 8.96875 15.9062 8.78125 15.7188C8.59375 15.5312 8.5 15.2917 8.5 15C8.5 14.7083 8.59375 14.4688 8.78125 14.2812C8.96875 14.0938 9.20833 14 9.5 14H14V9.5C14 9.20833 14.0938 8.96875 14.2812 8.78125C14.4688 8.59375 14.7083 8.5 15 8.5C15.2917 8.5 15.5312 8.59375 15.7188 8.78125C15.9062 8.96875 16 9.20833 16 9.5V14H20.5C20.7917 14 21.0312 14.0938 21.2188 14.2812C21.4062 14.4688 21.5 14.7083 21.5 15Z" fill="white"/>
</svg>
