<svg width="58" height="58" viewBox="0 0 58 58" fill="none" xmlns="http://www.w3.org/2000/svg">
<path d="M38.4879 31.7498L55.031 41.3992L47.9686 43.4184L53.0166 52.1627L48.9022 54.5383L43.8542 45.7963L38.5734 50.9037L38.4879 31.7498ZM33.7368 15.1211H38.4879V19.8722H50.3655C50.9955 19.8722 51.5998 20.1225 52.0452 20.568C52.4906 21.0135 52.741 21.6177 52.741 22.2477V31.7498H47.99V24.6232H24.2347V48.3785H33.7368V53.1296H21.8592C21.2291 53.1296 20.6249 52.8792 20.1794 52.4338C19.7339 51.9884 19.4836 51.384 19.4836 50.754V38.8764H14.7326V34.1253H19.4836V22.2477C19.4836 21.6177 19.7339 21.0135 20.1794 20.568C20.6249 20.1225 21.2291 19.8722 21.8592 19.8722H33.7368V15.1211ZM9.98152 34.1253V38.8764H5.23047V34.1253H9.98152ZM9.98152 24.6232V29.3743H5.23047V24.6232H9.98152ZM9.98152 15.1211V19.8722H5.23047V15.1211H9.98152ZM9.98152 5.61902V10.3701H5.23047V5.61902H9.98152ZM19.4836 5.61902V10.3701H14.7326V5.61902H19.4836ZM28.9857 5.61902V10.3701H24.2347V5.61902H28.9857ZM38.4879 5.61902V10.3701H33.7368V5.61902H38.4879Z" fill="url(#paint0_linear_324_61)"/>
<defs>
<linearGradient id="paint0_linear_324_61" x1="30.1307" y1="-11.769" x2="30.8851" y2="59.4215" gradientUnits="userSpaceOnUse">
<stop stop-color="white"/>
<stop offset="0.979167" stop-color="#19B85E"/>
</linearGradient>
</defs>
</svg>
