<svg width="54" height="54" viewBox="0 0 54 54" fill="none" xmlns="http://www.w3.org/2000/svg">
<path d="M27.3781 52.2338C41.1426 52.2338 52.301 41.0755 52.301 27.311C52.301 13.5465 41.1426 2.38818 27.3781 2.38818C13.6136 2.38818 2.45532 13.5465 2.45532 27.311C2.45532 41.0755 13.6136 52.2338 27.3781 52.2338Z" fill="url(#paint0_linear_324_32)"/>
<path d="M27.3777 48.08C38.8481 48.08 48.1467 38.7814 48.1467 27.311C48.1467 15.8406 38.8481 6.54199 27.3777 6.54199C15.9072 6.54199 6.60864 15.8406 6.60864 27.311C6.60864 38.7814 15.9072 48.08 27.3777 48.08Z" fill="#FCFBFF"/>
<path d="M21.2237 32.9018C21.0595 32.9018 20.8927 32.8628 20.7375 32.7803L11.8573 28.0637C11.518 27.8834 11.3059 27.5308 11.3059 27.1465C11.3059 26.7623 11.518 26.4097 11.8573 26.2294L20.7375 21.5127C21.2439 21.2438 21.873 21.4363 22.1417 21.9427C22.4107 22.449 22.2184 23.0779 21.7118 23.3468L14.5583 27.1465L21.7118 30.946C22.2184 31.215 22.4109 31.8439 22.1419 32.3502C21.9552 32.7016 21.5957 32.9018 21.2237 32.9018Z" fill="#00155A"/>
<path d="M33.9948 32.9019C33.623 32.9019 33.2635 32.7017 33.0768 32.3503C32.8079 31.8439 33.0004 31.215 33.5067 30.9461L40.6604 27.1466L33.5067 23.3471C33.0004 23.0782 32.8079 22.4493 33.0768 21.9429C33.346 21.4362 33.9745 21.244 34.4812 21.5128L43.3616 26.2294C43.7008 26.4097 43.9128 26.7624 43.9128 27.1466C43.9128 27.5308 43.7008 27.8835 43.3616 28.0638L34.4812 32.7804C34.3259 32.8629 34.1591 32.9019 33.9948 32.9019Z" fill="#00155A"/>
<path d="M24.7839 35.5225C24.6597 35.5225 24.5336 35.5001 24.4108 35.453C23.8756 35.2467 23.609 34.6459 23.815 34.1107L29.4662 19.4365C29.6723 18.9011 30.2733 18.6346 30.8085 18.8406C31.3438 19.0469 31.6104 19.6477 31.4044 20.1829L25.7532 34.8571C25.5943 35.2696 25.2009 35.5225 24.7839 35.5225Z" fill="#00155A"/>
<path d="M8.52393 18.5921L44.3538 39.2785C45.1723 38.1196 45.8745 36.873 46.4448 35.5558L10.7074 14.9229C9.85979 16.0616 9.12685 17.2905 8.52393 18.5921Z" fill="url(#paint1_linear_324_32)"/>
<defs>
<linearGradient id="paint0_linear_324_32" x1="27.3781" y1="-15.3291" x2="28.1606" y2="57.2092" gradientUnits="userSpaceOnUse">
<stop stop-color="white"/>
<stop offset="0.979167" stop-color="#19B85E"/>
</linearGradient>
<linearGradient id="paint1_linear_324_32" x1="27.4844" y1="6.26581" x2="27.7299" y2="41.712" gradientUnits="userSpaceOnUse">
<stop stop-color="white"/>
<stop offset="0.979167" stop-color="#19B85E"/>
</linearGradient>
</defs>
</svg>
