<svg width="47" height="47" viewBox="0 0 47 47" fill="none" xmlns="http://www.w3.org/2000/svg">
<path d="M22.8237 44.6482C22.7534 44.6482 22.682 44.6431 22.6103 44.6327C22.0582 44.5497 21.6025 44.1553 21.442 43.6198L12.7883 14.7741C12.6361 14.2665 12.775 13.7155 13.1503 13.3401C13.5264 12.9648 14.0806 12.8252 14.5843 12.9781L43.43 21.6318C43.9651 21.7923 44.3596 22.2481 44.4428 22.8001C44.5254 23.3528 44.2809 23.9038 43.8162 24.2135L36.6267 29.0066L44.0361 36.4167C44.5997 36.9803 44.5997 37.8929 44.0361 38.4561L38.267 44.2252C37.7034 44.7888 36.7908 44.7888 36.2276 44.2252L28.8175 36.8158L24.0244 44.0053C23.754 44.4109 23.3011 44.6482 22.8237 44.6482ZM28.5929 33.1099C28.974 33.1099 29.3407 33.2606 29.6126 33.5325L37.2466 41.1665L40.976 37.4368L33.3423 29.8027C33.0365 29.497 32.8844 29.0711 32.9269 28.6406C32.9691 28.2112 33.2024 27.8221 33.5622 27.5827L39.6653 23.5144L16.3219 16.5114L23.3249 39.8547L27.3932 33.7517C27.6327 33.3919 28.0214 33.1586 28.4512 33.1164C28.4984 33.1121 28.5456 33.1099 28.5929 33.1099ZM9.42057 9.61076C9.98414 9.04718 9.98414 8.13458 9.42057 7.57137L6.536 4.6868C5.97243 4.12322 5.05982 4.12322 4.49661 4.6868C3.9334 5.25037 3.93304 6.16298 4.49661 6.72619L7.38118 9.61076C7.66279 9.89236 8.03165 10.0333 8.40088 10.0333C8.7701 10.0333 9.13896 9.89236 9.42057 9.61076ZM8.40088 14.3602C8.40088 13.5637 7.75509 12.9179 6.95859 12.9179H2.63174C1.83524 12.9179 1.18945 13.5637 1.18945 14.3602C1.18945 15.1567 1.83524 15.8025 2.63174 15.8025H6.95859C7.75509 15.8025 8.40088 15.1567 8.40088 14.3602ZM6.536 24.0336L9.42057 21.149C9.98414 20.5855 9.98414 19.6729 9.42057 19.1096C8.857 18.5464 7.94439 18.5461 7.38118 19.1096L4.49661 21.9942C3.93304 22.5578 3.93304 23.4704 4.49661 24.0336C4.77822 24.3152 5.14708 24.4562 5.51631 24.4562C5.88553 24.4562 6.2544 24.3152 6.536 24.0336ZM20.9588 9.61076L23.8434 6.72619C24.407 6.16261 24.407 5.25001 23.8434 4.6868C23.2798 4.12359 22.3672 4.12322 21.804 4.6868L18.9195 7.57137C18.3559 8.13494 18.3559 9.04754 18.9195 9.61076C19.2011 9.89236 19.5699 10.0333 19.9392 10.0333C20.3084 10.0333 20.6772 9.89236 20.9588 9.61076ZM15.6123 7.14878V2.82192C15.6123 2.02542 14.9665 1.37964 14.17 1.37964C13.3735 1.37964 12.7277 2.02542 12.7277 2.82192V7.14878C12.7277 7.94528 13.3735 8.59106 14.17 8.59106C14.9665 8.59106 15.6123 7.94528 15.6123 7.14878Z" fill="url(#paint0_linear_324_53)"/>
<defs>
<linearGradient id="paint0_linear_324_53" x1="22.8241" y1="-13.9999" x2="23.5033" y2="48.9671" gradientUnits="userSpaceOnUse">
<stop stop-color="white"/>
<stop offset="0.979167" stop-color="#19B85E"/>
</linearGradient>
</defs>
</svg>
