<svg width="25" height="24" viewBox="0 0 25 24" fill="none" xmlns="http://www.w3.org/2000/svg">
<g clip-path="url(#clip0_324_20)">
<path d="M12.04 0C5.39614 0 0.0400391 5.3561 0.0400391 12C0.0400391 18.6439 5.39614 24 12.04 24C18.6839 24 24.04 18.6439 24.04 12C24.04 5.3561 18.6839 0 12.04 0ZM17.3669 12.5561L9.37663 17.239C9.28882 17.2976 9.14248 17.3268 9.05467 17.3268C8.96687 17.3268 8.82053 17.2976 8.73272 17.239C8.52784 17.0927 8.41077 16.9171 8.41077 16.6829V7.34634H8.3815C8.3815 7.1122 8.52784 6.87805 8.70345 6.79024C8.87906 6.70244 9.17175 6.6439 9.37663 6.79024L17.3669 11.4439C17.5717 11.5902 17.6888 11.7659 17.6888 12C17.6888 12.2341 17.5425 12.4683 17.3669 12.5561Z" fill="#19B85E"/>
</g>
<defs>
<clipPath id="clip0_324_20">
<rect width="24" height="24" fill="white" transform="translate(0.0400391)"/>
</clipPath>
</defs>
</svg>
