<svg width="48" height="48" viewBox="0 0 48 48" fill="none" xmlns="http://www.w3.org/2000/svg">
<path d="M45.0865 0.297852H2.70881C2.08441 0.297852 1.48558 0.545895 1.04406 0.987415C0.602536 1.42894 0.354492 2.02777 0.354492 2.65217V45.0299C0.354492 45.6543 0.602536 46.2531 1.04406 46.6946C1.48558 47.1362 2.08441 47.3842 2.70881 47.3842H45.0865C45.7109 47.3842 46.3097 47.1362 46.7513 46.6946C47.1928 46.2531 47.4408 45.6543 47.4408 45.0299V2.65217C47.4408 2.02777 47.1928 1.42894 46.7513 0.987415C46.3097 0.545895 45.7109 0.297852 45.0865 0.297852ZM1.92404 2.65217C1.92404 2.44403 2.00672 2.24442 2.15389 2.09725C2.30107 1.95008 2.50067 1.8674 2.70881 1.8674H45.0865C45.2947 1.8674 45.4943 1.95008 45.6414 2.09725C45.7886 2.24442 45.8713 2.44403 45.8713 2.65217V9.71512H1.92404V2.65217ZM45.8713 45.0299C45.8713 45.238 45.7886 45.4376 45.6414 45.5848C45.4943 45.732 45.2947 45.8147 45.0865 45.8147H2.70881C2.50067 45.8147 2.30107 45.732 2.15389 45.5848C2.00672 45.4376 1.92404 45.238 1.92404 45.0299V11.2847H45.8713V45.0299Z" fill="url(#paint0_linear_324_69)"/>
<path d="M41.9474 8.14558H23.1129C22.4885 8.14558 21.8897 7.89753 21.4481 7.45601C21.0066 7.01449 20.7586 6.41566 20.7586 5.79126C20.7586 5.16685 21.0066 4.56803 21.4481 4.1265C21.8897 3.68498 22.4885 3.43694 23.1129 3.43694H41.9474C42.5718 3.43694 43.1707 3.68498 43.6122 4.1265C44.0537 4.56803 44.3017 5.16685 44.3017 5.79126C44.3017 6.41566 44.0537 7.01449 43.6122 7.45601C43.1707 7.89753 42.5718 8.14558 41.9474 8.14558ZM23.1129 5.00649C22.9048 5.00649 22.7051 5.08917 22.558 5.23634C22.4108 5.38351 22.3281 5.58312 22.3281 5.79126C22.3281 5.99939 22.4108 6.199 22.558 6.34618C22.7051 6.49335 22.9048 6.57603 23.1129 6.57603H41.9474C42.1556 6.57603 42.3552 6.49335 42.5023 6.34618C42.6495 6.199 42.7322 5.99939 42.7322 5.79126C42.7322 5.58312 42.6495 5.38351 42.5023 5.23634C42.3552 5.08917 42.1556 5.00649 41.9474 5.00649H23.1129Z" fill="url(#paint1_linear_324_69)"/>
<path d="M5.8479 8.14558C5.38226 8.14558 4.92708 8.0075 4.53991 7.7488C4.15275 7.49011 3.85099 7.12241 3.67279 6.69222C3.4946 6.26202 3.44798 5.78865 3.53882 5.33195C3.62966 4.87526 3.85389 4.45576 4.18315 4.12651C4.5124 3.79725 4.9319 3.57302 5.3886 3.48218C5.84529 3.39134 6.31866 3.43796 6.74886 3.61615C7.17905 3.79435 7.54675 4.0961 7.80544 4.48327C8.06414 4.87044 8.20222 5.32562 8.20222 5.79126C8.20222 6.41566 7.95417 7.01449 7.51265 7.45601C7.07113 7.89753 6.4723 8.14558 5.8479 8.14558ZM5.8479 5.00649C5.69269 5.00649 5.54096 5.05251 5.4119 5.13874C5.28285 5.22498 5.18226 5.34754 5.12286 5.49094C5.06347 5.63434 5.04793 5.79213 5.07821 5.94436C5.10849 6.09659 5.18323 6.23642 5.29298 6.34618C5.40273 6.45593 5.54257 6.53067 5.6948 6.56095C5.84703 6.59123 6.00482 6.57569 6.14822 6.51629C6.29162 6.4569 6.41418 6.35631 6.50041 6.22726C6.58665 6.0982 6.63267 5.94647 6.63267 5.79126C6.63267 5.58312 6.54999 5.38351 6.40282 5.23634C6.25564 5.08917 6.05603 5.00649 5.8479 5.00649Z" fill="url(#paint2_linear_324_69)"/>
<path d="M11.3413 8.14558C10.8757 8.14558 10.4205 8.0075 10.0333 7.7488C9.64615 7.49011 9.34439 7.12241 9.1662 6.69222C8.98801 6.26202 8.94138 5.78865 9.03223 5.33195C9.12307 4.87526 9.3473 4.45576 9.67655 4.12651C10.0058 3.79725 10.4253 3.57302 10.882 3.48218C11.3387 3.39134 11.8121 3.43796 12.2423 3.61615C12.6725 3.79435 13.0402 4.0961 13.2989 4.48327C13.5575 4.87044 13.6956 5.32562 13.6956 5.79126C13.6956 6.41566 13.4476 7.01449 13.0061 7.45601C12.5645 7.89753 11.9657 8.14558 11.3413 8.14558ZM11.3413 5.00649C11.1861 5.00649 11.0344 5.05251 10.9053 5.13874C10.7763 5.22498 10.6757 5.34754 10.6163 5.49094C10.5569 5.63434 10.5413 5.79213 10.5716 5.94436C10.6019 6.09659 10.6766 6.23642 10.7864 6.34618C10.8961 6.45593 11.036 6.53067 11.1882 6.56095C11.3404 6.59123 11.4982 6.57569 11.6416 6.51629C11.785 6.4569 11.9076 6.35631 11.9938 6.22726C12.0801 6.0982 12.1261 5.94647 12.1261 5.79126C12.1261 5.58312 12.0434 5.38351 11.8962 5.23634C11.7491 5.08917 11.5494 5.00649 11.3413 5.00649Z" fill="url(#paint3_linear_324_69)"/>
<path d="M16.8347 8.14558C16.3691 8.14558 15.9139 8.0075 15.5267 7.7488C15.1396 7.49011 14.8378 7.12241 14.6596 6.69222C14.4814 6.26202 14.4348 5.78865 14.5256 5.33195C14.6165 4.87526 14.8407 4.45576 15.17 4.12651C15.4992 3.79725 15.9187 3.57302 16.3754 3.48218C16.8321 3.39134 17.3055 3.43796 17.7357 3.61615C18.1659 3.79435 18.5336 4.0961 18.7923 4.48327C19.051 4.87044 19.189 5.32562 19.189 5.79126C19.189 6.41566 18.941 7.01449 18.4995 7.45601C18.0579 7.89753 17.4591 8.14558 16.8347 8.14558ZM16.8347 5.00649C16.6795 5.00649 16.5278 5.05251 16.3987 5.13874C16.2697 5.22498 16.1691 5.34754 16.1097 5.49094C16.0503 5.63434 16.0347 5.79213 16.065 5.94436C16.0953 6.09659 16.17 6.23642 16.2798 6.34618C16.3895 6.45593 16.5294 6.53067 16.6816 6.56095C16.8338 6.59123 16.9916 6.57569 17.135 6.51629C17.2784 6.4569 17.401 6.35631 17.4872 6.22726C17.5735 6.0982 17.6195 5.94647 17.6195 5.79126C17.6195 5.58312 17.5368 5.38351 17.3896 5.23634C17.2425 5.08917 17.0428 5.00649 16.8347 5.00649Z" fill="url(#paint4_linear_324_69)"/>
<path d="M19.9738 25.4106H7.41744C7.20931 25.4106 7.0097 25.3279 6.86253 25.1807C6.71535 25.0335 6.63267 24.8339 6.63267 24.6258V15.2085C6.63267 15.0004 6.71535 14.8008 6.86253 14.6536C7.0097 14.5064 7.20931 14.4238 7.41744 14.4238H19.9738C20.1819 14.4238 20.3815 14.5064 20.5287 14.6536C20.6759 14.8008 20.7586 15.0004 20.7586 15.2085V24.6258C20.7586 24.8339 20.6759 25.0335 20.5287 25.1807C20.3815 25.3279 20.1819 25.4106 19.9738 25.4106ZM8.20222 23.841H19.189V15.9933H8.20222V23.841Z" fill="url(#paint5_linear_324_69)"/>
<path d="M40.3779 17.5628H24.6824C24.4743 17.5628 24.2747 17.4802 24.1275 17.333C23.9803 17.1858 23.8977 16.9862 23.8977 16.7781C23.8977 16.5699 23.9803 16.3703 24.1275 16.2232C24.2747 16.076 24.4743 15.9933 24.6824 15.9933H40.3779C40.586 15.9933 40.7856 16.076 40.9328 16.2232C41.08 16.3703 41.1627 16.5699 41.1627 16.7781C41.1627 16.9862 41.08 17.1858 40.9328 17.333C40.7856 17.4802 40.586 17.5628 40.3779 17.5628Z" fill="url(#paint6_linear_324_69)"/>
<path d="M40.3779 20.7019H24.6824C24.4743 20.7019 24.2747 20.6193 24.1275 20.4721C23.9803 20.3249 23.8977 20.1253 23.8977 19.9172C23.8977 19.709 23.9803 19.5094 24.1275 19.3622C24.2747 19.2151 24.4743 19.1324 24.6824 19.1324H40.3779C40.586 19.1324 40.7856 19.2151 40.9328 19.3622C41.08 19.5094 41.1627 19.709 41.1627 19.9172C41.1627 20.1253 41.08 20.3249 40.9328 20.4721C40.7856 20.6193 40.586 20.7019 40.3779 20.7019Z" fill="url(#paint7_linear_324_69)"/>
<path d="M40.3779 23.841H24.6824C24.4743 23.841 24.2747 23.7583 24.1275 23.6112C23.9803 23.464 23.8977 23.2644 23.8977 23.0563C23.8977 22.8481 23.9803 22.6485 24.1275 22.5013C24.2747 22.3542 24.4743 22.2715 24.6824 22.2715H40.3779C40.586 22.2715 40.7856 22.3542 40.9328 22.5013C41.08 22.6485 41.1627 22.8481 41.1627 23.0563C41.1627 23.2644 41.08 23.464 40.9328 23.6112C40.7856 23.7583 40.586 23.841 40.3779 23.841Z" fill="url(#paint8_linear_324_69)"/>
<path d="M40.3779 31.6887H32.5302C32.322 31.6887 32.1224 31.6061 31.9752 31.4589C31.8281 31.3117 31.7454 31.1121 31.7454 30.904V27.7649C31.7454 27.5568 31.8281 27.3571 31.9752 27.21C32.1224 27.0628 32.322 26.9801 32.5302 26.9801H40.3779C40.586 26.9801 40.7856 27.0628 40.9328 27.21C41.08 27.3571 41.1627 27.5568 41.1627 27.7649V30.904C41.1627 31.1121 41.08 31.3117 40.9328 31.4589C40.7856 31.6061 40.586 31.6887 40.3779 31.6887ZM33.3149 30.1192H39.5931V28.5497H33.3149V30.1192Z" fill="url(#paint9_linear_324_69)"/>
<path d="M15.2652 31.6887H7.41744C7.20931 31.6887 7.0097 31.6061 6.86253 31.4589C6.71535 31.3117 6.63267 31.1121 6.63267 30.904V27.7649C6.63267 27.5568 6.71535 27.3571 6.86253 27.21C7.0097 27.0628 7.20931 26.9801 7.41744 26.9801H15.2652C15.4733 26.9801 15.6729 27.0628 15.8201 27.21C15.9673 27.3571 16.0499 27.5568 16.0499 27.7649V30.904C16.0499 31.1121 15.9673 31.3117 15.8201 31.4589C15.6729 31.6061 15.4733 31.6887 15.2652 31.6887ZM8.20222 30.1192H14.4804V28.5497H8.20222V30.1192Z" fill="url(#paint10_linear_324_69)"/>
<path d="M27.8215 31.6887H19.9738C19.7657 31.6887 19.5661 31.6061 19.4189 31.4589C19.2717 31.3117 19.189 31.1121 19.189 30.904V27.7649C19.189 27.5568 19.2717 27.3571 19.4189 27.21C19.5661 27.0628 19.7657 26.9801 19.9738 26.9801H27.8215C28.0297 26.9801 28.2293 27.0628 28.3764 27.21C28.5236 27.3571 28.6063 27.5568 28.6063 27.7649V30.904C28.6063 31.1121 28.5236 31.3117 28.3764 31.4589C28.2293 31.6061 28.0297 31.6887 27.8215 31.6887ZM20.7586 30.1192H27.0368V28.5497H20.7586V30.1192Z" fill="url(#paint11_linear_324_69)"/>
<path d="M40.3779 42.6756H7.41744C7.20931 42.6756 7.0097 42.5929 6.86253 42.4457C6.71535 42.2985 6.63267 42.0989 6.63267 41.8908V34.0431C6.63267 33.8349 6.71535 33.6353 6.86253 33.4881C7.0097 33.341 7.20931 33.2583 7.41744 33.2583H40.3779C40.586 33.2583 40.7856 33.341 40.9328 33.4881C41.08 33.6353 41.1627 33.8349 41.1627 34.0431V41.8908C41.1627 42.0989 41.08 42.2985 40.9328 42.4457C40.7856 42.5929 40.586 42.6756 40.3779 42.6756ZM8.20222 41.106H39.5931V34.8278H8.20222V41.106Z" fill="url(#paint12_linear_324_69)"/>
<defs>
<linearGradient id="paint0_linear_324_69" x1="23.8977" y1="-16.4387" x2="24.6368" y2="52.0842" gradientUnits="userSpaceOnUse">
<stop stop-color="white"/>
<stop offset="0.979167" stop-color="#19B85E"/>
</linearGradient>
<linearGradient id="paint1_linear_324_69" x1="23.8977" y1="-16.4387" x2="24.6368" y2="52.0842" gradientUnits="userSpaceOnUse">
<stop stop-color="white"/>
<stop offset="0.979167" stop-color="#19B85E"/>
</linearGradient>
<linearGradient id="paint2_linear_324_69" x1="23.8977" y1="-16.4387" x2="24.6368" y2="52.0842" gradientUnits="userSpaceOnUse">
<stop stop-color="white"/>
<stop offset="0.979167" stop-color="#19B85E"/>
</linearGradient>
<linearGradient id="paint3_linear_324_69" x1="23.8977" y1="-16.4387" x2="24.6368" y2="52.0842" gradientUnits="userSpaceOnUse">
<stop stop-color="white"/>
<stop offset="0.979167" stop-color="#19B85E"/>
</linearGradient>
<linearGradient id="paint4_linear_324_69" x1="23.8977" y1="-16.4387" x2="24.6368" y2="52.0842" gradientUnits="userSpaceOnUse">
<stop stop-color="white"/>
<stop offset="0.979167" stop-color="#19B85E"/>
</linearGradient>
<linearGradient id="paint5_linear_324_69" x1="23.8977" y1="-16.4387" x2="24.6368" y2="52.0842" gradientUnits="userSpaceOnUse">
<stop stop-color="white"/>
<stop offset="0.979167" stop-color="#19B85E"/>
</linearGradient>
<linearGradient id="paint6_linear_324_69" x1="23.8977" y1="-16.4387" x2="24.6368" y2="52.0842" gradientUnits="userSpaceOnUse">
<stop stop-color="white"/>
<stop offset="0.979167" stop-color="#19B85E"/>
</linearGradient>
<linearGradient id="paint7_linear_324_69" x1="23.8977" y1="-16.4387" x2="24.6368" y2="52.0842" gradientUnits="userSpaceOnUse">
<stop stop-color="white"/>
<stop offset="0.979167" stop-color="#19B85E"/>
</linearGradient>
<linearGradient id="paint8_linear_324_69" x1="23.8977" y1="-16.4387" x2="24.6368" y2="52.0842" gradientUnits="userSpaceOnUse">
<stop stop-color="white"/>
<stop offset="0.979167" stop-color="#19B85E"/>
</linearGradient>
<linearGradient id="paint9_linear_324_69" x1="23.8977" y1="-16.4387" x2="24.6368" y2="52.0842" gradientUnits="userSpaceOnUse">
<stop stop-color="white"/>
<stop offset="0.979167" stop-color="#19B85E"/>
</linearGradient>
<linearGradient id="paint10_linear_324_69" x1="23.8977" y1="-16.4387" x2="24.6368" y2="52.0842" gradientUnits="userSpaceOnUse">
<stop stop-color="white"/>
<stop offset="0.979167" stop-color="#19B85E"/>
</linearGradient>
<linearGradient id="paint11_linear_324_69" x1="23.8977" y1="-16.4387" x2="24.6368" y2="52.0842" gradientUnits="userSpaceOnUse">
<stop stop-color="white"/>
<stop offset="0.979167" stop-color="#19B85E"/>
</linearGradient>
<linearGradient id="paint12_linear_324_69" x1="23.8977" y1="-16.4387" x2="24.6368" y2="52.0842" gradientUnits="userSpaceOnUse">
<stop stop-color="white"/>
<stop offset="0.979167" stop-color="#19B85E"/>
</linearGradient>
</defs>
</svg>
