<svg width="47" height="74" viewBox="0 0 47 74" fill="none" xmlns="http://www.w3.org/2000/svg">
<path d="M33.2124 32.3386C33.2124 32.1068 33.1203 31.8845 32.9564 31.7206C32.7925 31.5567 32.5702 31.4646 32.3384 31.4646H30.8817V21.5591H32.3384C32.5112 21.559 32.68 21.5076 32.8236 21.4116C32.9672 21.3155 33.0791 21.1791 33.1452 21.0195C33.2113 20.8599 33.2286 20.6842 33.1949 20.5148C33.1612 20.3454 33.0781 20.1897 32.956 20.0675L23.6332 10.7446C23.5521 10.6634 23.4559 10.599 23.3499 10.5551C23.2439 10.5112 23.1303 10.4885 23.0156 10.4885C22.9008 10.4885 22.7872 10.5112 22.6813 10.5551C22.5753 10.599 22.479 10.6634 22.3979 10.7446L13.0751 20.0675C12.953 20.1897 12.8699 20.3454 12.8362 20.5148C12.8026 20.6842 12.8199 20.8599 12.886 21.0195C12.9521 21.1791 13.064 21.3155 13.2076 21.4116C13.3512 21.5076 13.52 21.559 13.6927 21.5591H15.1494V31.4646H13.6927C13.4609 31.4646 13.2386 31.5567 13.0747 31.7206C12.9108 31.8845 12.8187 32.1068 12.8187 32.3386C12.8187 32.5705 12.9108 32.7928 13.0747 32.9567C13.2386 33.1206 13.4609 33.2127 13.6927 33.2127H32.3384C32.5702 33.2127 32.7925 33.1206 32.9564 32.9567C33.1203 32.7928 33.2124 32.5705 33.2124 32.3386ZM24.4723 31.4646H21.5589V26.2205H24.4723V31.4646ZM29.1337 31.4646H26.2203V25.3465C26.2203 25.1147 26.1282 24.8924 25.9643 24.7285C25.8004 24.5646 25.5781 24.4725 25.3463 24.4725H20.6849C20.4531 24.4725 20.2308 24.5646 20.0668 24.7285C19.9029 24.8924 19.8109 25.1147 19.8109 25.3465V31.4646H16.8975V21.5591H29.1337V31.4646ZM15.8032 19.8111L23.0156 12.5987L30.228 19.8111H15.8032Z" fill="#F27C50"/>
<path d="M41.3703 23.0157C41.3703 19.3856 40.2938 15.837 38.277 12.8186C36.2602 9.80025 33.3937 7.44773 30.0399 6.05853C26.686 4.66933 22.9956 4.30586 19.4352 5.01406C15.8748 5.72227 12.6044 7.47035 10.0375 10.0372C7.47059 12.6041 5.72251 15.8746 5.0143 19.435C4.3061 22.9954 4.66957 26.6858 6.05877 30.0396C7.44797 33.3934 9.80049 36.26 12.8188 38.2768C15.8372 40.2936 19.3858 41.3701 23.016 41.3701C27.8822 41.3648 32.5477 39.4294 35.9886 35.9884C39.4296 32.5474 41.3651 27.882 41.3703 23.0157ZM6.40966 23.0157C6.40966 19.7313 7.3836 16.5206 9.20833 13.7898C11.0331 11.0589 13.6266 8.93039 16.661 7.6735C19.6954 6.41661 23.0344 6.08775 26.2557 6.72851C29.477 7.36926 32.436 8.95086 34.7584 11.2733C37.0808 13.5957 38.6624 16.5547 39.3032 19.776C39.9439 22.9973 39.6151 26.3363 38.3582 29.3707C37.1013 32.4051 34.9728 34.9986 32.2419 36.8234C29.511 38.6481 26.3004 39.622 23.016 39.622C18.6133 39.6168 14.3925 37.8655 11.2793 34.7524C8.16618 31.6392 6.4149 27.4184 6.40966 23.0157Z" fill="#F27C50"/>
<path d="M41.3433 54.2682C41.2962 54.0792 41.1872 53.9113 41.0337 53.7913C40.8801 53.6714 40.6909 53.6063 40.4961 53.6063H32.5845C38.8249 45.1738 46.0315 33.2301 46.0315 23.0157C46.0315 16.9116 43.6066 11.0574 39.2903 6.74116C34.974 2.42487 29.1199 0 23.0157 0C16.9116 0 11.0574 2.42487 6.74116 6.74116C2.42487 11.0574 9.0959e-08 16.9116 0 23.0157C0 33.2301 7.20655 45.1738 13.447 53.6063H5.53543C5.3406 53.6063 5.15135 53.6714 4.99782 53.7913C4.84429 53.9113 4.7353 54.0792 4.68822 54.2682L0.0268029 72.9139C-0.00565581 73.0427 -0.00827979 73.1773 0.01913 73.3072C0.0465398 73.4372 0.10326 73.5592 0.184969 73.664C0.266679 73.7688 0.371222 73.8535 0.490631 73.9117C0.610041 73.9699 0.741166 74.0001 0.874016 74H45.1575C45.2903 74.0001 45.4215 73.9699 45.5409 73.9117C45.6603 73.8535 45.7648 73.7688 45.8465 73.664C45.9282 73.5592 45.985 73.4372 46.0124 73.3072C46.0398 73.1773 46.0372 73.0427 46.0047 72.9139L41.3433 54.2682ZM39.8143 55.3543L41.2442 61.0751L38.3005 64.6061L29.2271 57.9519C29.8785 57.1455 30.5637 56.275 31.27 55.3543H39.8143ZM1.74803 23.0157C1.74803 17.3752 3.98873 11.9657 7.9772 7.9772C11.9657 3.98873 17.3752 1.74803 23.0157 1.74803C28.6563 1.74803 34.0658 3.98873 38.0543 7.9772C42.0428 11.9657 44.2835 17.3752 44.2835 23.0157C44.2835 38.297 26.6144 58.5474 23.0157 62.5131C19.4171 58.5486 1.74803 38.304 1.74803 23.0157ZM6.21716 55.3543H14.7615C16.2171 57.2527 17.5782 58.9203 18.7412 60.2966L16.5935 64.1143L5.48299 58.2875L6.21716 55.3543ZM1.99276 72.252L5.04598 60.0391L15.7358 65.6386L12.016 72.252H1.99276ZM14.0215 72.252L19.952 61.7055C21.305 63.2589 22.2093 64.2192 22.3818 64.401C22.4635 64.4869 22.5619 64.5553 22.6709 64.602C22.7798 64.6487 22.8972 64.6728 23.0157 64.6728C23.1343 64.6728 23.2517 64.6487 23.3606 64.602C23.4696 64.5553 23.568 64.4869 23.6497 64.401C23.8979 64.1388 25.6739 62.2521 28.1188 59.3014L37.1795 65.9439L31.9295 72.252H14.0215ZM34.2043 72.252L41.7686 63.175L44.0387 72.252H34.2043Z" fill="#F27C50"/>
</svg>
