<svg width="77" height="84" viewBox="0 0 77 84" fill="none" xmlns="http://www.w3.org/2000/svg">
<g filter="url(#filter0_d_184_2633)">
<path d="M71.7976 25.4307C70.7856 23.9808 69.2508 23.1821 67.477 23.1821H23.3355L19.682 13.2129C19.4976 12.7077 19.0164 12.3725 18.4775 12.3725H5.28144C4.57256 12.3725 4 12.9467 4 13.6539C4 14.3612 4.57416 14.9354 5.28144 14.9354H17.5842L21.2281 24.879C21.2313 24.887 21.2329 24.8966 21.2361 24.9046L31.7731 53.6576C28.7194 53.8998 26.3089 56.4595 26.3089 59.5741C26.3089 62.8458 28.9728 65.5065 32.2462 65.5065H60.4186C61.1275 65.5065 61.7001 64.9324 61.7001 64.2251C61.7001 63.5178 61.1259 62.9437 60.4186 62.9437H32.2446C30.3842 62.9437 28.8718 61.4329 28.8718 59.5757C28.8718 57.7153 30.3842 56.2029 32.2446 56.2029H33.595H33.5998H33.6062H59.2398C61.4771 56.2029 63.421 54.8461 64.1892 52.7483L72.4279 30.2613C73.0342 28.5998 72.8096 26.8853 71.7976 25.4307ZM70.0206 29.3776L61.7835 51.863C61.3825 52.9568 60.409 53.6368 59.2414 53.6368H34.4947L24.2753 25.745H67.4786C68.4024 25.745 69.169 26.1428 69.695 26.895C70.2227 27.6552 70.335 28.5148 70.0206 29.3776ZM51.726 67.0077C49.2465 67.0077 47.229 69.0253 47.229 71.5048C47.229 73.9843 49.2465 76.0002 51.726 76.0002C54.2055 76.0002 56.2231 73.9827 56.2231 71.5032C56.2231 69.0237 54.2055 67.0077 51.726 67.0077ZM51.726 73.4358C50.6611 73.4358 49.7934 72.5697 49.7934 71.5032C49.7934 70.4366 50.6595 69.5706 51.726 69.5706C52.7925 69.5706 53.6586 70.4366 53.6586 71.5032C53.6586 72.5697 52.7909 73.4358 51.726 73.4358ZM36.2862 67.0077C33.8051 67.0077 31.7859 69.0253 31.7859 71.5048C31.7859 73.9843 33.8051 76.0002 36.2862 76.0002C38.7657 76.0002 40.7833 73.9827 40.7833 71.5032C40.7833 69.0237 38.7657 67.0077 36.2862 67.0077ZM36.2862 73.4358C35.2181 73.4358 34.3488 72.5697 34.3488 71.5032C34.3488 70.4366 35.2181 69.5706 36.2862 69.5706C37.3511 69.5706 38.2188 70.4366 38.2188 71.5032C38.2188 72.5697 37.3527 73.4358 36.2862 73.4358Z" fill="#F17B50"/>
<path d="M45.4651 16.2771C45.9655 16.7774 46.7771 16.7774 47.2774 16.2771L54.3246 9.23475C54.5651 8.99418 54.6999 8.6686 54.6999 8.3286C54.6999 7.98859 54.5651 7.66302 54.3246 7.42244L47.2774 0.375329C46.7771 -0.125058 45.9655 -0.125058 45.4651 0.375329C44.9648 0.875717 44.9648 1.68725 45.4651 2.18763L50.3231 7.04555L34.4197 7.04555C33.7109 7.04555 33.1383 7.62292 33.1383 8.3302C33.1383 9.03748 33.7109 9.61164 34.4197 9.61164L50.3215 9.61164L45.4651 14.4647C44.9648 14.9651 44.9648 15.7767 45.4651 16.2771Z" fill="#F17B50"/>
<g clip-path="url(#clip0_184_2633)">
<path d="M43.6776 37.7162C40.7974 37.7162 38.4541 35.3731 38.4541 32.4929C38.4541 29.6127 40.7974 27.2694 43.6776 27.2694C46.5578 27.2694 48.9011 29.6127 48.9011 32.4929C48.9011 35.3731 46.5578 37.7162 43.6776 37.7162ZM43.6776 28.8364C41.6614 28.8364 40.0211 30.4765 40.0211 32.4929C40.0211 34.5091 41.6614 36.1492 43.6776 36.1492C45.6937 36.1492 47.334 34.5091 47.334 32.4929C47.334 30.4765 45.6937 28.8364 43.6776 28.8364Z" fill="#F17B50"/>
<path d="M57.5199 51.2972H51.7741C50.766 51.2972 49.9459 50.4771 49.9459 49.4688V45.8126C49.9459 44.8043 50.766 43.9843 51.7741 43.9843H57.5199C58.528 43.9843 59.3481 44.8043 59.3481 45.8126V49.4688C59.3481 50.4771 58.528 51.2972 57.5199 51.2972ZM51.7741 45.5513C51.63 45.5513 51.5129 45.6683 51.5129 45.8126V49.4688C51.5129 49.6131 51.63 49.7301 51.7741 49.7301H57.5199C57.664 49.7301 57.781 49.6131 57.781 49.4688V45.8126C57.781 45.6683 57.664 45.5513 57.5199 45.5513H51.7741Z" fill="#F17B50"/>
<path d="M56.4747 45.5513H52.8184C52.3859 45.5513 52.0349 45.2003 52.0349 44.7678V42.4172C52.0349 40.9778 53.2069 39.8056 54.6466 39.8056C56.0862 39.8056 57.2582 40.9778 57.2582 42.4172V44.7678C57.2582 45.2003 56.9072 45.5513 56.4747 45.5513ZM53.6019 43.9843H55.6912V42.4172C55.6912 41.8417 55.2221 41.3726 54.6466 41.3726C54.071 41.3726 53.6019 41.8417 53.6019 42.4172V43.9843Z" fill="#F17B50"/>
<path d="M47.3339 49.2077H35.0588C34.6263 49.2077 34.2753 48.8567 34.2753 48.4242V44.7678C34.2753 42.0318 36.5015 39.8056 39.2374 39.8056H48.3785C49.2519 39.8056 50.1115 40.0365 50.8639 40.4742C51.2378 40.6915 51.3641 41.171 51.147 41.545C50.9297 41.9201 50.4501 42.0454 50.075 41.8281C49.5622 41.5304 48.9749 41.3726 48.3785 41.3726H39.2374C37.3655 41.3726 35.8423 42.8958 35.8423 44.7678V47.6407H47.3339C47.7664 47.6407 48.1174 47.9917 48.1174 48.4242C48.1174 48.8567 47.7664 49.2077 47.3339 49.2077Z" fill="#F17B50"/>
</g>
</g>
<defs>
<filter id="filter0_d_184_2633" x="0" y="3.05176e-05" width="76.7618" height="84.0002" filterUnits="userSpaceOnUse" color-interpolation-filters="sRGB">
<feFlood flood-opacity="0" result="BackgroundImageFix"/>
<feColorMatrix in="SourceAlpha" type="matrix" values="0 0 0 0 0 0 0 0 0 0 0 0 0 0 0 0 0 0 127 0" result="hardAlpha"/>
<feOffset dy="4"/>
<feGaussianBlur stdDeviation="2"/>
<feComposite in2="hardAlpha" operator="out"/>
<feColorMatrix type="matrix" values="0 0 0 0 0 0 0 0 0 0 0 0 0 0 0 0 0 0 0.25 0"/>
<feBlend mode="normal" in2="BackgroundImageFix" result="effect1_dropShadow_184_2633"/>
<feBlend mode="normal" in="SourceGraphic" in2="effect1_dropShadow_184_2633" result="shape"/>
</filter>
<clipPath id="clip0_184_2633">
<rect width="25.0724" height="25.0724" fill="white" transform="translate(34.2753 26.7307)"/>
</clipPath>
</defs>
</svg>
