<svg width="68" height="64" viewBox="0 0 68 64" fill="none" xmlns="http://www.w3.org/2000/svg">
<path d="M11.8543 21.3104H41.0747C41.3872 21.3044 41.685 21.176 41.9039 20.9529C42.1228 20.7297 42.2455 20.4296 42.2454 20.117C42.2454 19.8044 42.1228 19.5043 41.9038 19.2811C41.6849 19.058 41.3871 18.9297 41.0746 18.9237H11.8543C11.5417 18.9297 11.244 19.058 11.0251 19.2812C10.8061 19.5043 10.6835 19.8044 10.6835 20.117C10.6835 20.4297 10.8061 20.7298 11.0251 20.9529C11.244 21.1761 11.5417 21.3044 11.8543 21.3104Z" fill="#F87F52"/>
<path d="M11.8533 30.4007H29.84C30.1524 30.3945 30.4499 30.266 30.6686 30.0429C30.8874 29.8198 31.0099 29.5198 31.0099 29.2074C31.0099 28.8949 30.8873 28.595 30.6686 28.3718C30.4498 28.1487 30.1523 28.0203 29.84 28.0141H11.8533C11.541 28.0203 11.2435 28.1488 11.0247 28.3719C10.806 28.595 10.6835 28.895 10.6835 29.2074C10.6835 29.5199 10.806 29.8198 11.0247 30.043C11.2435 30.2661 11.541 30.3945 11.8533 30.4007Z" fill="#F87F52"/>
<path d="M30.2317 37.105H11.8546C11.5381 37.105 11.2346 37.2308 11.0108 37.4545C10.787 37.6783 10.6613 37.9819 10.6613 38.2983C10.6613 38.6148 10.787 38.9184 11.0108 39.1421C11.2346 39.3659 11.5381 39.4917 11.8546 39.4917H30.2317C30.5443 39.4859 30.8422 39.3576 31.0613 39.1344C31.2804 38.9113 31.4031 38.6111 31.4031 38.2983C31.4031 37.9856 31.2804 37.6854 31.0613 37.4622C30.8422 37.2391 30.5443 37.1108 30.2317 37.105Z" fill="#F87F52"/>
<path d="M27.5025 46.1956H11.8534C11.5407 46.2014 11.2428 46.3296 11.0238 46.5528C10.8047 46.776 10.682 47.0762 10.682 47.3889C10.682 47.7016 10.8048 48.0018 11.0238 48.225C11.2429 48.4481 11.5408 48.5764 11.8535 48.5822H27.5025C27.8152 48.5764 28.1131 48.4481 28.3321 48.225C28.5512 48.0018 28.6739 47.7016 28.6739 47.3889C28.6739 47.0762 28.5512 46.7759 28.3321 46.5528C28.1131 46.3296 27.8152 46.2013 27.5025 46.1956Z" fill="#F87F52"/>
<path d="M67.2401 5.26491C67.1598 4.81283 66.9907 4.38116 66.7424 3.9949C66.4942 3.60864 66.1718 3.27547 65.7939 3.01469L62.3423 0.620532C61.5802 0.0940565 60.6405 -0.10896 59.7291 0.0559441C58.8176 0.220848 58.0087 0.740232 57.4794 1.50035L52.9055 8.09366C52.8452 6.85891 52.3131 5.69445 51.419 4.84071C50.5249 3.98697 49.3371 3.50914 48.1009 3.50587H4.82909C3.54868 3.50735 2.32115 4.0167 1.41582 4.92214C0.510496 5.82759 0.00131674 7.05519 0 8.33559V59.1703C0.00131674 60.4507 0.510496 61.6783 1.41582 62.5837C2.32115 63.4892 3.54868 63.9985 4.82909 64H48.1009C49.3813 63.9985 50.6088 63.4892 51.5141 62.5837C52.4195 61.6783 52.9286 60.4507 52.93 59.1703V27.6864C56.1181 23.0889 63.5585 12.3669 66.6714 7.87811C66.9342 7.50176 67.1198 7.07702 67.2174 6.62846C67.3151 6.17991 67.3227 5.71646 67.2401 5.26491ZM50.5433 59.1703C50.5427 59.8179 50.2852 60.4389 49.8273 60.8969C49.3694 61.355 48.7485 61.6126 48.1008 61.6134H4.82909C4.18142 61.6126 3.56051 61.355 3.1026 60.8969C2.64469 60.4389 2.38719 59.8179 2.38658 59.1703V8.33553C2.38719 7.68787 2.64469 7.0669 3.1026 6.60888C3.56051 6.15085 4.18142 5.89319 4.82909 5.89243H48.1009C48.7485 5.89319 49.3695 6.15085 49.8274 6.60887C50.2853 7.0669 50.5428 7.68787 50.5434 8.33553V11.4988L36.1144 32.2986C36.0557 32.4276 35.9957 32.5487 35.9396 32.6791L32.8422 44.6167C32.7857 44.8501 32.8005 45.0951 32.8847 45.32C32.9689 45.5449 33.1186 45.7394 33.3144 45.8783C33.5103 46.0173 33.7433 46.0943 33.9834 46.0995C34.2235 46.1046 34.4596 46.0376 34.6613 45.9072L44.9718 38.9996C45.0993 38.8927 45.2176 38.7753 45.3254 38.6486L50.5434 31.1268L50.5433 59.1703ZM37.8196 34.9344L42.208 37.9789L35.9408 42.1776L37.8196 34.9344ZM44.0258 36.3352L38.755 32.6785L53.7077 11.1234L58.9792 14.7803L44.0258 36.3352ZM64.7113 6.51705L60.3399 12.8188L55.0685 9.16187L59.4394 2.86084C59.6073 2.61987 59.8637 2.4552 60.1527 2.40289C60.4416 2.35058 60.7395 2.41489 60.9812 2.58174L64.4328 4.97534C64.6732 5.14361 64.8374 5.40007 64.8896 5.68884C64.9417 5.97761 64.8777 6.2753 64.7113 6.51705Z" fill="#F87F52"/>
</svg>
