<svg width="73" height="65" viewBox="0 0 73 65" fill="none" xmlns="http://www.w3.org/2000/svg">
<path d="M42.7256 18.1286C42.6593 17.9255 42.5344 17.7446 42.3654 17.6072C42.1964 17.4697 41.9903 17.3814 41.7712 17.3524L38.3375 16.9031L36.8138 14.0946C36.7051 13.9243 36.553 13.7837 36.3718 13.6861C36.1906 13.5886 35.9865 13.5373 35.7789 13.5373C35.5713 13.5373 35.3672 13.5886 35.186 13.6861C35.0049 13.7837 34.8527 13.9243 34.744 14.0946L33.2203 16.9031L29.7866 17.3524C29.5676 17.3815 29.3618 17.4699 29.193 17.6073C29.0241 17.7447 28.8993 17.9254 28.8331 18.1285C28.7668 18.3315 28.7618 18.5485 28.8187 18.7542C28.8755 18.9599 28.9919 19.1458 29.1543 19.2902L31.6044 21.4628L31.0303 24.5139C30.9913 24.7186 31.0121 24.9298 31.0904 25.1238C31.1687 25.3179 31.3015 25.4872 31.474 25.6128C31.6464 25.7384 31.8517 25.8154 32.0669 25.8351C32.2822 25.8549 32.4989 25.8167 32.6929 25.7248L35.7789 24.2409L38.8649 25.7248C39.0591 25.817 39.2761 25.8553 39.4916 25.8354C39.7072 25.8156 39.9127 25.7384 40.0853 25.6125C40.2583 25.4873 40.3917 25.3182 40.4706 25.1242C40.5495 24.9302 40.5708 24.7189 40.5321 24.5139L39.9581 21.4628L42.4082 19.2902C42.5699 19.1454 42.6855 18.9593 42.7417 18.7537C42.7978 18.5481 42.7923 18.3313 42.7256 18.1286ZM37.9047 20.2305C37.7603 20.3587 37.6519 20.5199 37.5895 20.6992C37.5271 20.8785 37.5127 21.07 37.5477 21.2561L37.8207 22.7097L36.3039 21.9807C36.1426 21.9035 35.9649 21.8633 35.7847 21.8633C35.6046 21.8633 35.4269 21.9035 35.2655 21.9807L33.7488 22.7097L34.0218 21.2561C34.0568 21.07 34.0424 20.8785 33.98 20.6992C33.9176 20.5199 33.8092 20.3587 33.6648 20.2305L32.5658 19.2543L34.1467 19.0442C34.3313 19.0199 34.5072 18.9533 34.6596 18.8502C34.8121 18.747 34.9366 18.6101 35.0229 18.4511L35.7789 17.0334L36.5466 18.4511C36.6329 18.6101 36.7574 18.747 36.9098 18.8502C37.0623 18.9533 37.2382 19.0199 37.4228 19.0442L39.0037 19.2543L37.9047 20.2305Z" fill="#F57D51"/>
<path d="M56.7255 27.1156C56.6592 26.9124 56.5342 26.7316 56.3653 26.5942C56.1963 26.4567 55.9902 26.3684 55.7711 26.3394L52.3374 25.89L50.8137 23.0816C50.705 22.9113 50.5528 22.7707 50.3717 22.6731C50.1905 22.5755 49.9864 22.5243 49.7788 22.5243C49.5712 22.5243 49.3671 22.5755 49.1859 22.6731C49.0047 22.7707 48.8526 22.9113 48.7439 23.0816L47.2202 25.89L43.7865 26.3394C43.5675 26.3685 43.3616 26.4569 43.1928 26.5943C43.024 26.7317 42.8992 26.9124 42.8329 27.1155C42.7667 27.3185 42.7617 27.5355 42.8186 27.7412C42.8754 27.9468 42.9918 28.1327 43.1541 28.2772L45.6043 30.4498L45.0302 33.5008C44.9911 33.7056 45.0119 33.9168 45.0903 34.1108C45.1686 34.3049 45.3014 34.4741 45.4738 34.5997C45.6463 34.7254 45.8516 34.8023 46.0668 34.8221C46.2821 34.8419 46.4988 34.8037 46.6928 34.7118L49.7788 33.2279L52.8648 34.7118C53.059 34.804 53.276 34.8423 53.4915 34.8224C53.7071 34.8026 53.9126 34.7254 54.0852 34.5995C54.2581 34.4743 54.3915 34.3052 54.4705 34.1112C54.5494 33.9172 54.5707 33.7058 54.532 33.5008L53.958 30.4498L56.4081 28.2772C56.5697 28.1323 56.6854 27.9463 56.7415 27.7407C56.7977 27.5351 56.7921 27.3183 56.7255 27.1156ZM51.9046 29.2174C51.7602 29.3457 51.6518 29.5069 51.5894 29.6862C51.527 29.8655 51.5126 30.057 51.5475 30.2431L51.8205 31.6967L50.3038 30.9676C50.1425 30.8905 49.9648 30.8503 49.7846 30.8503C49.6045 30.8503 49.4268 30.8905 49.2654 30.9676L47.7487 31.6967L48.0217 30.2431C48.0567 30.057 48.0423 29.8655 47.9798 29.6862C47.9174 29.5069 47.809 29.3457 47.6647 29.2174L46.5656 28.2412L48.1465 28.0312C48.3312 28.0069 48.5071 27.9403 48.6595 27.8371C48.812 27.7339 48.9365 27.5971 49.0228 27.438L49.7788 26.0204L50.5465 27.438C50.6327 27.5971 50.7573 27.7339 50.9097 27.8371C51.0622 27.9403 51.2381 28.0069 51.4227 28.0312L53.0036 28.2412L51.9046 29.2174Z" fill="#F57D51"/>
<path d="M17.4727 34.5995C17.6457 34.7247 17.8511 34.8014 18.0665 34.8213C18.2819 34.8411 18.4987 34.8032 18.6931 34.7118L21.7791 33.2279L24.8651 34.7118C25.0593 34.804 25.2763 34.8423 25.4919 34.8224C25.7074 34.8026 25.9129 34.7254 26.0855 34.5995C26.2585 34.4743 26.3919 34.3052 26.4708 34.1112C26.5497 33.9172 26.571 33.7058 26.5324 33.5008L25.9583 30.4498L28.4084 28.2772C28.5708 28.1327 28.6872 27.9468 28.744 27.7412C28.8009 27.5355 28.7959 27.3185 28.7296 27.1155C28.6634 26.9124 28.5386 26.7317 28.3697 26.5943C28.2009 26.4569 27.995 26.3685 27.7761 26.3394L24.3424 25.89L22.8187 23.0816C22.71 22.9113 22.5578 22.7707 22.3767 22.6731C22.1955 22.5755 21.9914 22.5243 21.7838 22.5243C21.5762 22.5243 21.3721 22.5755 21.1909 22.6731C21.0097 22.7707 20.8576 22.9113 20.7489 23.0816L19.2252 25.89L15.7915 26.3394C15.5725 26.3685 15.3666 26.4569 15.1978 26.5943C15.029 26.7317 14.9042 26.9124 14.838 27.1155C14.7717 27.3185 14.7667 27.5355 14.8236 27.7412C14.8804 27.9468 14.9968 28.1327 15.1591 28.2772L17.6093 30.4498L17.0352 33.5008C16.9955 33.705 17.0154 33.9158 17.0926 34.1097C17.1699 34.3037 17.3015 34.4732 17.4727 34.5995ZM20.1352 28.0312C20.3198 28.0069 20.4957 27.9403 20.6482 27.8371C20.8006 27.7339 20.9252 27.5971 21.0114 27.438L21.7791 26.0204L22.5468 27.438C22.6331 27.5971 22.7576 27.7339 22.9101 27.8371C23.0625 27.9403 23.2384 28.0069 23.423 28.0312L25.0039 28.2412L23.9049 29.2174C23.7605 29.3457 23.6521 29.5069 23.5897 29.6862C23.5273 29.8655 23.5129 30.057 23.5479 30.2431L23.8209 31.6967L22.3041 30.9676C22.1428 30.8905 21.9651 30.8503 21.785 30.8503C21.6048 30.8503 21.4271 30.8905 21.2658 30.9676L19.749 31.6967L20.022 30.2431C20.057 30.057 20.0426 29.8655 19.9802 29.6862C19.9178 29.5069 19.8094 29.3457 19.665 29.2174L18.566 28.2412L20.1352 28.0312Z" fill="#F57D51"/>
<path d="M67.6699 0H4.66689C3.42915 0 2.24211 0.473417 1.3669 1.3161C0.491689 2.15879 0 3.30172 0 4.49346V53.9215C0 55.1133 0.491689 56.2562 1.3669 57.0989C2.24211 57.9416 3.42915 58.415 4.66689 58.415H47.8356V56.1683H4.66689C4.04802 56.1683 3.4545 55.9316 3.0169 55.5102C2.57929 55.0889 2.33345 54.5174 2.33345 53.9215V11.2337H70.0034V53.9215C70.0034 54.5174 69.7575 55.0889 69.3199 55.5102C68.8823 55.9316 68.2888 56.1683 67.6699 56.1683H63.003V58.415H67.6699C68.9077 58.415 70.0947 57.9416 70.9699 57.0989C71.8451 56.2562 72.3368 55.1133 72.3368 53.9215V4.49346C72.3368 3.30172 71.8451 2.15879 70.9699 1.3161C70.0947 0.473417 68.9077 0 67.6699 0ZM2.33345 4.49346C2.33345 3.89759 2.57929 3.32613 3.0169 2.90478C3.4545 2.48344 4.04802 2.24673 4.66689 2.24673H23.3345V8.98692H2.33345V4.49346ZM25.6679 8.98692V2.24673H67.6699C68.2888 2.24673 68.8823 2.48344 69.3199 2.90478C69.7575 3.32613 70.0034 3.89759 70.0034 4.49346V8.98692H25.6679Z" fill="#F57D51"/>
<path d="M8.94421 4.49325H11.2777V6.73998H8.94421V4.49325Z" fill="#F57D51"/>
<path d="M4.2782 4.49325H6.61164V6.73998H4.2782V4.49325Z" fill="#F57D51"/>
<path d="M13.6118 4.49325H15.9453V6.73998H13.6118V4.49325Z" fill="#F57D51"/>
<path d="M18.2781 4.49325H20.6115V6.73998H18.2781V4.49325Z" fill="#F57D51"/>
<path d="M47.8221 37.4453H22.5726C17.8458 37.4453 14 41.1481 14 45.6993C14 50.2505 17.8458 53.9534 22.5726 53.9534H47.8221C52.549 53.9534 56.3948 50.2505 56.3948 45.6993C56.3948 41.1481 52.5489 37.4453 47.8221 37.4453ZM47.8221 52.6778H22.5726C18.5762 52.6778 15.3248 49.5473 15.3248 45.6993C15.3248 41.8514 18.5762 38.7209 22.5726 38.7209H47.8221C51.8186 38.7209 55.0699 41.8514 55.0699 45.6993C55.0699 49.5473 51.8186 52.6778 47.8221 52.6778Z" fill="#F57D51"/>
<path d="M23.4229 42.3632C21.5124 42.3632 19.9579 43.8596 19.9579 45.6992C19.9579 47.5388 21.5124 49.0355 23.4229 49.0355C25.3335 49.0355 26.888 47.5388 26.888 45.6992C26.888 43.8596 25.3336 42.3632 23.4229 42.3632ZM23.4229 47.7599C22.2427 47.7599 21.2827 46.8356 21.2827 45.6992C21.2827 44.5631 22.2427 43.6388 23.4229 43.6388C24.6032 43.6388 25.5632 44.5631 25.5632 45.6992C25.5632 46.8356 24.6032 47.7599 23.4229 47.7599Z" fill="#F57D51"/>
<path d="M32.741 44.3502C32.741 43.2546 31.8153 42.3632 30.6774 42.3632H28.7642C28.3984 42.3632 28.1018 42.6488 28.1018 43.001V48.3978C28.1018 48.75 28.3984 49.0356 28.7642 49.0356C29.13 49.0356 29.4266 48.75 29.4266 48.3978V46.3371H30.2679L31.486 48.6831C31.6513 49.0014 32.0515 49.124 32.3749 48.9684C32.7022 48.8108 32.8348 48.4278 32.6712 48.1126L31.6279 46.1033C32.286 45.7709 32.741 45.1141 32.741 44.3502ZM29.4266 43.6389H30.6775C31.0846 43.6389 31.4162 43.9581 31.4162 44.3502C31.4162 44.7424 31.0847 45.0616 30.6775 45.0616H29.4266V43.6389Z" fill="#F57D51"/>
<path d="M50.4374 44.3502C50.4374 43.2546 49.5117 42.3632 48.3734 42.3632H46.4603C46.0945 42.3632 45.7979 42.6488 45.7979 43.001V48.3978C45.7979 48.75 46.0945 49.0356 46.4603 49.0356C46.8261 49.0356 47.1227 48.75 47.1227 48.3978V46.3371H47.964L49.1823 48.6831C49.3476 49.0014 49.7478 49.124 50.0712 48.9684C50.3985 48.8108 50.5311 48.4278 50.3675 48.1126L49.324 46.1034C49.9824 45.7709 50.4374 45.1141 50.4374 44.3502ZM47.1227 43.6389H48.3734C48.7809 43.6389 49.1125 43.9581 49.1125 44.3502C49.1125 44.7424 48.781 45.0616 48.3734 45.0616H47.1227V43.6389Z" fill="#F57D51"/>
<path d="M35.9877 42.3632H34.9672C34.6014 42.3632 34.3048 42.6488 34.3048 43.001V48.3978C34.3048 48.75 34.6014 49.0356 34.9672 49.0356H35.9877C37.8983 49.0356 39.4528 47.5389 39.4528 45.6993C39.4528 43.8597 37.8983 42.3632 35.9877 42.3632ZM35.9877 47.7599H35.6296V43.6388H35.9877C37.168 43.6388 38.128 44.5631 38.128 45.6991C38.128 46.8356 37.168 47.7599 35.9877 47.7599Z" fill="#F57D51"/>
<path d="M43.9408 43.6388C44.3065 43.6388 44.6032 43.3532 44.6032 43.001C44.6032 42.6488 44.3065 42.3632 43.9408 42.3632H41.3124C40.9467 42.3632 40.65 42.6488 40.65 43.001V48.3978C40.65 48.75 40.9467 49.0356 41.3124 49.0356H43.9408C44.3065 49.0356 44.6032 48.75 44.6032 48.3978C44.6032 48.0456 44.3065 47.76 43.9408 47.76H41.9749V46.3371H43.9408C44.3065 46.3371 44.6032 46.0515 44.6032 45.6993C44.6032 45.3471 44.3065 45.0615 43.9408 45.0615H41.9749V43.6389H43.9408V43.6388Z" fill="#F57D51"/>
<path d="M60.0808 60.0188L60.7514 59.373C61.1175 59.0208 61.2366 58.5106 61.0625 58.0416C60.8885 57.5723 60.4603 57.25 59.945 57.2007L55.3793 56.7654C54.5529 56.6826 53.8476 57.3561 53.9293 58.159L54.375 62.5529C54.4833 63.6242 55.838 64.094 56.6311 63.3311L57.3 62.6871L59.3147 64.6273C59.8324 65.1251 60.6736 65.1236 61.1888 64.627L62.0909 63.7584C62.6077 63.2611 62.6077 62.4514 62.0909 61.954L60.0808 60.0188ZM60.251 63.7252L57.7683 61.3344C57.5101 61.0858 57.0907 61.0849 56.8316 61.3344L55.6934 62.4291L55.2484 58.0349L59.8183 58.4671C59.8183 58.4671 59.8173 58.4684 59.8147 58.4708V58.4712L58.6759 59.568C58.4171 59.8172 58.4171 60.2207 58.6759 60.4699L61.1542 62.8567L60.251 63.7252Z" fill="#F57D51"/>
<path d="M52.8238 54.7997C52.5657 54.5505 52.1459 54.5505 51.8871 54.7997C51.6283 55.0485 51.6283 55.4524 51.8871 55.7015L52.6291 56.4163C52.8872 56.6654 53.307 56.6655 53.5658 56.4163C53.8246 56.1674 53.8246 55.7636 53.5658 55.5144L52.8238 54.7997Z" fill="#F57D51"/>
<path d="M56.4019 54.9116V53.901C56.4019 53.5488 56.1052 53.2632 55.7394 53.2632C55.3737 53.2632 55.077 53.5488 55.077 53.901V54.9116C55.077 55.2637 55.3737 55.5494 55.7394 55.5494C56.1052 55.5494 56.4019 55.2638 56.4019 54.9116Z" fill="#F57D51"/>
<path d="M52.0033 57.8717H50.9537C50.5879 57.8717 50.2913 58.1573 50.2913 58.5095C50.2913 58.8617 50.5879 59.1473 50.9537 59.1473H52.0033C52.369 59.1473 52.6657 58.8617 52.6657 58.5095C52.6657 58.1573 52.369 57.8717 52.0033 57.8717Z" fill="#F57D51"/>
</svg>
