<svg width="64" height="85" viewBox="0 0 64 85" fill="none" xmlns="http://www.w3.org/2000/svg">
<path d="M30.2749 41.7232H28.7478V40.1961H30.2749V41.7232ZM25.1713 41.7232H23.6442V40.1961H25.1713V41.7232ZM20.0676 41.7232H18.5406V40.1961H20.0676V41.7232Z" fill="#F17B50" stroke="white" stroke-width="1.02473"/>
<path d="M63.1979 66.3162V66.315C63.1979 63.7839 61.1378 61.7238 58.6066 61.7238C57.6609 61.7238 56.7821 62.0108 56.0511 62.5026L55.5024 62.8718L55.282 62.2483C54.651 60.4633 52.9465 59.1825 50.9512 59.1825C50.0078 59.1825 49.1311 59.4681 48.401 59.9577L47.8505 60.3268L47.6319 59.7011C47.0056 57.9081 45.2969 56.62 43.2958 56.62C42.4598 56.62 41.6762 56.8444 41.0009 57.2358L40.2316 57.6817V56.7925V48.4629C40.2316 45.9317 38.1715 43.8716 35.6403 43.8716C33.1091 43.8716 31.0491 45.9317 31.0491 48.4629V63.7612V64.2637L30.5467 64.2735L28.0029 64.3231L27.9942 64.3233V64.3232C25.4684 64.3297 23.4149 66.3875 23.4149 68.9119V68.913L23.4047 73.9926L23.4036 74.5039H22.8923H4.67832C3.22271 74.5039 2.03945 73.3207 2.03945 71.8651V14.5363H0.512364V71.8651C0.512364 74.1618 2.38158 76.031 4.67832 76.031H22.8872H23.4006L23.3996 76.5444L23.3932 79.7575L25.8574 84.3052L27.2 83.5777L24.9833 79.4866L24.9211 79.3719L24.9214 79.2415L24.942 68.9148L63.1979 66.3162ZM63.1979 66.3162L63.2392 83.878M63.1979 66.3162L63.2392 83.878M63.2392 83.878L61.7121 83.8816L61.6708 66.3183L63.2392 83.878ZM55.5425 69.6413V66.3152C55.5425 64.6252 56.9166 63.251 58.6066 63.251C60.2967 63.251 61.6702 64.6249 61.6708 66.3171L55.5425 69.6413ZM55.5425 69.6413H54.0154V66.3152V63.774C54.0154 62.0839 52.6412 60.7098 50.9512 60.7098C49.2612 60.7098 47.887 62.0839 47.887 63.774V69.6411H46.3599V61.2114C46.3599 59.5214 44.9858 58.1472 43.2958 58.1472C41.6057 58.1472 40.2316 59.5214 40.2316 61.2114V69.6411H38.7045V61.2114V48.4629C38.7045 46.7729 37.3304 45.3987 35.6403 45.3987C33.9503 45.3987 32.5761 46.7729 32.5761 48.4629V66.264V77.286H31.0491V66.3137V65.7912L30.5267 65.8014L28.0008 65.8507C26.3136 65.8536 24.9425 67.226 24.942 68.9138L55.5425 69.6413Z" fill="#F17B50" stroke="#F97F53" stroke-width="1.02473"/>
<path d="M12.9312 2.55181V2.03945H12.4188H4.67832C3.22271 2.03945 2.03945 3.22271 2.03945 4.67832V10.9708H0.512364V4.67832C0.512364 2.38158 2.38158 0.512364 4.67832 0.512364H12.4188H35.7359H43.8063C46.1029 0.512364 47.9723 2.38159 47.9723 4.67832V54.341H46.4452V4.67832C46.4452 3.22271 45.2619 2.03945 43.8063 2.03945H35.7361H35.2237V2.55181V5.18868C35.2237 7.48541 33.3544 9.35464 31.0578 9.35464H17.0971C14.8004 9.35464 12.9312 7.48543 12.9312 5.18868V2.55181ZM33.6965 2.55181V2.03945H33.1841H14.9705H14.4581V2.55181V5.18868C14.4581 6.6443 15.6414 7.82756 17.097 7.82756H31.0576C32.5132 7.82756 33.6965 6.6443 33.6965 5.18868V2.55181Z" fill="#F17B50" stroke="#F97F53" stroke-width="1.02473"/>
<path d="M9.46317 48.9858H21.1762V50.5129H9.46317V48.9858Z" fill="#F17B50" stroke="#F97F53" stroke-width="1.02473"/>
<path d="M9.46317 54.0896H21.1762V55.6166H9.46317V54.0896Z" fill="#F17B50" stroke="#F97F53" stroke-width="1.02473"/>
<path d="M9.46317 59.1936H21.1762V60.7207H9.46317V59.1936Z" fill="#F17B50" stroke="#F97F53" stroke-width="1.02473"/>
<path d="M21.3281 27.6123L24.3001 19.2563C24.3608 19.0973 24.571 19.0971 24.632 19.2559L27.5771 27.6123M22.2554 25.5312H26.6657M29.6631 19.1369L32.1912 23.283M32.1912 23.283L34.6987 19.1583M32.1912 23.283L32.182 27.6123M14.1773 19.137V27.6123M14.1773 19.137C14.1773 19.137 14.1828 20.9818 14.1828 21.5286C14.1828 22.1945 14.1928 23.931 14.1928 23.931C14.1928 23.931 15.7694 23.9205 16.3813 23.9205C17.6149 23.9205 18.6586 22.8495 18.6586 21.5286C18.6586 20.2077 17.6149 19.1368 16.3813 19.1368L14.1773 19.137ZM36.9111 33.9997H11.9652C10.0517 33.9997 8.50061 32.3387 8.50061 30.2899V16.4595C8.50061 14.4105 10.0517 12.7497 11.9652 12.7497H36.9111C38.8246 12.7497 40.3756 14.4105 40.3756 16.4595V30.2899C40.3756 32.3387 38.8246 33.9997 36.9111 33.9997Z" stroke="#F17B50" stroke-width="2" stroke-miterlimit="10" stroke-linecap="round" stroke-linejoin="round"/>
</svg>
