<svg width="66" height="66" viewBox="0 0 66 66" fill="none" xmlns="http://www.w3.org/2000/svg">
<path d="M59.3034 50.9191C59.2984 50.9062 59.2932 50.8934 59.2878 50.8808C58.1012 48.1042 55.3183 47.078 52.0248 48.2028L43.0431 50.6866C42.5238 49.114 41.2285 47.7758 39.397 47.0961C39.3857 47.092 39.3743 47.0879 39.3628 47.084L29.4898 43.7331C28.6681 42.6709 26.094 39.9529 21.2745 39.9529C17.9064 39.9529 14.9269 42.2635 13.2223 44.782H1.28922C0.577186 44.782 0 45.3592 0 46.0712V62.3253C0 63.0374 0.577186 63.6146 1.28922 63.6146H8.95456C9.6666 63.6146 10.2438 63.0374 10.2438 62.3253V61.2122H13.8385C14.5506 61.2122 15.1278 60.635 15.1278 59.923V59.552C17.2233 59.7348 17.9125 60.1322 19.837 61.242C21.3171 62.0955 23.554 63.3853 27.5823 65.1966C27.601 65.205 27.6199 65.2129 27.6389 65.2204C28.412 65.5246 29.9234 66.0023 31.7867 66.0023C33.0837 66.0023 34.5515 65.7707 36.058 65.0878L55.9109 57.9795C55.9463 57.9669 55.9811 57.9527 56.0151 57.937C57.9125 57.064 60.7398 54.6038 59.3034 50.9191ZM7.66534 61.036H2.57845V47.3603H7.66534V61.036ZM12.5493 58.6337H10.2438V47.3603H12.5493V58.6337ZM54.9849 55.5721L35.1409 62.6772C35.1235 62.6834 35.0999 62.6926 35.0827 62.6996C35.0653 62.7067 35.0479 62.7142 35.0308 62.722C32.2671 63.9922 29.64 63.2318 28.6105 62.8315C24.7193 61.0806 22.6425 59.883 21.1251 59.008C19.0154 57.7915 17.9989 57.2052 15.1278 56.9681V46.5844C16.3498 44.5815 18.7197 42.5312 21.2746 42.5312C25.6562 42.5312 27.5128 45.3811 27.5858 45.4961C27.7432 45.7521 27.9852 45.9451 28.2697 46.0417L38.5158 49.5192C40.1522 50.1334 41.017 51.5348 40.6196 52.9323C40.4361 53.5777 40.0122 54.113 39.4261 54.4396C38.8451 54.7633 38.1734 54.8433 37.5332 54.6662L25.9826 51.0058C25.3035 50.7907 24.5792 51.1666 24.3641 51.8454C24.149 52.5241 24.5249 53.2487 25.2037 53.4639L36.7743 57.1305C36.7866 57.1344 36.7988 57.1382 36.8112 57.1416C37.2731 57.273 37.7434 57.338 38.2109 57.338C39.0667 57.338 39.9131 57.12 40.6812 56.692C41.869 56.0302 42.7278 54.9454 43.0997 53.6375C43.1293 53.5331 43.1556 53.4287 43.1784 53.3242L52.8583 50.6427C54.2563 50.1651 56.0916 49.993 56.9087 51.8749C57.7544 54.0842 55.5563 55.2996 54.9849 55.5721Z" fill="#F67E52"/>
<path d="M46.2909 16.9557C46.2741 16.8732 46.2496 16.792 46.2161 16.7133C46.1839 16.636 46.1452 16.5612 46.0975 16.4916C46.0511 16.4207 45.9969 16.3549 45.9376 16.2956C45.8783 16.2363 45.8126 16.1821 45.7417 16.1357C45.6721 16.0893 45.5973 16.0494 45.5199 16.0171C45.4413 15.9849 45.3601 15.9591 45.2788 15.9436C45.1125 15.9101 44.9411 15.9101 44.7748 15.9436C44.6923 15.9591 44.611 15.9849 44.5337 16.0171C44.455 16.0494 44.3803 16.0893 44.3106 16.1357C44.2397 16.1821 44.174 16.2363 44.1147 16.2956C44.0554 16.3549 44.0012 16.4207 43.9548 16.4916C43.9084 16.5612 43.8684 16.636 43.8362 16.7133C43.804 16.792 43.7782 16.8732 43.7627 16.9557C43.746 17.0382 43.7369 17.1233 43.7369 17.2071C43.7369 17.2909 43.746 17.376 43.7627 17.4585C43.7782 17.541 43.804 17.6222 43.8362 17.6996C43.8684 17.7782 43.9084 17.853 43.9548 17.9226C44.0012 17.9935 44.0554 18.0593 44.1147 18.1186C44.174 18.1779 44.2397 18.232 44.3106 18.2784C44.3803 18.3248 44.455 18.3648 44.5337 18.397C44.611 18.4293 44.6923 18.4538 44.7748 18.4705C44.8573 18.4873 44.9424 18.4963 45.0262 18.4963C45.11 18.4963 45.195 18.4873 45.2788 18.4705C45.3601 18.4538 45.4413 18.4293 45.5199 18.397C45.5973 18.3648 45.6721 18.3248 45.7417 18.2784C45.8126 18.232 45.8783 18.1779 45.9376 18.1186C45.9969 18.0593 46.0511 17.9935 46.0975 17.9226C46.1452 17.853 46.1839 17.7782 46.2161 17.6996C46.2496 17.6222 46.2741 17.541 46.2909 17.4585C46.3077 17.376 46.3154 17.2909 46.3154 17.2071C46.3154 17.1233 46.3077 17.0382 46.2909 16.9557Z" fill="#F67E52"/>
<path d="M64.7192 4.36631H57.0539C56.3419 4.36631 55.7647 4.9435 55.7647 5.65554V6.76865H52.1699C51.4579 6.76865 50.8807 7.34584 50.8807 8.05788V8.42892C48.7852 8.24597 48.096 7.84863 46.1716 6.73887C44.6915 5.8854 42.4546 4.59554 38.4262 2.7843C38.4075 2.7758 38.3886 2.76793 38.3694 2.76045C37.0582 2.24451 33.6215 1.22937 29.9509 2.89286L24.7631 4.75037L20.3902 0.377582C19.8867 -0.12586 19.0704 -0.12586 18.567 0.377582L4.21042 14.734C3.74604 15.1985 3.65696 16.0039 4.21042 16.5573L28.7427 41.0896C29.1352 41.4823 30.0545 41.601 30.566 41.0896L43.6729 27.9828C44.0137 28.0122 44.3673 28.0281 44.7338 28.0281C48.102 28.0281 51.0814 25.7175 52.7859 23.1992H64.7192C65.4313 23.1992 66.0085 22.622 66.0085 21.9099V5.65554C66.0085 4.9435 65.4313 4.36631 64.7192 4.36631ZM19.4784 3.11241L22.4168 6.05081C21.5434 6.591 20.5335 6.88004 19.4784 6.88004C18.4232 6.88004 17.4135 6.59113 16.54 6.05081L19.4784 3.11241ZM9.88378 18.5841L6.94538 15.6456L9.88378 12.7072C10.424 13.5807 10.713 14.5905 10.713 15.6456C10.713 16.7007 10.4241 17.7106 9.88378 18.5841ZM29.6544 38.3546L26.7165 35.4168C28.5102 34.3098 30.7983 34.3098 32.5922 35.4168L29.6544 38.3546ZM34.4497 33.5595C31.6008 31.4929 27.7081 31.4929 24.8591 33.5595L11.7412 20.4414C12.7479 19.0568 13.2915 17.3935 13.2915 15.6456C13.2915 13.8975 12.748 12.2344 11.7412 10.8498L14.6828 7.90833C16.0674 8.91508 17.7305 9.45862 19.4786 9.45862C21.2266 9.45862 22.8897 8.91508 24.2744 7.90833L27.0628 10.6968C26.4611 10.7856 25.8744 10.9839 25.3273 11.2888C24.4031 11.8037 23.6781 12.5748 23.2266 13.5077C21.7724 13.777 20.426 14.481 19.3699 15.5371C16.5046 18.4025 16.5046 23.0647 19.37 25.9301C20.8026 27.3627 22.6845 28.0791 24.5665 28.0791C26.4484 28.0791 28.3304 27.3628 29.7631 25.9301C30.6952 24.998 31.3482 23.8524 31.6753 22.6039L36.0282 24.0813C35.5382 26.3513 36.0401 28.7395 37.3939 30.6153L34.4497 33.5595ZM26.6115 20.8848C26.6228 20.8889 26.6341 20.893 26.6456 20.8969L29.2236 21.7719C29.0289 22.6505 28.5884 23.4583 27.9399 24.1069C26.0798 25.9667 23.0532 25.967 21.1934 24.1069C19.3333 22.2469 19.3333 19.2205 21.1934 17.3604C21.642 16.9115 22.1715 16.5607 22.7484 16.3228C22.9864 18.3033 24.4124 20.0687 26.6115 20.8848ZM39.2515 28.7575C38.7539 27.9466 38.4723 27.0211 38.4278 26.0765C39.0454 26.5229 39.8001 26.9604 40.7015 27.3075L39.2515 28.7575ZM50.8806 21.3959C49.6587 23.3991 47.2888 25.4494 44.7338 25.4494C44.2558 25.4494 43.8078 25.4153 43.3889 25.3547C43.3872 25.3545 43.3856 25.3542 43.3839 25.354C40.5997 24.9495 39.102 23.3672 38.6083 22.7406C38.582 22.7019 38.47 22.5553 38.4534 22.531C38.3032 22.2625 38.0569 22.0467 37.7429 21.9401L27.4925 18.4611C25.8567 17.8472 24.9921 16.4465 25.3884 15.0495C25.3886 15.0486 25.3889 15.0477 25.3891 15.0468C25.3895 15.0457 25.3898 15.0446 25.39 15.0435C25.5743 14.4002 25.9974 13.8666 26.5822 13.5408C27.1631 13.2171 27.8347 13.1368 28.4752 13.3143L40.0257 16.9745C40.7046 17.19 41.4292 16.8138 41.6442 16.135C41.8592 15.4562 41.4834 14.7317 40.8047 14.5165L31.6183 11.6054L31.5381 11.5252C31.5373 11.5245 31.5366 11.5236 31.5357 11.5228L26.7797 6.76685L30.8676 5.30306C30.8814 5.29803 30.8984 5.29172 30.9121 5.28617C30.9155 5.28475 30.9222 5.28218 30.9256 5.28076C30.9431 5.27367 30.9604 5.26619 30.9775 5.25833C33.7411 3.98818 36.368 4.74844 37.3978 5.14887C41.289 6.89977 43.366 8.09733 44.8834 8.97232C46.9931 10.189 48.0096 10.7752 50.8806 11.0123V21.3959ZM55.7647 20.6205H53.4592V9.3471H55.7647V20.6205ZM63.43 20.6205H58.3431V6.94476H63.43V20.6205Z" fill="#F67E52"/>
</svg>
