<svg width="77" height="76" viewBox="0 0 77 76" fill="none" xmlns="http://www.w3.org/2000/svg">
<path d="M5.43044 38.2256H1.49609" stroke="#F27C50" stroke-width="3" stroke-miterlimit="10" stroke-linecap="round" stroke-linejoin="round"/>
<path d="M75.5041 38.2256H71.5697" stroke="#F27C50" stroke-width="3" stroke-miterlimit="10" stroke-linecap="round" stroke-linejoin="round"/>
<path d="M38.5 5.85165V2.00006" stroke="#F27C50" stroke-width="3" stroke-miterlimit="10" stroke-linecap="round" stroke-linejoin="round"/>
<path d="M38.5 74.4511V70.5995" stroke="#F27C50" stroke-width="3" stroke-miterlimit="10" stroke-linecap="round" stroke-linejoin="round"/>
<path d="M15.117 15.3342L12.335 12.6094" stroke="#F27C50" stroke-width="3" stroke-miterlimit="10" stroke-linecap="round" stroke-linejoin="round"/>
<path d="M64.6658 63.8417L61.8838 61.1169" stroke="#F27C50" stroke-width="3" stroke-miterlimit="10" stroke-linecap="round" stroke-linejoin="round"/>
<path d="M61.8838 15.3341L64.6658 12.6094" stroke="#F27C50" stroke-width="3" stroke-miterlimit="10" stroke-linecap="round" stroke-linejoin="round"/>
<path d="M12.335 63.8417L15.117 61.1169" stroke="#F27C50" stroke-width="3" stroke-miterlimit="10" stroke-linecap="round" stroke-linejoin="round"/>
<path d="M7.94886 50.6143L4.31372 52.0881" stroke="#F27C50" stroke-width="3" stroke-miterlimit="10" stroke-linecap="round" stroke-linejoin="round"/>
<path d="M72.6868 24.363L69.0516 25.8368" stroke="#F27C50" stroke-width="3" stroke-miterlimit="10" stroke-linecap="round" stroke-linejoin="round"/>
<path d="M25.8458 8.31539L24.3402 4.75665" stroke="#F27C50" stroke-width="3" stroke-miterlimit="10" stroke-linecap="round" stroke-linejoin="round"/>
<path d="M52.6597 71.6945L51.1541 68.1357" stroke="#F27C50" stroke-width="3" stroke-miterlimit="10" stroke-linecap="round" stroke-linejoin="round"/>
<path d="M7.94886 25.8368L4.31372 24.363" stroke="#F27C50" stroke-width="3" stroke-miterlimit="10" stroke-linecap="round" stroke-linejoin="round"/>
<path d="M72.6868 52.0881L69.0516 50.6143" stroke="#F27C50" stroke-width="3" stroke-miterlimit="10" stroke-linecap="round" stroke-linejoin="round"/>
<path d="M51.1541 8.31539L52.6597 4.75665" stroke="#F27C50" stroke-width="3" stroke-miterlimit="10" stroke-linecap="round" stroke-linejoin="round"/>
<path d="M24.3402 71.6945L25.8458 68.1357" stroke="#F27C50" stroke-width="3" stroke-miterlimit="10" stroke-linecap="round" stroke-linejoin="round"/>
<path d="M27.2439 27.6385H20.4336C18.8373 27.6385 17.5433 28.9325 17.5433 30.5288V53.9837C17.5433 55.5801 18.8373 56.874 20.4336 56.874H27.2439C28.8403 56.874 30.1342 55.5801 30.1342 53.9837V30.5288C30.1342 28.9341 28.8403 27.6385 27.2439 27.6385Z" stroke="#F27C50" stroke-width="3" stroke-miterlimit="10" stroke-linecap="round" stroke-linejoin="round"/>
<path d="M38.7016 32.0648H56.3838C57.8385 32.0648 59.1834 33.0611 59.4158 34.4983C59.715 36.3397 58.3144 37.9376 56.5271 37.9376H54.9355C56.7213 37.9376 58.1202 39.5149 57.8242 41.3595C57.5918 42.8046 56.2406 43.8105 54.7764 43.8105H53.344C55.1265 43.8105 56.5239 45.383 56.2342 47.2228C56.0066 48.6632 54.6634 49.6675 53.2055 49.6675H51.7524C53.5381 49.6675 54.9387 51.267 54.6411 53.1068C54.4087 54.5424 53.0638 55.5388 51.6091 55.5388H38.3148C35.493 55.5388 32.7045 54.9371 30.1342 53.7753" stroke="#F27C50" stroke-width="3" stroke-miterlimit="10" stroke-linecap="round" stroke-linejoin="round"/>
<path d="M42.0036 32.0646L44.6504 22.4755C45.3427 19.9703 43.8403 17.384 41.3224 16.7426L39.9425 16.3909C38.4783 22.5741 35.2267 27.691 30.2849 32.063" stroke="#F27C50" stroke-width="3" stroke-miterlimit="10" stroke-linecap="round" stroke-linejoin="round"/>
<path d="M54.9357 37.9376H52.4226" stroke="#F27C50" stroke-width="3" stroke-miterlimit="10" stroke-linecap="round" stroke-linejoin="round"/>
<path d="M53.3424 43.8025H50.8293" stroke="#F27C50" stroke-width="3" stroke-miterlimit="10" stroke-linecap="round" stroke-linejoin="round"/>
<path d="M51.7735 49.6721H49.2604" stroke="#F27C50" stroke-width="3" stroke-miterlimit="10" stroke-linecap="round" stroke-linejoin="round"/>
</svg>
