<svg width="52" height="52" viewBox="0 0 52 52" fill="none" xmlns="http://www.w3.org/2000/svg">
<rect opacity="0.1" width="52" height="52" rx="16" fill="#676DFF"/>
<path d="M23.8735 15.6452C24.1594 15.0921 23.9438 14.4124 23.3954 14.1265C22.8469 13.8405 22.1625 14.0562 21.8766 14.6046L17.5125 22.9999H13.5C12.6703 22.9999 12 23.6703 12 24.5C12 25.3296 12.6703 26 13.5 26L15.9328 35.7266C16.2656 37.0625 17.4656 38 18.8438 38H32.1563C33.5345 38 34.7345 37.0625 35.0673 35.7266L37.5001 26C38.3298 26 39.0001 25.3296 39.0001 24.5C39.0001 23.6703 38.3298 22.9999 37.5001 22.9999H33.4876L29.1235 14.6046C28.8376 14.0562 28.1579 13.8405 27.6047 14.1265C27.0516 14.4124 26.8407 15.0921 27.1266 15.6452L30.9516 22.9999H20.0485L23.8735 15.6452ZM21 28.25V32.75C21 33.1625 20.6625 33.5 20.25 33.5C19.8375 33.5 19.5 33.1625 19.5 32.75V28.25C19.5 27.8375 19.8375 27.5 20.25 27.5C20.6625 27.5 21 27.8375 21 28.25ZM25.5 27.5C25.9125 27.5 26.25 27.8375 26.25 28.25V32.75C26.25 33.1625 25.9125 33.5 25.5 33.5C25.0875 33.5 24.75 33.1625 24.75 32.75V28.25C24.75 27.8375 25.0875 27.5 25.5 27.5ZM31.5001 28.25V32.75C31.5001 33.1625 31.1626 33.5 30.7501 33.5C30.3376 33.5 30.0001 33.1625 30.0001 32.75V28.25C30.0001 27.8375 30.3376 27.5 30.7501 27.5C31.1626 27.5 31.5001 27.8375 31.5001 28.25Z" fill="#676DFF"/>
</svg>
