<svg width="52" height="52" viewBox="0 0 52 52" fill="none" xmlns="http://www.w3.org/2000/svg">
<rect opacity="0.1" width="52" height="52" rx="16" fill="#676DFF"/>
<path d="M17 19.25C16.5875 19.25 16.25 19.5875 16.25 20V21.0359L24.3359 27.6734C25.3062 28.4703 26.6984 28.4703 27.6688 27.6734L35.75 21.0359V20C35.75 19.5875 35.4125 19.25 35 19.25H17ZM16.25 23.9469V32C16.25 32.4125 16.5875 32.75 17 32.75H35C35.4125 32.75 35.75 32.4125 35.75 32V23.9469L29.0938 29.4125C27.2937 30.8891 24.7016 30.8891 22.9062 29.4125L16.25 23.9469ZM14 20C14 18.3453 15.3453 17 17 17H35C36.6547 17 38 18.3453 38 20V32C38 33.6547 36.6547 35 35 35H17C15.3453 35 14 33.6547 14 32V20Z" fill="#676DFF"/>
</svg>
