<svg width="782" height="468" viewBox="0 0 782 468" fill="none" xmlns="http://www.w3.org/2000/svg">
<path d="M277.636 31.9232H171.374C165.794 31.9232 161.271 36.4463 161.271 42.0258V178.671C161.271 184.251 165.794 188.774 171.374 188.774H277.636C283.215 188.774 287.738 184.251 287.738 178.671V42.0258C287.738 36.4463 283.215 31.9232 277.636 31.9232Z" fill="#676DFF" stroke="#0C0C0C" stroke-width="2" stroke-linecap="round" stroke-linejoin="round"/>
<path d="M248.225 31.9232H235.933V188.918H248.225V31.9232Z" fill="#0C0C0C"/>
<path d="M622.516 262.06H728.779C734.358 262.06 738.881 257.537 738.881 251.957V148.511C738.881 142.932 734.358 138.408 728.779 138.408H622.516C616.937 138.408 612.414 142.932 612.414 148.511V251.957C612.414 257.537 616.937 262.06 622.516 262.06Z" fill="#676DFF" stroke="#0C0C0C" stroke-width="2" stroke-linecap="round" stroke-linejoin="round"/>
<path d="M651.927 262.174H664.219V138.408H651.927V262.174Z" fill="#0C0C0C"/>
<path d="M724.408 375.394C736.413 382.564 783.141 246.81 780.924 238.457C780.932 238.457 703.203 362.729 724.408 375.394Z" fill="#FFFBF5" stroke="#0C0C0C" stroke-width="2" stroke-linecap="round" stroke-linejoin="round"/>
<path d="M715.069 414.473C715.069 414.473 728.358 325.528 780.302 240.802" stroke="#0C0C0C" stroke-width="2" stroke-linecap="round" stroke-linejoin="round"/>
<path d="M765.208 344.543C765.208 344.543 740.243 409.916 725.982 402.783C711.982 395.781 765.208 344.543 765.208 344.543Z" fill="#FFFBF5" stroke="#0C0C0C" stroke-width="2" stroke-linecap="round" stroke-linejoin="round"/>
<path d="M718.511 414.473C718.511 414.473 749.491 365.657 765.214 344.769" stroke="#0C0C0C" stroke-width="2" stroke-linecap="round" stroke-linejoin="round"/>
<path d="M729.04 192.155C729.04 192.155 733.218 339.664 715.069 339.664C693.794 339.664 729.04 192.155 729.04 192.155Z" fill="#FFFBF5" stroke="#0C0C0C" stroke-width="2" stroke-linecap="round" stroke-linejoin="round"/>
<path d="M711.704 414.473C711.704 414.473 713.503 283.441 729.04 193.161" stroke="#0C0C0C" stroke-width="2" stroke-linecap="round" stroke-linejoin="round"/>
<path d="M667.592 272.792C667.592 272.792 678.5 375.311 696.657 372.155C715.069 368.955 667.592 272.792 667.592 272.792Z" fill="#FFFBF5" stroke="#0C0C0C" stroke-width="2" stroke-linecap="round" stroke-linejoin="round"/>
<path d="M668.132 273.85L709.089 415.016" stroke="#0C0C0C" stroke-width="2" stroke-linecap="round" stroke-linejoin="round"/>
<path d="M713.503 462.036C706.864 462.036 700.497 459.398 695.803 454.703C691.108 450.008 688.471 443.641 688.471 437.001V430.389C688.471 428.848 688.812 427.326 689.47 425.932C690.128 424.538 691.086 423.308 692.276 422.328L698.925 416.852C700.795 415.314 703.141 414.473 705.562 414.473H721.439C723.86 414.474 726.206 415.315 728.077 416.852L734.725 422.328C735.915 423.308 736.873 424.538 737.531 425.932C738.189 427.326 738.53 428.848 738.53 430.389V437.001C738.53 443.64 735.894 450.006 731.2 454.701C726.507 459.396 720.142 462.034 713.503 462.036Z" fill="#FFFBF5" stroke="#0C0C0C" stroke-width="2" stroke-linecap="round" stroke-linejoin="round"/>
<path d="M717.899 287.421L728.383 277.745" stroke="#0C0C0C" stroke-width="2" stroke-linecap="round" stroke-linejoin="round"/>
<path d="M717.662 292.373L728.146 282.694" stroke="#0C0C0C" stroke-width="2" stroke-linecap="round" stroke-linejoin="round"/>
<path d="M717.662 245.829L720.882 254.578" stroke="#0C0C0C" stroke-width="2" stroke-linecap="round" stroke-linejoin="round"/>
<path d="M738.906 327.887H752.323" stroke="#0C0C0C" stroke-width="2" stroke-linecap="round" stroke-linejoin="round"/>
<path d="M739.85 324.586H753.268" stroke="#0C0C0C" stroke-width="2" stroke-linecap="round" stroke-linejoin="round"/>
<path d="M760.423 276.914H771.147" stroke="#0C0C0C" stroke-width="2" stroke-linecap="round" stroke-linejoin="round"/>
<path d="M679.658 342.772L689.85 348.71" stroke="#0C0C0C" stroke-width="2" stroke-linecap="round" stroke-linejoin="round"/>
<path d="M680.6 347.254L691.031 353.426" stroke="#0C0C0C" stroke-width="2" stroke-linecap="round" stroke-linejoin="round"/>
<path d="M733.483 391.251H742.691" stroke="#0C0C0C" stroke-width="2" stroke-linecap="round" stroke-linejoin="round"/>
<path d="M641.1 1H258.169C252.458 1 247.829 5.62908 247.829 11.3393V278.129C247.829 283.839 252.458 288.468 258.169 288.468H641.1C646.81 288.468 651.44 283.839 651.44 278.129V11.3393C651.44 5.62908 646.81 1 641.1 1Z" fill="#FFFBF5" stroke="#0C0C0C" stroke-width="2" stroke-linecap="round" stroke-linejoin="round"/>
<path d="M247.829 24.9237H651.44" stroke="#0C0C0C" stroke-width="2" stroke-linecap="round" stroke-linejoin="round"/>
<path d="M307.907 10.8519H305.863C304.249 10.8519 302.941 12.1601 302.941 13.7738V15.8183C302.941 17.432 304.249 18.7401 305.863 18.7401H307.907C309.521 18.7401 310.829 17.432 310.829 15.8183V13.7738C310.829 12.1601 309.521 10.8519 307.907 10.8519Z" fill="#FFEFF0"/>
<path d="M294.451 10.8519H292.407C290.793 10.8519 289.485 12.1601 289.485 13.7738V15.8183C289.485 17.432 290.793 18.7401 292.407 18.7401H294.451C296.065 18.7401 297.373 17.432 297.373 15.8183V13.7738C297.373 12.1601 296.065 10.8519 294.451 10.8519Z" fill="#FFEFF0"/>
<path d="M280.992 10.8519H278.947C277.334 10.8519 276.026 12.1601 276.026 13.7738V15.8183C276.026 17.432 277.334 18.7401 278.947 18.7401H280.992C282.606 18.7401 283.914 17.432 283.914 15.8183V13.7738C283.914 12.1601 282.606 10.8519 280.992 10.8519Z" fill="#FFEFF0"/>
<path d="M306.281 9.40625H304.236C302.623 9.40625 301.314 10.7144 301.314 12.3281V14.3726C301.314 15.9863 302.623 17.2945 304.236 17.2945H306.281C307.895 17.2945 309.203 15.9863 309.203 14.3726V12.3281C309.203 10.7144 307.895 9.40625 306.281 9.40625Z" fill="#676DFF" stroke="#0C0C0C" stroke-width="2" stroke-linecap="round" stroke-linejoin="round"/>
<path d="M292.822 9.40625H290.777C289.164 9.40625 287.855 10.7144 287.855 12.3281V14.3726C287.855 15.9863 289.164 17.2945 290.777 17.2945H292.822C294.435 17.2945 295.744 15.9863 295.744 14.3726V12.3281C295.744 10.7144 294.435 9.40625 292.822 9.40625Z" fill="#676DFF" stroke="#0C0C0C" stroke-width="2" stroke-linecap="round" stroke-linejoin="round"/>
<path d="M279.366 9.40625H277.321C275.707 9.40625 274.399 10.7144 274.399 12.3281V14.3726C274.399 15.9863 275.707 17.2945 277.321 17.2945H279.366C280.979 17.2945 282.287 15.9863 282.287 14.3726V12.3281C282.287 10.7144 280.979 9.40625 279.366 9.40625Z" fill="#FA5542" stroke="#0C0C0C" stroke-width="2" stroke-linecap="round" stroke-linejoin="round"/>
<path d="M579.334 204.116H324.709C322 204.116 319.804 206.312 319.804 209.021V251.871C319.804 254.58 322 256.776 324.709 256.776H579.334C582.043 256.776 584.24 254.58 584.24 251.871V209.021C584.24 206.312 582.043 204.116 579.334 204.116Z" stroke="#0C0C0C" stroke-width="2" stroke-linecap="round" stroke-linejoin="round"/>
<path d="M538.576 218.75H508.054V242.326H538.576V218.75Z" fill="#676DFF" stroke="#0C0C0C" stroke-width="2" stroke-linecap="round" stroke-linejoin="round"/>
<path d="M551.5 242.326H538.576V224.641H545.038L551.5 234.006V242.326Z" fill="#FFFBF5" stroke="#0C0C0C" stroke-width="2" stroke-linecap="round" stroke-linejoin="round"/>
<path d="M540.916 227.917H544.214L547.514 232.694H540.916V227.917Z" fill="#FFFBF5" stroke="#0C0C0C" stroke-width="2" stroke-linecap="round" stroke-linejoin="round"/>
<path d="M517.056 245.871C518.887 245.871 520.371 244.387 520.371 242.557C520.371 240.726 518.887 239.242 517.056 239.242C515.225 239.242 513.741 240.726 513.741 242.557C513.741 244.387 515.225 245.871 517.056 245.871Z" fill="#FFFBF5" stroke="#0C0C0C" stroke-width="2" stroke-linecap="round" stroke-linejoin="round"/>
<path d="M544.994 245.871C546.824 245.871 548.308 244.387 548.308 242.557C548.308 240.726 546.824 239.242 544.994 239.242C543.163 239.242 541.679 240.726 541.679 242.557C541.679 244.387 543.163 245.871 544.994 245.871Z" fill="#FFFBF5" stroke="#0C0C0C" stroke-width="2" stroke-linecap="round" stroke-linejoin="round"/>
<path d="M532.448 224.641H522.713" stroke="#0C0C0C" stroke-width="2" stroke-linecap="round" stroke-linejoin="round"/>
<path d="M528.936 228.669H519.204" stroke="#0C0C0C" stroke-width="2" stroke-linecap="round" stroke-linejoin="round"/>
<path d="M532.448 232.694H522.713" stroke="#0C0C0C" stroke-width="2" stroke-linecap="round" stroke-linejoin="round"/>
<path d="M479.805 245.827C487.376 245.827 493.514 239.689 493.514 232.117C493.514 224.545 487.376 218.407 479.805 218.407C472.233 218.407 466.095 224.545 466.095 232.117C466.095 239.689 472.233 245.827 479.805 245.827Z" fill="#FFFBF5" stroke="#0C0C0C" stroke-width="2" stroke-linecap="round" stroke-linejoin="round"/>
<path d="M479.863 218.449V245.869" stroke="#0C0C0C" stroke-width="2" stroke-linecap="round" stroke-linejoin="round"/>
<path d="M482.286 218.527C482.286 218.527 491.425 229.131 482.286 245.779V218.527Z" fill="#FFFBF5"/>
<path d="M482.286 218.527C482.286 218.527 491.425 229.131 482.286 245.779" stroke="#0C0C0C" stroke-width="2" stroke-linecap="round" stroke-linejoin="round"/>
<path d="M477.437 218.527C477.437 218.527 468.298 229.131 477.437 245.779" stroke="#0C0C0C" stroke-width="2" stroke-linecap="round" stroke-linejoin="round"/>
<path d="M466.154 232.159H493.57" stroke="#0C0C0C" stroke-width="2" stroke-linecap="round" stroke-linejoin="round"/>
<path d="M471.323 242.885C471.323 242.885 479.618 237.899 488.216 242.885" stroke="#0C0C0C" stroke-width="2" stroke-linecap="round" stroke-linejoin="round"/>
<path d="M471.323 221.496C471.323 221.496 479.618 226.482 488.216 221.496" stroke="#0C0C0C" stroke-width="2" stroke-linecap="round" stroke-linejoin="round"/>
<path d="M440.096 238.855C445.646 238.855 450.146 234.578 450.146 229.301C450.146 224.025 445.646 219.747 440.096 219.747C434.546 219.747 430.046 224.025 430.046 229.301C430.046 234.578 434.546 238.855 440.096 238.855Z" fill="#FFEFF0"/>
<path d="M438.199 238.094C443.913 238.094 448.544 233.692 448.544 228.262C448.544 222.832 443.913 218.43 438.199 218.43C432.486 218.43 427.854 222.832 427.854 228.262C427.854 233.692 432.486 238.094 438.199 238.094Z" fill="#676DFF" stroke="#0C0C0C" stroke-width="2" stroke-linecap="round" stroke-linejoin="round"/>
<path d="M443.372 223.346C444.048 223.974 444.587 224.735 444.956 225.581C445.325 226.426 445.515 227.339 445.515 228.262C445.515 229.185 445.325 230.098 444.956 230.944C444.587 231.79 444.048 232.55 443.372 233.178" stroke="#0C0C0C" stroke-width="2" stroke-linecap="round" stroke-linejoin="round"/>
<path d="M445.503 238.66L451.909 245.398C452.184 245.681 452.556 245.848 452.95 245.868C453.344 245.887 453.73 245.756 454.032 245.501C454.176 245.378 454.295 245.228 454.379 245.058C454.464 244.888 454.513 244.703 454.523 244.514C454.534 244.324 454.505 244.135 454.44 243.957C454.374 243.779 454.273 243.616 454.143 243.479L447.737 236.741C447.462 236.458 447.09 236.29 446.696 236.271C446.302 236.252 445.915 236.383 445.614 236.638C445.469 236.76 445.351 236.911 445.266 237.081C445.182 237.25 445.133 237.435 445.122 237.625C445.112 237.814 445.14 238.004 445.206 238.182C445.271 238.36 445.372 238.522 445.503 238.66Z" fill="#676DFF" stroke="#0C0C0C" stroke-width="2" stroke-linecap="round" stroke-linejoin="round"/>
<path d="M411.964 222.521H392.55C391.528 222.521 390.7 223.35 390.7 224.371V243.785C390.7 244.807 391.528 245.635 392.55 245.635H411.964C412.985 245.635 413.813 244.807 413.813 243.785V224.371C413.813 223.35 412.985 222.521 411.964 222.521Z" fill="#676DFF" stroke="#0C0C0C" stroke-width="2" stroke-linecap="round" stroke-linejoin="round"/>
<path d="M406.591 222.521H388.909C387.888 222.521 387.06 223.35 387.06 224.371V243.785C387.06 244.807 387.888 245.635 388.909 245.635H406.591C407.612 245.635 408.44 244.807 408.44 243.785V224.371C408.44 223.35 407.612 222.521 406.591 222.521Z" fill="#676DFF" stroke="#0C0C0C" stroke-width="2" stroke-linecap="round" stroke-linejoin="round"/>
<path d="M398.098 246.888V221.067" stroke="#0C0C0C" stroke-width="2" stroke-linecap="round" stroke-linejoin="round"/>
<path d="M385.923 234.022H414.836" stroke="#0C0C0C" stroke-width="2" stroke-linecap="round" stroke-linejoin="round"/>
<path d="M401.563 215.104H403.262C404.181 215.104 405.061 215.469 405.711 216.118C406.36 216.767 406.725 217.648 406.725 218.566V219.056C406.725 219.975 406.36 220.855 405.711 221.504C405.061 222.154 404.181 222.519 403.262 222.519H398.101V218.563C398.101 217.645 398.466 216.764 399.115 216.115C399.764 215.466 400.645 215.101 401.563 215.101V215.104Z" stroke="#0C0C0C" stroke-width="2" stroke-linecap="round" stroke-linejoin="round"/>
<path d="M398.059 222.521H393.343C392.618 222.521 391.922 222.233 391.409 221.72C390.896 221.207 390.608 220.512 390.608 219.786V219.399C390.608 218.674 390.896 217.978 391.409 217.465C391.922 216.952 392.618 216.664 393.343 216.664H395.324C396.049 216.664 396.745 216.952 397.258 217.465C397.771 217.978 398.059 218.674 398.059 219.399V222.521Z" stroke="#0C0C0C" stroke-width="2" stroke-linecap="round" stroke-linejoin="round"/>
<path d="M402.41 227.254L398.056 222.521L395.396 225.184" stroke="#0C0C0C" stroke-width="2" stroke-linecap="round" stroke-linejoin="round"/>
<path d="M357.894 214.887H358.323C359.126 214.887 359.896 215.206 360.464 215.773C361.031 216.341 361.35 217.111 361.35 217.914V222.048H354.866V217.914C354.866 217.111 355.185 216.341 355.753 215.773C356.321 215.206 357.091 214.887 357.894 214.887Z" stroke="#0C0C0C" stroke-width="2" stroke-linecap="round" stroke-linejoin="round"/>
<path d="M355.604 214.887H356.033C356.836 214.887 357.606 215.206 358.174 215.773C358.742 216.341 359.061 217.111 359.061 217.914V222.048H352.576V217.914C352.576 217.111 352.895 216.341 353.463 215.773C354.031 215.206 354.801 214.887 355.604 214.887Z" stroke="#0C0C0C" stroke-width="2" stroke-linecap="round" stroke-linejoin="round"/>
<path d="M368.052 245.868H361.05L363.969 222.037H365.133L368.052 245.868Z" fill="#0C0C0C"/>
<path d="M363.969 222.037L361.05 245.868H344.421L347.337 222.037H363.969Z" fill="#676DFF" stroke="#0C0C0C" stroke-width="2" stroke-linecap="round" stroke-linejoin="round"/>
<path d="M498.661 107.081H442.424C439.715 107.081 437.519 109.277 437.519 111.986V168.223C437.519 170.932 439.715 173.128 442.424 173.128H498.661C501.37 173.128 503.566 170.932 503.566 168.223V111.986C503.566 109.277 501.37 107.081 498.661 107.081Z" fill="#0C0C0C"/>
<path d="M495.915 104.302H439.678C436.969 104.302 434.773 106.498 434.773 109.207V165.443C434.773 168.152 436.969 170.349 439.678 170.349H495.915C498.624 170.349 500.82 168.152 500.82 165.443V109.207C500.82 106.498 498.624 104.302 495.915 104.302Z" fill="#FFFBF5" stroke="#0C0C0C" stroke-width="2" stroke-linecap="round" stroke-linejoin="round"/>
<path d="M479.492 163.154H460.696C458.92 163.155 457.166 162.755 455.566 161.984C453.965 161.213 452.559 160.09 451.453 158.7C450.348 157.31 449.57 155.688 449.178 153.955C448.787 152.222 448.792 150.423 449.193 148.692L452.981 135.289C453.112 134.722 453.432 134.217 453.887 133.855C454.342 133.493 454.906 133.295 455.488 133.295H484.684C485.266 133.295 485.83 133.492 486.286 133.854C486.741 134.216 487.06 134.722 487.191 135.289L490.982 148.692C491.382 150.422 491.386 152.219 490.995 153.95C490.604 155.682 489.827 157.303 488.723 158.692C487.619 160.082 486.215 161.205 484.617 161.978C483.019 162.75 481.267 163.152 479.492 163.154Z" fill="#676DFF"/>
<path d="M477.222 161.112H458.426C456.65 161.112 454.897 160.711 453.297 159.939C451.697 159.168 450.292 158.045 449.187 156.654C448.081 155.264 447.304 153.642 446.912 151.909C446.521 150.177 446.525 148.378 446.925 146.648L450.716 133.247C450.847 132.68 451.166 132.173 451.621 131.811C452.076 131.448 452.641 131.25 453.223 131.25H482.422C483.004 131.251 483.569 131.449 484.024 131.811C484.479 132.174 484.798 132.68 484.929 133.247L488.717 146.648C489.118 148.378 489.123 150.176 488.732 151.908C488.341 153.641 487.564 155.263 486.459 156.653C485.354 158.043 483.95 159.167 482.35 159.939C480.751 160.711 478.998 161.112 477.222 161.112Z" stroke="#0C0C0C" stroke-width="2" stroke-linecap="round" stroke-linejoin="round"/>
<path d="M479.203 128.877C479.203 129.671 479.143 130.465 479.022 131.25H456.627C456.506 130.465 456.445 129.671 456.446 128.877C456.446 121.537 461.538 115.591 467.822 115.591C474.105 115.591 479.203 121.537 479.203 128.877Z" stroke="#0C0C0C" stroke-width="2" stroke-linecap="round" stroke-linejoin="round"/>
<path d="M484.302 132.063C483.918 140.809 476.531 147.787 467.821 147.787C459.345 147.787 451.73 140.823 451.346 132.066C451.586 131.809 451.877 131.603 452.2 131.463C452.523 131.323 452.871 131.25 453.223 131.25H482.419C482.772 131.25 483.121 131.323 483.445 131.462C483.769 131.602 484.06 131.807 484.302 132.063Z" stroke="#0C0C0C" stroke-width="2" stroke-linecap="round" stroke-linejoin="round"/>
<path d="M468.958 145.221H466.688V150.567H468.958V145.221Z" stroke="#0C0C0C" stroke-width="2" stroke-linecap="round" stroke-linejoin="round"/>
<path d="M487.732 112.413C491.764 112.413 495.032 109.144 495.032 105.112C495.032 101.08 491.764 97.8115 487.732 97.8115C483.7 97.8115 480.431 101.08 480.431 105.112C480.431 109.144 483.7 112.413 487.732 112.413Z" fill="#676DFF" stroke="#0C0C0C" stroke-width="2" stroke-linecap="round" stroke-linejoin="round"/>
<path d="M485.043 104.9L487.439 108.285L490.422 101.939" stroke="#0C0C0C" stroke-width="2" stroke-linecap="round" stroke-linejoin="round"/>
<path d="M580.88 63.036H438.812C436.581 63.036 434.773 64.8442 434.773 67.0748V88.11C434.773 90.3406 436.581 92.1488 438.812 92.1488H580.88C583.111 92.1488 584.919 90.3406 584.919 88.11V67.0748C584.919 64.8442 583.111 63.036 580.88 63.036Z" stroke="#0C0C0C" stroke-width="2" stroke-linecap="round" stroke-linejoin="round"/>
<path d="M478.899 87.2186H458.24C458.24 87.2186 452.588 78.1439 450.658 78.1439C449.544 78.1439 449.087 87.2214 449.087 87.2214H447.8C447.8 87.2214 444.792 68.6819 448.126 67.6207C450.299 66.9299 456.182 68.7683 457.797 76.0465C459.162 82.1743 467.008 83.2745 467.88 79.2302C467.88 79.2274 478.531 82.3665 478.899 87.2186Z" fill="#FFFBF5" stroke="#0C0C0C" stroke-width="2" stroke-linecap="round" stroke-linejoin="round"/>
<path d="M531.897 82.7676C531.86 83.1994 531.083 85.255 531.083 85.255L491.369 83.9096V81.6813C491.414 78.8032 492.072 75.9677 493.3 73.3642C494.333 71.2111 495.762 71.7487 495.762 71.7487C495.762 71.7487 499.645 75.5451 504.001 75.5451C504.381 75.5415 504.754 75.4389 505.082 75.2474C505.41 75.0559 505.683 74.7822 505.873 74.4533C506.129 74.0518 506.329 73.6169 506.466 73.1608C506.65 72.5668 506.777 71.9569 506.848 71.3392C506.881 71.0785 506.977 70.8296 507.126 70.6136C507.276 70.3976 507.476 70.2209 507.708 70.0982C507.941 69.9756 508.199 69.9106 508.462 69.909C508.725 69.9073 508.984 69.9689 509.218 70.0886C510.928 70.9688 513.003 72.9352 518.563 75.9379C518.842 76.0883 519.12 76.2443 519.427 76.4002C526.189 79.9628 531.824 78.6397 531.897 82.7676Z" fill="#FFFBF5" stroke="#0C0C0C" stroke-width="2" stroke-linecap="round" stroke-linejoin="round"/>
<path d="M527.432 87.2187C528.582 87.2187 529.983 86.6978 530.738 85.8566C531.206 85.3078 531.542 84.6595 531.721 83.961C531.9 83.2625 531.917 82.5323 531.771 81.8262H531.741C531.58 82.6661 531.137 83.4259 530.485 83.9788C529.833 84.5317 529.011 84.8445 528.156 84.865L493.726 83.8539C493.197 83.8374 492.687 83.6573 492.265 83.3386C491.843 83.0198 491.53 82.578 491.369 82.0741V84.3859C491.369 85.9513 492.506 87.2187 493.904 87.2187H527.432Z" fill="#676DFF" stroke="#0C0C0C" stroke-width="2" stroke-linecap="round" stroke-linejoin="round"/>
<path d="M520.075 76.7512C511.474 73.8098 507.171 72.4784 506.466 73.1859C506.649 72.5918 506.777 71.982 506.847 71.3642C506.881 71.1035 506.976 70.8547 507.126 70.6387C507.276 70.4227 507.475 70.2459 507.708 70.1232C507.94 70.0006 508.199 69.9357 508.462 69.934C508.724 69.9323 508.984 69.9939 509.218 70.1136C510.928 70.9798 513.789 73.5925 520.075 76.7512Z" fill="#676DFF" stroke="#0C0C0C" stroke-width="2" stroke-linecap="round" stroke-linejoin="round"/>
<path d="M510.688 72.8683L512.248 70.4952C512.339 70.3564 512.458 70.2376 512.596 70.146C512.735 70.0544 512.89 69.9918 513.053 69.9622C513.217 69.9325 513.384 69.9362 513.546 69.9733C513.708 70.0103 513.861 70.0799 513.995 70.1777C514.234 70.3533 514.402 70.6099 514.467 70.8999C514.531 71.1899 514.488 71.4935 514.346 71.7542L514.137 72.1358" stroke="#0C0C0C" stroke-width="2" stroke-linecap="round" stroke-linejoin="round"/>
<path d="M514.699 74.0967L515.841 72.3892C515.924 72.27 516.03 72.1688 516.153 72.0917C516.275 72.0145 516.412 71.9631 516.556 71.9404C516.699 71.9178 516.845 71.9244 516.986 71.9599C517.126 71.9954 517.258 72.059 517.373 72.1469C517.582 72.3051 517.725 72.534 517.776 72.7905C517.828 73.047 517.783 73.3134 517.652 73.5396L517.24 74.2861" stroke="#0C0C0C" stroke-width="2" stroke-linecap="round" stroke-linejoin="round"/>
<path d="M520.457 75.9156C520.914 75.2944 520.802 74.5814 520.345 74.2443C520.222 74.1528 520.082 74.0872 519.933 74.0515C519.784 74.0158 519.629 74.0109 519.478 74.0369C519.327 74.063 519.183 74.1195 519.054 74.203C518.925 74.2866 518.815 74.3954 518.73 74.5229L518.031 75.6677" stroke="#0C0C0C" stroke-width="2" stroke-linecap="round" stroke-linejoin="round"/>
<path d="M571.761 69.2808C575.21 69.2808 578.005 66.4849 578.005 63.036C578.005 59.587 575.21 56.7911 571.761 56.7911C568.312 56.7911 565.516 59.587 565.516 63.036C565.516 66.4849 568.312 69.2808 571.761 69.2808Z" fill="#FA5542" stroke="#0C0C0C" stroke-width="2" stroke-linecap="round" stroke-linejoin="round"/>
<path d="M569.708 65.1669L573.814 60.9053" stroke="#0C0C0C" stroke-width="2" stroke-linecap="round" stroke-linejoin="round"/>
<path d="M573.814 65.1669L569.708 60.9053" stroke="#0C0C0C" stroke-width="2" stroke-linecap="round" stroke-linejoin="round"/>
<path d="M543.846 77.2609C543.846 77.2609 539.389 87.2186 545.862 87.2186H575.911C575.911 87.2186 577.12 82.3414 569.315 81.0908C568.229 80.9153 565.137 80.322 565.137 80.322C565.137 80.322 566.101 84.2215 559.232 83.9124C552.363 83.6032 549.258 77.7511 543.846 77.2609Z" fill="#FFFBF5" stroke="#0C0C0C" stroke-width="2" stroke-linecap="round" stroke-linejoin="round"/>
<path d="M424.932 67.4843H329.101C326.392 67.4843 324.196 69.6803 324.196 72.3893V168.22C324.196 170.929 326.392 173.125 329.101 173.125H424.932C427.641 173.125 429.837 170.929 429.837 168.22V72.3893C429.837 69.6803 427.641 67.4843 424.932 67.4843Z" fill="#0C0C0C"/>
<path d="M420.54 63.0361H324.709C322 63.0361 319.804 65.2322 319.804 67.9412V163.772C319.804 166.481 322 168.677 324.709 168.677H420.54C423.249 168.677 425.445 166.481 425.445 163.772V67.9412C425.445 65.2322 423.249 63.0361 420.54 63.0361Z" fill="#676DFF" stroke="#0C0C0C" stroke-width="2" stroke-linecap="round" stroke-linejoin="round"/>
<path d="M411.922 105.719L397.898 117.599V149.427H351.203V117.61L337.182 105.719L347.942 92.3494C351.203 89.5111 356.17 89.0654 359.777 89.0654H390.645C397.887 89.0654 399.722 90.4275 401.602 91.9093L411.922 105.719Z" fill="#0C0C0C"/>
<path d="M410.755 103.561L396.477 115.652V148.057H348.919V115.652L334.644 103.561L345.596 89.9122C348.919 87.0209 353.978 86.5697 357.649 86.5697H389.076C396.449 86.5697 398.315 87.9624 400.218 89.4637L410.755 103.561Z" fill="#FFFBF5" stroke="#0C0C0C" stroke-width="2" stroke-linecap="round" stroke-linejoin="round"/>
<path d="M348.925 115.652V104.193" stroke="#0C0C0C" stroke-width="2" stroke-linecap="round" stroke-linejoin="round"/>
<path d="M396.455 115.761V104.302" stroke="#0C0C0C" stroke-width="2" stroke-linecap="round" stroke-linejoin="round"/>
<path d="M372.695 97.1318V148.049" stroke="#0C0C0C" stroke-width="2" stroke-linecap="round" stroke-linejoin="round"/>
<path d="M387.461 86.5809H376.756C376.656 86.5801 376.558 86.6108 376.476 86.6688C376.394 86.7268 376.332 86.8091 376.3 86.904L372.695 97.1319L368.902 86.9875C368.857 86.8679 368.777 86.7649 368.671 86.6922C368.566 86.6195 368.442 86.5807 368.314 86.5809H357.763L362.891 82.2162C364.038 81.2385 365.495 80.7013 367.002 80.7009H378.222C379.729 80.7012 381.188 81.2383 382.336 82.2162L387.461 86.5809Z" fill="#FFFBF5" stroke="#0C0C0C" stroke-width="2" stroke-linecap="round" stroke-linejoin="round"/>
<path d="M365.097 82.2468L368.748 86.5809L364.57 92.5444L357.757 86.5809L363.094 82.0769C363.237 81.9561 363.401 81.8647 363.579 81.8079C363.757 81.751 363.945 81.7299 364.131 81.7457C364.317 81.7615 364.498 81.8139 364.664 81.8999C364.83 81.9859 364.977 82.1038 365.097 82.2468Z" fill="#FFFBF5" stroke="#0C0C0C" stroke-width="2" stroke-linecap="round" stroke-linejoin="round"/>
<path d="M380.13 82.2468L376.475 86.5808L380.653 92.5443L387.466 86.5808L382.129 82.0769C381.987 81.9565 381.822 81.8655 381.645 81.8089C381.467 81.7523 381.28 81.7313 381.094 81.747C380.908 81.7628 380.728 81.8151 380.562 81.9008C380.397 81.9866 380.25 82.1041 380.13 82.2468Z" fill="#FFFBF5" stroke="#0C0C0C" stroke-width="2" stroke-linecap="round" stroke-linejoin="round"/>
<path d="M379.837 105.112H389.307V114.095C389.307 114.563 389.122 115.011 388.791 115.342C388.46 115.672 388.012 115.858 387.544 115.858H381.6C381.133 115.858 380.684 115.672 380.354 115.342C380.023 115.011 379.837 114.563 379.837 114.095V105.112Z" fill="#FFFBF5" stroke="#0C0C0C" stroke-width="2" stroke-linecap="round" stroke-linejoin="round"/>
<path d="M369.788 102.018C370.423 102.018 370.938 101.502 370.938 100.867C370.938 100.232 370.423 99.7168 369.788 99.7168C369.152 99.7168 368.637 100.232 368.637 100.867C368.637 101.502 369.152 102.018 369.788 102.018Z" fill="#0C0C0C"/>
<path d="M369.788 110.822C370.423 110.822 370.938 110.307 370.938 109.672C370.938 109.036 370.423 108.521 369.788 108.521C369.152 108.521 368.637 109.036 368.637 109.672C368.637 110.307 369.152 110.822 369.788 110.822Z" fill="#0C0C0C"/>
<path d="M369.788 119.627C370.423 119.627 370.938 119.112 370.938 118.476C370.938 117.841 370.423 117.326 369.788 117.326C369.152 117.326 368.637 117.841 368.637 118.476C368.637 119.112 369.152 119.627 369.788 119.627Z" fill="#0C0C0C"/>
<path d="M369.788 128.431C370.423 128.431 370.938 127.916 370.938 127.281C370.938 126.646 370.423 126.13 369.788 126.13C369.152 126.13 368.637 126.646 368.637 127.281C368.637 127.916 369.152 128.431 369.788 128.431Z" fill="#0C0C0C"/>
<path d="M369.788 137.236C370.423 137.236 370.938 136.721 370.938 136.085C370.938 135.45 370.423 134.935 369.788 134.935C369.152 134.935 368.637 135.45 368.637 136.085C368.637 136.721 369.152 137.236 369.788 137.236Z" fill="#0C0C0C"/>
<path d="M406.304 76.6621C412.626 76.6621 417.752 71.5367 417.752 65.2142C417.752 58.8917 412.626 53.7662 406.304 53.7662C399.981 53.7662 394.856 58.8917 394.856 65.2142C394.856 71.5367 399.981 76.6621 406.304 76.6621Z" fill="#FFFBF5" stroke="#0C0C0C" stroke-width="2" stroke-linecap="round" stroke-linejoin="round"/>
<path d="M403.354 60.0946C401.886 60.0946 400.897 61.231 400.897 62.919C400.897 64.7156 401.8 65.7907 403.31 65.7907C404.819 65.7907 405.744 64.6766 405.744 62.8605C405.741 61.153 404.83 60.0946 403.354 60.0946ZM403.335 64.7211C402.326 64.7211 402.176 63.5819 402.176 62.9023C402.176 61.7881 402.588 61.1642 403.335 61.1642C404.284 61.1642 404.482 62.0945 404.482 62.8772C404.482 64.1028 404.095 64.7211 403.335 64.7211Z" fill="#0C0C0C"/>
<path d="M409.605 64.153C408.162 64.153 407.151 65.3145 407.151 66.9745C407.151 68.7461 408.075 69.8463 409.563 69.8463C411.05 69.8463 411.997 68.7321 411.997 66.916C411.997 65.2114 411.081 64.153 409.605 64.153ZM409.588 68.7767C408.58 68.7767 408.429 67.6402 408.429 66.9606C408.429 65.8465 408.85 65.2197 409.588 65.2197C410.535 65.2197 410.733 66.1529 410.733 66.9328C410.733 68.1165 410.315 68.7767 409.588 68.7767Z" fill="#0C0C0C"/>
<path d="M410.29 60.2228L403.894 69.7432H402.619L409.008 60.2228H410.29Z" fill="#0C0C0C"/>
<path d="M581.295 107.081H525.059C522.35 107.081 520.154 109.277 520.154 111.986V168.223C520.154 170.932 522.35 173.128 525.059 173.128H581.295C584.004 173.128 586.201 170.932 586.201 168.223V111.986C586.201 109.277 584.004 107.081 581.295 107.081Z" fill="#0C0C0C"/>
<path d="M578.549 104.302H522.312C519.603 104.302 517.407 106.498 517.407 109.207V165.443C517.407 168.152 519.603 170.349 522.312 170.349H578.549C581.258 170.349 583.454 168.152 583.454 165.443V109.207C583.454 106.498 581.258 104.302 578.549 104.302Z" fill="#676DFF" stroke="#0C0C0C" stroke-width="2" stroke-linecap="round" stroke-linejoin="round"/>
<path d="M568.555 129.699H538.44C537.418 129.699 536.59 130.527 536.59 131.548V157.75C536.59 158.772 537.418 159.6 538.44 159.6H568.555C569.577 159.6 570.405 158.772 570.405 157.75V131.548C570.405 130.527 569.577 129.699 568.555 129.699Z" fill="white"/>
<path d="M570.441 130.381V156.494C570.441 156.902 570.361 157.305 570.205 157.682C570.05 158.059 569.821 158.401 569.533 158.689C569.245 158.977 568.902 159.206 568.526 159.361C568.149 159.517 567.745 159.597 567.338 159.597H559.817C560.64 159.597 561.43 159.27 562.011 158.688C562.593 158.106 562.92 157.317 562.92 156.494V130.381C562.921 129.973 562.841 129.569 562.685 129.192C562.529 128.815 562.301 128.473 562.013 128.184C561.725 127.896 561.382 127.666 561.006 127.51C560.629 127.354 560.225 127.273 559.817 127.273H567.338C567.746 127.273 568.15 127.354 568.526 127.51C568.903 127.666 569.245 127.896 569.533 128.184C569.821 128.473 570.05 128.815 570.206 129.192C570.361 129.569 570.441 129.973 570.441 130.381Z" stroke="#0C0C0C" stroke-width="2" stroke-linecap="round" stroke-linejoin="round"/>
<path d="M562.929 130.381V156.494C562.929 157.317 562.602 158.106 562.02 158.688C561.438 159.27 560.649 159.597 559.826 159.597H536.15C535.742 159.599 535.337 159.52 534.959 159.365C534.58 159.21 534.237 158.981 533.947 158.693C533.658 158.405 533.428 158.062 533.271 157.685C533.114 157.307 533.033 156.903 533.033 156.494V130.381C533.033 129.557 533.361 128.767 533.943 128.184C534.525 127.601 535.315 127.273 536.139 127.273H559.815C560.224 127.271 560.629 127.351 561.007 127.507C561.385 127.663 561.728 127.891 562.017 128.18C562.307 128.469 562.536 128.812 562.693 129.19C562.849 129.567 562.929 129.972 562.929 130.381Z" stroke="#0C0C0C" stroke-width="2" stroke-linecap="round" stroke-linejoin="round"/>
<path d="M548.464 161.048V124.938" stroke="#0C0C0C" stroke-width="2" stroke-linecap="round" stroke-linejoin="round"/>
<path d="M531.741 143.358H571.569" stroke="#0C0C0C" stroke-width="2" stroke-linecap="round" stroke-linejoin="round"/>
<path d="M553.305 116.903H555.681C556.966 116.903 558.198 117.413 559.106 118.321C560.015 119.23 560.525 120.462 560.525 121.746V122.432C560.525 123.716 560.015 124.948 559.106 125.857C558.198 126.765 556.966 127.275 555.681 127.275H548.464V121.744C548.465 120.46 548.975 119.229 549.883 118.321C550.791 117.414 552.021 116.903 553.305 116.903Z" stroke="#0C0C0C" stroke-width="2" stroke-linecap="round" stroke-linejoin="round"/>
<path d="M548.409 127.27H541.816C540.801 127.27 539.829 126.867 539.112 126.15C538.394 125.432 537.991 124.46 537.991 123.445V122.902C537.991 121.888 538.394 120.915 539.112 120.198C539.829 119.481 540.801 119.078 541.816 119.078H544.584C545.599 119.078 546.571 119.481 547.289 120.198C548.006 120.915 548.409 121.888 548.409 122.902V127.27Z" stroke="#0C0C0C" stroke-width="2" stroke-linecap="round" stroke-linejoin="round"/>
<path d="M554.494 133.893L548.408 127.275L544.684 130.999" stroke="#0C0C0C" stroke-width="2" stroke-linecap="round" stroke-linejoin="round"/>
<path d="M71.5789 117.83C77.5153 117.83 82.3277 113.018 82.3277 107.081C82.3277 101.145 77.5153 96.3325 71.5789 96.3325C65.6425 96.3325 60.8301 101.145 60.8301 107.081C60.8301 113.018 65.6425 117.83 71.5789 117.83Z" stroke="#0C0C0C" stroke-width="2" stroke-linecap="round" stroke-linejoin="round"/>
<path d="M98.3492 64.3117C100.231 64.3117 101.756 62.7865 101.756 60.9052C101.756 59.0238 100.231 57.4987 98.3492 57.4987C96.4678 57.4987 94.9426 59.0238 94.9426 60.9052C94.9426 62.7865 96.4678 64.3117 98.3492 64.3117Z" stroke="#0C0C0C" stroke-width="2" stroke-linecap="round" stroke-linejoin="round"/>
<path d="M467.081 348.638H468.39C470.835 348.638 473.18 349.609 474.909 351.338C476.638 353.067 477.61 355.412 477.61 357.858V366.771H457.864V357.858C457.864 355.413 458.835 353.068 460.563 351.339C462.292 349.61 464.636 348.639 467.081 348.638Z" stroke="#0C0C0C" stroke-width="2" stroke-linecap="round" stroke-linejoin="round"/>
<path d="M473.741 348.638H475.05C477.495 348.638 479.84 349.609 481.569 351.338C483.298 353.067 484.269 355.412 484.269 357.858V366.771H464.513V357.858C464.513 356.646 464.751 355.447 465.215 354.327C465.679 353.208 466.359 352.192 467.216 351.335C468.073 350.479 469.09 349.8 470.21 349.337C471.329 348.875 472.529 348.637 473.741 348.638Z" stroke="#0C0C0C" stroke-width="2" stroke-linecap="round" stroke-linejoin="round"/>
<path d="M513.942 462.02H487.495L498.706 366.754H502.731L513.942 462.02Z" fill="#0C0C0C"/>
<path d="M498.706 366.754L487.495 462.02H426.036L437.25 366.754H498.706Z" stroke="#0C0C0C" stroke-width="2" stroke-linecap="round" stroke-linejoin="round"/>
<path d="M490.862 395.839H481.86L483.008 382.728C483.133 381.51 483.7 380.379 484.601 379.55C485.503 378.72 486.677 378.25 487.902 378.227C488.478 378.216 489.05 378.329 489.58 378.557C490.11 378.785 490.585 379.123 490.973 379.549C491.362 379.975 491.656 380.478 491.834 381.027C492.013 381.575 492.073 382.155 492.01 382.728L490.862 395.839Z" fill="white"/>
<path d="M490.071 395.048H481.069L482.217 381.937C482.341 380.718 482.908 379.587 483.809 378.757C484.711 377.927 485.885 377.456 487.111 377.433C487.687 377.423 488.26 377.536 488.789 377.764C489.319 377.992 489.794 378.331 490.183 378.757C490.571 379.183 490.865 379.687 491.043 380.235C491.222 380.784 491.282 381.364 491.219 381.937L490.071 395.048Z" stroke="#0C0C0C" stroke-width="2" stroke-linecap="round" stroke-linejoin="round"/>
<path d="M487.435 381.742C487.84 381.354 487.879 380.74 487.524 380.368C487.169 379.997 486.553 380.01 486.148 380.398C485.744 380.785 485.704 381.4 486.059 381.771C486.415 382.142 487.031 382.129 487.435 381.742Z" stroke="#0C0C0C" stroke-width="2" stroke-linecap="round" stroke-linejoin="round"/>
<path d="M486.823 380.96L488.105 366.077C488.148 365.58 488.376 365.117 488.744 364.78C489.111 364.443 489.592 364.256 490.091 364.256C490.62 364.256 491.127 364.466 491.501 364.84C491.875 365.214 492.085 365.721 492.085 366.25" stroke="#0C0C0C" stroke-width="2" stroke-linecap="round" stroke-linejoin="round"/>
<path d="M486.239 390.31C486.468 390.274 486.681 390.168 486.849 390.006C486.993 389.866 487.082 389.678 487.099 389.477C487.114 389.387 487.107 389.294 487.08 389.207C487.053 389.119 487.006 389.039 486.943 388.973C486.781 388.834 486.591 388.731 486.386 388.672L485.924 388.536C485.644 388.46 485.372 388.357 485.113 388.227C484.903 388.116 484.728 387.948 484.609 387.742C484.481 387.493 484.433 387.211 484.473 386.934C484.497 386.531 484.677 386.152 484.974 385.879C485.317 385.586 485.749 385.419 486.2 385.402H486.673C486.904 385.42 487.131 385.475 487.344 385.567C487.53 385.649 487.691 385.777 487.812 385.94C487.907 386.058 487.983 386.191 488.038 386.333C488.083 386.451 488.103 386.577 488.096 386.703C488.082 386.828 488.023 386.944 487.93 387.028C487.836 387.113 487.715 387.161 487.589 387.163C487.535 387.166 487.48 387.158 487.428 387.139C487.376 387.121 487.328 387.093 487.287 387.056C487.246 387.019 487.213 386.975 487.19 386.925C487.166 386.876 487.152 386.822 487.149 386.767C487.129 386.622 487.067 386.487 486.971 386.376C486.875 386.266 486.75 386.186 486.609 386.146L486.136 386.129C485.95 386.178 485.776 386.262 485.623 386.377C485.557 386.435 485.504 386.506 485.467 386.586C485.429 386.665 485.409 386.752 485.406 386.839C485.392 386.919 485.396 387 485.418 387.078C485.439 387.155 485.478 387.227 485.531 387.288C485.671 387.411 485.834 387.506 486.01 387.566L486.473 387.703C486.773 387.789 487.013 387.864 487.191 387.934C487.365 388.003 487.523 388.106 487.656 388.238C487.798 388.375 487.905 388.544 487.968 388.731C488.037 388.932 488.062 389.146 488.041 389.357C488.014 389.642 487.918 389.915 487.762 390.154C487.602 390.407 487.38 390.616 487.119 390.761C486.828 390.924 486.504 391.019 486.172 391.04H485.695C485.437 391.014 485.184 390.944 484.949 390.834C484.754 390.738 484.58 390.606 484.436 390.444C484.313 390.301 484.218 390.135 484.158 389.956C484.104 389.797 484.083 389.628 484.097 389.461C484.108 389.335 484.168 389.219 484.264 389.137C484.361 389.044 484.491 388.992 484.626 388.993C484.725 388.989 484.823 389.017 484.904 389.073C484.978 389.126 485.028 389.205 485.044 389.293C485.08 389.452 485.126 389.608 485.18 389.761C485.222 389.875 485.291 389.977 485.381 390.059C485.49 390.159 485.622 390.229 485.765 390.265L486.239 390.31Z" fill="#0C0C0C"/>
<path d="M485.882 391.602H485.863C485.837 391.6 485.812 391.593 485.788 391.581C485.765 391.569 485.745 391.553 485.728 391.533C485.712 391.513 485.699 391.49 485.692 391.465C485.684 391.44 485.682 391.414 485.684 391.388L486.241 384.909C486.246 384.857 486.272 384.809 486.312 384.776C486.352 384.742 486.404 384.726 486.456 384.731C486.508 384.736 486.556 384.761 486.59 384.801C486.624 384.841 486.641 384.893 486.637 384.945L486.08 391.421C486.076 391.471 486.053 391.517 486.016 391.551C485.98 391.584 485.932 391.603 485.882 391.602Z" fill="#0C0C0C"/>
<path d="M444.77 379.909H445.72C447.493 379.909 449.193 380.614 450.447 381.867C451.7 383.121 452.405 384.821 452.405 386.594V393.051H438.079V386.597C438.079 385.719 438.252 384.849 438.588 384.037C438.924 383.225 439.417 382.488 440.038 381.866C440.66 381.245 441.397 380.753 442.209 380.417C443.021 380.081 443.891 379.909 444.77 379.909Z" stroke="#0C0C0C" stroke-width="2" stroke-linecap="round" stroke-linejoin="round"/>
<path d="M449.603 379.909H450.553C452.325 379.909 454.026 380.614 455.279 381.867C456.533 383.121 457.237 384.821 457.237 386.594V393.051H442.909V386.597C442.909 384.824 443.614 383.124 444.867 381.87C446.121 380.617 447.821 379.912 449.594 379.912L449.603 379.909Z" stroke="#0C0C0C" stroke-width="2" stroke-linecap="round" stroke-linejoin="round"/>
<path d="M478.771 462.179H459.583L467.719 393.057H470.638L478.771 462.179Z" fill="#FFFBF5" stroke="#0C0C0C" stroke-width="2" stroke-linecap="round" stroke-linejoin="round"/>
<path d="M467.719 393.057L459.583 462.179H414.989L423.125 393.057H467.719Z" fill="#FFFBF5" stroke="#0C0C0C" stroke-width="2" stroke-linecap="round" stroke-linejoin="round"/>
<path d="M161.692 238.273H82.7984C79.3664 238.273 76.5842 241.055 76.5842 244.487V333.266C76.5842 336.698 79.3664 339.48 82.7984 339.48H161.692C165.124 339.48 167.906 336.698 167.906 333.266V244.487C167.906 241.055 165.124 238.273 161.692 238.273Z" fill="#676DFF" stroke="#0C0C0C" stroke-width="2" stroke-linecap="round" stroke-linejoin="round"/>
<path d="M153.386 247.846C152.389 246.85 151.119 246.171 149.737 245.897C148.354 245.622 146.922 245.763 145.619 246.302C144.317 246.841 143.204 247.755 142.421 248.926C141.638 250.098 141.22 251.476 141.219 252.885V273.644H155.472V252.885C155.473 251.949 155.289 251.022 154.931 250.157C154.573 249.293 154.048 248.507 153.386 247.846ZM148.347 253.097C148.043 253.097 147.745 253.006 147.493 252.837C147.24 252.668 147.043 252.428 146.926 252.147C146.81 251.866 146.779 251.557 146.839 251.259C146.898 250.961 147.045 250.687 147.26 250.472C147.475 250.257 147.749 250.11 148.047 250.051C148.345 249.992 148.654 250.022 148.935 250.139C149.216 250.255 149.456 250.452 149.625 250.705C149.794 250.958 149.884 251.255 149.884 251.559C149.884 251.965 149.723 252.355 149.436 252.642C149.15 252.93 148.761 253.094 148.355 253.097H148.347Z" stroke="#0C0C0C" stroke-width="2" stroke-linecap="round" stroke-linejoin="round"/>
<path d="M152.427 246.52C151.431 245.523 150.161 244.843 148.778 244.567C147.396 244.292 145.962 244.433 144.659 244.972C143.357 245.512 142.244 246.426 141.461 247.598C140.677 248.771 140.26 250.149 140.261 251.559V272.319H154.516V251.559C154.518 250.623 154.334 249.696 153.975 248.831C153.617 247.966 153.091 247.181 152.427 246.52ZM147.389 251.771C147.084 251.771 146.786 251.681 146.532 251.513C146.278 251.344 146.08 251.103 145.963 250.822C145.846 250.54 145.816 250.231 145.875 249.932C145.934 249.633 146.08 249.358 146.296 249.142C146.511 248.927 146.785 248.78 147.084 248.72C147.383 248.66 147.693 248.691 147.975 248.807C148.256 248.924 148.497 249.121 148.666 249.374C148.836 249.628 148.926 249.926 148.926 250.23C148.926 250.638 148.764 251.03 148.476 251.319C148.188 251.607 147.797 251.77 147.389 251.771Z" fill="#FFFBF5" stroke="#0C0C0C" stroke-width="2" stroke-linecap="round" stroke-linejoin="round"/>
<path d="M147.388 249.651V237.27C147.388 236.325 147.764 235.419 148.432 234.751C149.1 234.083 150.006 233.708 150.951 233.708C151.419 233.707 151.883 233.799 152.315 233.978C152.748 234.157 153.141 234.419 153.472 234.75C153.803 235.081 154.066 235.474 154.245 235.906C154.424 236.338 154.516 236.802 154.516 237.27V237.627" stroke="#0C0C0C" stroke-width="2" stroke-linecap="round" stroke-linejoin="round"/>
<path d="M150.285 262.311C150.16 262.013 149.969 261.746 149.728 261.531C149.502 261.323 149.238 261.161 148.951 261.052C148.661 260.942 148.272 260.819 147.781 260.684H147.748V258.23H147.781C148.012 258.295 148.221 258.42 148.386 258.593C148.552 258.766 148.668 258.98 148.723 259.213C148.749 259.392 148.841 259.554 148.979 259.67C149.118 259.786 149.294 259.846 149.475 259.84C149.572 259.842 149.669 259.823 149.759 259.786C149.849 259.75 149.93 259.695 149.998 259.626C150.068 259.56 150.123 259.48 150.16 259.392C150.198 259.304 150.217 259.209 150.216 259.113C150.209 258.909 150.159 258.709 150.071 258.525C149.964 258.299 149.825 258.09 149.659 257.904C149.444 257.649 149.173 257.447 148.868 257.314C148.521 257.172 148.155 257.084 147.781 257.052H147.748V256.303C147.748 256.207 147.71 256.114 147.642 256.047C147.574 255.979 147.482 255.94 147.386 255.94C147.29 255.94 147.198 255.979 147.13 256.047C147.062 256.114 147.024 256.207 147.024 256.303V257.055C146.331 257.074 145.668 257.342 145.157 257.809C144.802 258.206 144.58 258.704 144.523 259.233C144.466 259.762 144.577 260.296 144.84 260.759C145.055 261.087 145.353 261.351 145.703 261.525C146.127 261.729 146.569 261.892 147.024 262.013V264.765C146.793 264.705 146.578 264.594 146.394 264.441C146.243 264.311 146.121 264.151 146.035 263.971C145.957 263.798 145.865 263.55 145.756 263.227C145.716 263.085 145.626 262.961 145.503 262.879C145.369 262.792 145.211 262.748 145.052 262.753C144.948 262.75 144.845 262.768 144.749 262.808C144.653 262.847 144.566 262.907 144.495 262.982C144.425 263.048 144.37 263.128 144.331 263.216C144.293 263.304 144.273 263.398 144.272 263.494C144.275 263.763 144.331 264.029 144.436 264.277C144.559 264.563 144.733 264.824 144.949 265.049C145.197 265.305 145.489 265.515 145.812 265.667C146.194 265.839 146.601 265.948 147.018 265.99V266.547C147.018 266.643 147.056 266.735 147.124 266.803C147.192 266.871 147.284 266.909 147.38 266.909C147.476 266.909 147.568 266.871 147.636 266.803C147.704 266.735 147.742 266.643 147.742 266.547V265.968H147.776C148.291 265.935 148.791 265.783 149.238 265.525C149.631 265.294 149.953 264.961 150.171 264.561C150.381 264.174 150.489 263.74 150.486 263.299C150.488 262.96 150.42 262.623 150.285 262.311ZM146.227 260.029C146.057 259.827 145.965 259.57 145.968 259.306C145.972 259.041 146.071 258.787 146.247 258.589C146.473 258.407 146.735 258.274 147.015 258.199V260.464C146.727 260.372 146.459 260.225 146.227 260.029ZM148.698 264.336C148.45 264.593 148.126 264.762 147.773 264.817H147.74V262.216H147.773C148.113 262.31 148.43 262.472 148.706 262.692C148.814 262.794 148.898 262.918 148.953 263.055C149.008 263.193 149.032 263.341 149.024 263.489C149.029 263.803 148.912 264.106 148.698 264.336Z" fill="#0C0C0C"/>
<path d="M68.097 272.394H55.8023C55.8023 272.394 43.9923 261.935 38.831 255.765C38.1262 254.916 37.4812 254.019 36.9007 253.08C36.3577 252.197 36.0591 251.186 36.0355 250.149C36.0118 249.113 36.264 248.089 36.7661 247.182C37.2683 246.275 38.0024 245.518 38.8933 244.988C39.7842 244.459 40.7999 244.175 41.8364 244.167H41.9701C54.4486 244.153 68.1053 266.77 68.097 272.394Z" fill="#0C0C0C"/>
<path d="M74.8795 272.394H66.2281C66.2281 272.394 57.9194 265.035 54.2872 260.695C53.7917 260.098 53.3384 259.467 52.9307 258.807C52.5469 258.186 52.3353 257.473 52.3178 256.744C52.3003 256.014 52.4775 255.292 52.8312 254.654C53.1849 254.015 53.7023 253.482 54.3303 253.109C54.9582 252.737 55.674 252.538 56.4041 252.534H56.496C65.2755 252.534 74.8823 268.438 74.8795 272.394Z" fill="#FFFBF5"/>
<path d="M49.1619 232.354C69.8573 232.137 77.0548 261.709 76.6063 272.394H68.097C68.097 266.77 54.4486 244.164 41.9701 244.164C37.5441 244.164 34.9342 248.108 36.2684 251.684C36.2684 251.673 27.6922 232.579 49.1619 232.354Z" fill="#676DFF" stroke="#0C0C0C" stroke-width="2" stroke-linecap="round" stroke-linejoin="round"/>
<path d="M112.44 268.199C113.9 264.706 111.936 260.678 108.301 259.584C91.4468 254.5 74.2137 272.396 74.2137 272.396H69.9966C69.9966 272.396 78.8402 246.328 104.909 250.203C110.616 251.049 118.108 256.545 112.44 268.199Z" fill="#676DFF" stroke="#0C0C0C" stroke-width="2" stroke-linecap="round" stroke-linejoin="round"/>
<path d="M112.44 268.257C111.658 270.09 110.699 271.803 110.017 272.394H100.435C100.435 272.394 102.728 271.617 104.945 268.257C107.638 264.177 106.39 259.13 102.703 258.787C104.604 258.806 106.495 259.076 108.326 259.589C111.97 260.687 113.933 264.765 112.44 268.257Z" fill="#0C0C0C"/>
<path d="M116.128 271.514H53.5073C45.9126 271.514 39.7559 277.67 39.7559 285.265V358.682C39.7559 366.277 45.9126 372.434 53.5073 372.434H116.128C123.723 372.434 129.88 366.277 129.88 358.682V285.265C129.88 277.67 123.723 271.514 116.128 271.514Z" fill="#0C0C0C"/>
<path d="M99.2822 271.514H39.2795C31.6848 271.514 25.5281 277.67 25.5281 285.265V358.682C25.5281 366.277 31.6848 372.434 39.2795 372.434H99.2822C106.877 372.434 113.034 366.277 113.034 358.682V285.265C113.034 277.67 106.877 271.514 99.2822 271.514Z" fill="#FFFBF5" stroke="#0C0C0C" stroke-width="2" stroke-linecap="round" stroke-linejoin="round"/>
<path d="M231.181 253.008H213.324C208.964 253.006 204.719 254.4 201.21 256.987C197.701 259.574 195.113 263.218 193.826 267.383L165.137 360.195C163.363 365.932 159.799 370.95 154.966 374.514C150.133 378.079 144.285 380.002 138.28 380.001H38.973C35.0122 380.001 31.1655 381.328 28.0476 383.771C24.9298 386.214 22.7207 389.631 21.7733 393.477L18.1523 412.724C17.6316 414.836 17.5985 417.039 18.0552 419.166C18.512 421.293 19.4467 423.288 20.7886 425.001C22.1305 426.713 23.8444 428.097 25.8005 429.049C27.7567 430.001 29.9037 430.496 32.0792 430.495H153.151" stroke="#0C0C0C" stroke-width="2" stroke-linecap="round" stroke-linejoin="round"/>
<path d="M138.369 380.001H46.2569C40.2532 380 34.4077 378.076 29.5765 374.512C24.7452 370.948 21.182 365.93 19.4086 360.195L1 285.97H188.094L165.254 360.164C163.483 365.911 159.917 370.939 155.078 374.509C150.239 378.08 144.383 380.005 138.369 380.001Z" stroke="#0C0C0C" stroke-width="2" stroke-linecap="round" stroke-linejoin="round"/>
<path d="M77.1441 380.001L48.0703 285.97" stroke="#0C0C0C" stroke-width="2" stroke-linecap="round" stroke-linejoin="round"/>
<path d="M101.692 380.001L130.765 285.97" stroke="#0C0C0C" stroke-width="2" stroke-linecap="round" stroke-linejoin="round"/>
<path d="M174.496 329.923H12.3113" stroke="#0C0C0C" stroke-width="2" stroke-linecap="round" stroke-linejoin="round"/>
<path d="M139.536 467.719C147.38 467.719 153.739 461.36 153.739 453.516C153.739 445.672 147.38 439.313 139.536 439.313C131.693 439.313 125.334 445.672 125.334 453.516C125.334 461.36 131.693 467.719 139.536 467.719Z" fill="#676DFF"/>
<path d="M43.1094 467.719C50.9533 467.719 57.3121 461.36 57.3121 453.516C57.3121 445.672 50.9533 439.313 43.1094 439.313C35.2655 439.313 28.9067 445.672 28.9067 453.516C28.9067 461.36 35.2655 467.719 43.1094 467.719Z" fill="#676DFF"/>
<path d="M136.587 465.22C144.431 465.22 150.79 458.862 150.79 451.018C150.79 443.174 144.431 436.815 136.587 436.815C128.743 436.815 122.384 443.174 122.384 451.018C122.384 458.862 128.743 465.22 136.587 465.22Z" stroke="#0C0C0C" stroke-width="2" stroke-linecap="round" stroke-linejoin="round"/>
<path d="M40.1568 465.22C48.0007 465.22 54.3594 458.862 54.3594 451.018C54.3594 443.174 48.0007 436.815 40.1568 436.815C32.3129 436.815 25.9541 443.174 25.9541 451.018C25.9541 458.862 32.3129 465.22 40.1568 465.22Z" stroke="#0C0C0C" stroke-width="2" stroke-linecap="round" stroke-linejoin="round"/>
<path d="M150.993 343.911H136.684C134.455 343.911 132.648 345.718 132.648 347.947V368.395C132.648 370.624 134.455 372.431 136.684 372.431H150.993C153.222 372.431 155.029 370.624 155.029 368.395V347.947C155.029 345.718 153.222 343.911 150.993 343.911Z" fill="#FA5542" stroke="#0C0C0C" stroke-width="2" stroke-linecap="round" stroke-linejoin="round"/>
<path d="M612.414 209.65H566.617V219.747H612.414V209.65Z" fill="#0C0C0C"/>
<path d="M606.391 452.547C607.96 456.638 609.263 462.725 603.77 462.725H574.07C574.07 462.725 573.983 458.198 580.919 457.594C592.659 456.572 596.353 447.266 596.517 442.862C596.854 419.136 587.604 346.741 586.064 332.739C596.074 332.431 606.039 331.244 615.842 329.193C610.809 346.237 621.644 360.22 622.488 377.355C623.324 394.444 609.706 432.322 605.762 445.28C605.436 447.592 605.687 450.7 606.391 452.547Z" fill="#FCBE9F" stroke="#070707" stroke-width="2" stroke-linecap="round" stroke-linejoin="round"/>
<path d="M606.391 452.547C606.391 452.547 610.934 462.725 604.33 462.725H573.616C573.616 462.725 572.382 458.875 580.356 457.594C581.471 457.419 584.64 456.808 584.64 456.808C584.64 456.808 583.654 459.655 590.676 459.346C597.698 459.037 600.86 453.057 606.391 452.547Z" fill="#F46F40" stroke="black" stroke-width="2" stroke-linecap="round" stroke-linejoin="round"/>
<path d="M614.984 332.82C605.724 335.413 596.235 337.103 586.649 337.867L586.055 332.739C596.065 332.43 606.029 331.244 615.831 329.193L614.984 332.82Z" fill="#1C0E0C"/>
<path d="M526.543 322.979C536.422 326.813 546.699 329.531 557.182 331.082L548.102 345.925C548.102 348.864 561.032 362.47 564.589 374.614C568.884 389.31 564.814 430.227 566.171 436.784C567.02 440.881 562.761 449.407 558.597 453.354C556.09 455.725 552.909 454.842 552.909 454.842C552.909 454.842 559.642 441.38 556.45 430.907C544.684 392.268 521.632 348.181 521.632 342.053C521.632 338.744 523.329 332.477 525.852 324.993L526.543 322.979Z" fill="#FCBE9F" stroke="#070707" stroke-width="2" stroke-linecap="round" stroke-linejoin="round"/>
<path d="M565.706 437.483C567.444 436.545 573.391 441.801 573.087 444.725L558.706 462.51H543.966C543.966 462.51 542.451 456.382 552.898 454.873C563.346 453.363 558.973 441.127 565.706 437.483Z" fill="#F46F40" stroke="black" stroke-width="2" stroke-linecap="round" stroke-linejoin="round"/>
<path d="M526.543 322.979C536.423 326.813 546.699 329.531 557.182 331.082L553.809 336.627C544.414 334.639 534.913 330.519 525.847 325.029L526.543 322.979Z" fill="#1C0E0C"/>
<path d="M627.179 326.263C627.179 326.263 576.554 343.443 524.562 322.196C524.562 322.196 562.541 237.649 565.703 231.321C568.864 224.992 568.647 214.82 568.647 214.82C568.647 214.82 567.059 198.553 562.313 193.127C557.567 187.701 554.856 181.599 557.341 173.908C559.825 166.218 562.758 151.068 562.758 151.068L573.165 147.675L609.859 146.996C609.859 146.996 614.399 152.288 613.422 162.235C612.586 170.869 601.751 195.191 611.143 214.812C615.436 221.817 630.552 234.443 632.379 256.525C634.744 285.02 627.179 326.263 627.179 326.263Z" fill="#F46F40" stroke="black" stroke-width="2" stroke-linecap="round" stroke-linejoin="round"/>
<path d="M570.293 159.477C570.095 151.739 564.048 147.143 557.934 154.792C553.606 160.201 542.442 179.287 536.058 191.501C529.774 181.972 515.833 165.46 508.079 158.193C508.34 154.984 506.792 146.11 505.85 145.447C504.811 144.715 499.912 137.548 499.912 137.548C499.912 137.548 498.107 138.517 499.778 141.484C501.728 144.926 501.296 146.018 501.296 146.018C501.296 146.018 499.107 146.377 498.842 147.823C498.578 149.269 496.87 148.252 496.088 150.447C495.631 151.731 494.586 152.23 494.879 153.511C495.157 154.711 501.11 159.717 504.176 160.583C508.418 173.298 521.607 202.408 534.011 210.113C536.687 211.344 541.163 209.965 546.899 203.149C570.808 174.758 570.463 166.012 570.293 159.477Z" fill="#FCBE9F" stroke="#070707" stroke-width="2" stroke-linecap="round" stroke-linejoin="round"/>
<path d="M598.233 118.496C598.008 124.373 597.144 133.473 611.127 149.241C618.625 157.694 595.807 160.137 583.588 153.748C575.184 149.358 573.168 147.684 573.168 147.684C573.168 147.684 581.067 146.979 584.142 139.049C586.265 133.576 584.156 127.351 583.092 118.49L598.233 118.496Z" fill="#FCBE9F" stroke="#070707" stroke-width="2" stroke-linecap="round" stroke-linejoin="round"/>
<path d="M594.634 119.646C594.715 120.398 593.167 134.03 584.927 136.528C585.724 132.183 583.76 124.83 583.32 119.638L594.634 119.646Z" fill="#1C0E0C"/>
<path d="M606.169 120.39C608.052 129.439 634.805 126.963 636.596 149.179" stroke="#070707" stroke-width="2" stroke-linecap="round" stroke-linejoin="round"/>
<path d="M608.113 165.438C598.211 160.903 584.401 147.405 598.041 126.699C596.478 126.117 594.832 125.028 594.322 123.042C593.275 118.916 579.139 114.064 578.493 105.413C578.276 102.513 580.465 95.5164 595.317 96.3214C610.102 97.1263 611.444 114.9 606.737 120.253C606.728 120.26 606.721 120.269 606.715 120.278C608.795 130.37 637.137 130.426 633.078 155.299C631.947 162.246 621.33 171.488 608.113 165.438Z" fill="#1C0E0C"/>
<path d="M593.693 122.972C593.657 123.721 592.25 128.607 582.301 130.941C580.496 131.367 575.736 131.498 575.616 130.384C575.482 129.075 574.68 123.905 574.605 121.139C574.582 120.287 571.778 118.376 572.29 117.758C573.864 115.858 576.646 113.677 576.708 112.894C577.173 107.012 579.379 103.733 581.543 103.85C582.78 103.917 581.209 114.83 593.696 118.398C593.696 118.398 597.244 116.557 597.774 118.501C598.303 120.446 593.693 122.972 593.693 122.972Z" fill="#FCBE9F" stroke="#070707" stroke-width="2" stroke-linecap="round" stroke-linejoin="round"/>
<path d="M301.685 450.574C301.685 450.574 297.072 460.164 300.239 463.632H340.923C340.923 463.632 340.697 456.917 330.895 455.858C322.102 454.908 316.745 450.566 316.745 450.566L301.685 450.574Z" fill="#1C0E0C"/>
<path d="M341.385 463.632H299.612C299.306 463.632 299.058 463.88 299.058 464.187V465.49C299.058 465.796 299.306 466.044 299.612 466.044H341.385C341.691 466.044 341.939 465.796 341.939 465.49V464.187C341.939 463.88 341.691 463.632 341.385 463.632Z" fill="#1C0E0C"/>
<path d="M319.394 455.538L320.762 452.454C320.841 452.274 320.956 452.111 321.1 451.977C321.244 451.842 321.414 451.738 321.6 451.671C321.786 451.605 321.983 451.576 322.18 451.588C322.377 451.6 322.569 451.653 322.745 451.741C323.06 451.901 323.307 452.169 323.439 452.496C323.571 452.824 323.58 453.188 323.464 453.521L323.274 454.042" stroke="#070707" stroke-width="2" stroke-linecap="round" stroke-linejoin="round"/>
<path d="M323.413 456.972L324.736 453.811C324.806 453.653 324.907 453.511 325.033 453.394C325.159 453.276 325.308 453.186 325.471 453.128C325.633 453.069 325.805 453.045 325.977 453.056C326.15 453.066 326.318 453.112 326.472 453.19C326.747 453.329 326.962 453.563 327.078 453.849C327.193 454.135 327.2 454.453 327.098 454.744L326.984 455.181" stroke="#070707" stroke-width="2" stroke-linecap="round" stroke-linejoin="round"/>
<path d="M327.488 458.259L328.357 455.064C328.406 454.9 328.488 454.747 328.598 454.615C328.708 454.482 328.844 454.374 328.997 454.296C329.15 454.218 329.318 454.172 329.489 454.16C329.661 454.149 329.833 454.172 329.995 454.229C330.597 454.441 330.992 455.02 330.9 455.867" stroke="#070707" stroke-width="2" stroke-linecap="round" stroke-linejoin="round"/>
<path d="M229.24 450.574C229.24 450.574 224.628 460.164 227.795 463.632H266.208C266.208 463.632 265.98 456.917 256.181 455.858C247.384 454.908 242.031 450.566 242.031 450.566L229.24 450.574Z" fill="#1C0E0C"/>
<path d="M266.667 463.632H227.168C226.861 463.632 226.613 463.88 226.613 464.187V465.49C226.613 465.796 226.861 466.044 227.168 466.044H266.667C266.973 466.044 267.221 465.796 267.221 465.49V464.187C267.221 463.88 266.973 463.632 266.667 463.632Z" fill="#1C0E0C"/>
<path d="M244.665 455.538L246.033 452.455C246.113 452.274 246.228 452.112 246.373 451.977C246.517 451.843 246.687 451.739 246.873 451.672C247.059 451.606 247.256 451.577 247.453 451.589C247.65 451.601 247.843 451.653 248.019 451.742C248.334 451.901 248.58 452.169 248.712 452.497C248.844 452.824 248.852 453.188 248.735 453.521L248.545 454.042" stroke="#070707" stroke-width="2" stroke-linecap="round" stroke-linejoin="round"/>
<path d="M248.698 456.972L250.022 453.811C250.091 453.653 250.192 453.511 250.318 453.394C250.445 453.276 250.593 453.186 250.756 453.128C250.918 453.069 251.091 453.045 251.263 453.056C251.435 453.066 251.603 453.112 251.757 453.19C252.032 453.329 252.247 453.563 252.362 453.849C252.477 454.135 252.485 454.453 252.384 454.744L252.269 455.181" stroke="#070707" stroke-width="2" stroke-linecap="round" stroke-linejoin="round"/>
<path d="M252.771 458.259L253.643 455.064C253.692 454.9 253.774 454.747 253.884 454.615C253.994 454.482 254.129 454.374 254.283 454.296C254.436 454.218 254.603 454.172 254.775 454.16C254.946 454.149 255.118 454.172 255.28 454.229C255.882 454.441 256.278 455.02 256.186 455.867" stroke="#070707" stroke-width="2" stroke-linecap="round" stroke-linejoin="round"/>
<path d="M313.03 243.392C316.094 254.812 317.146 293.198 318.138 349.763C318.859 390.806 322.425 449.235 322.425 449.235C322.425 449.235 313.049 453.307 296.476 450.143C296.476 450.143 280.599 397.833 286.257 359.726C287.159 353.621 278.577 317.458 278.577 317.458C278.577 317.458 244.412 440.8 244.412 450.895C244.412 450.895 231.095 453.454 223.184 450.895C223.184 450.895 211.235 394.705 230.192 361.98C240.401 344.357 238.061 279.903 238.34 274.708C239.278 256.386 248.244 242.587 248.244 242.587L313.03 243.392Z" fill="#C5DCDD" stroke="black" stroke-width="2" stroke-linecap="round" stroke-linejoin="round"/>
<path d="M278.577 317.912C277.446 312.938 271.555 276.967 269.973 275.6C268.391 274.232 265.678 272.435 263.87 270.625" stroke="#070707" stroke-width="2" stroke-linecap="round" stroke-linejoin="round"/>
<path d="M314.102 248.968C290.393 261.603 254.397 255.419 245.816 246.971C246.548 245.47 247.357 244.006 248.239 242.587L313.035 243.392C313.498 245.229 313.854 247.091 314.102 248.968Z" fill="#1C0E0C"/>
<path d="M249.665 221.73C249.478 222.953 249.213 224.163 248.871 225.351C239.52 225.201 231.253 223.833 227.284 220.023C215.736 208.937 224.415 181.833 224.958 180.192C229 182.88 234.813 185.883 243.097 188.662C246.832 203.72 250.247 217.722 249.665 221.73Z" fill="#FCBE9F" stroke="#070707" stroke-width="2" stroke-linecap="round" stroke-linejoin="round"/>
<path d="M224.97 180.186C229.011 182.874 234.824 185.877 243.108 188.657C243.969 192.13 244.813 195.542 245.595 198.793C234.454 193.815 228.805 187.88 223.931 183.821L224.97 180.186Z" fill="#1C0E0C"/>
<path d="M396.549 130.431C395.992 129.704 395.051 129.556 394.861 129.256C394.672 128.955 394.736 128.197 394.179 127.71C393.622 127.222 392.806 127.297 392.457 127.013C392.109 126.729 392.346 125.899 391.683 125.189C391.02 124.479 390.073 124.568 389.861 124.353C389.65 124.139 393.346 117.702 391.939 116.869C390.533 116.036 383.333 125.164 381.912 127.303C378.987 131.712 378.959 137.247 378.57 139.23C378.539 139.251 378.511 139.275 378.486 139.302C377.358 140.659 350.677 167.109 345.93 175.927L341.705 169.521L317.444 186.704C317.444 186.704 335.079 212.33 350.674 206.906C365.436 201.773 382.224 151.892 385.321 145.026C390.413 144.021 394.672 138.364 396.059 135.784C397.861 132.459 397.106 131.155 396.549 130.431Z" fill="#FCBE9F" stroke="#070707" stroke-width="2" stroke-linecap="round" stroke-linejoin="round"/>
<path d="M342.883 171.323C338.823 180.691 331.875 188.517 323.054 193.659C321.05 191.451 319.178 189.126 317.45 186.696L341.702 169.526L342.883 171.323Z" fill="#1C0E0C"/>
<path d="M243.097 188.657C246.832 203.72 250.247 217.722 249.665 221.73C248.445 230.139 241.688 240.498 244.855 242.899C253.732 249.671 282.385 256.704 315.339 245.128C315.339 245.128 311.119 237.172 315.681 205.4C316.355 200.703 317.244 194.166 318.146 186.977H318.166C332.97 181.774 344.443 166.315 344.443 166.315C344.443 166.315 337.246 147.202 329.302 140.762C324.288 136.695 298.314 129.409 296.192 128.172L265.372 127.763C263.316 127.935 241.3 134.913 232.251 141.578C224.014 147.645 216.293 171.855 216.293 171.855C216.293 171.855 220.547 181.08 243.097 188.657Z" fill="white" stroke="#070707" stroke-width="2" stroke-linecap="round" stroke-linejoin="round"/>
<path d="M264.45 127.952C266.909 126.807 275.497 117.975 274.143 107.31L293.242 109.482C293.242 109.482 295.15 122.735 298.314 129.425C291.611 131.119 284.716 131.936 277.803 131.857C266.408 131.712 264.45 127.952 264.45 127.952Z" fill="#FCBE9F" stroke="#070707" stroke-width="2" stroke-linecap="round" stroke-linejoin="round"/>
<path d="M295.911 122.771C293.992 122.548 289.9 121.71 287.73 119.707C284.195 116.448 279.235 109.245 279.187 107.928L293.242 109.482C293.242 109.482 294.423 116.128 295.911 122.771Z" fill="#1C0E0C"/>
<path d="M283.8 108.028C283.8 108.028 286.805 113.385 289.886 114.156C292.966 114.928 300.027 114.326 302.175 113.042C303.501 112.251 303.1 105.68 302.846 103.293C302.796 102.834 306.423 101.299 306.189 99.8979C305.941 98.4105 301.83 94.8842 301.467 92.9094C300.403 87.113 298.961 81.6397 298.487 81.4364C297.718 81.0994 285.627 81.8681 284.198 85.1688C282.769 88.4695 284.569 98.689 284.569 98.689C284.569 98.689 280.669 96.4078 279.499 99.455C277.767 103.92 283.8 108.028 283.8 108.028Z" fill="#FCBE9F" stroke="#070707" stroke-width="2" stroke-linecap="round" stroke-linejoin="round"/>
<path d="M306.403 77.7456C310.603 81.1382 304.289 95.1598 291.484 85.2049" stroke="black" stroke-width="2" stroke-linecap="round" stroke-linejoin="round"/>
<path d="M260.622 88.5724C263.09 84.1687 267.942 87.851 267.942 87.851" stroke="black" stroke-width="2" stroke-linecap="round" stroke-linejoin="round"/>
<path d="M302.512 102.524C302.512 102.524 297.777 106.376 295.105 106.702C292.434 107.028 290.217 99.0008 289.393 95.4522C287.543 87.2131 287.76 83.9207 295.417 86.7312C305.517 90.4385 307.539 77.9461 303.643 75.8431C301.161 74.5061 299.958 74.9212 296.459 76.6787C292.56 78.6508 284.301 72.1219 274.48 75.0075C265.257 77.7149 266.664 87.0237 266.664 87.0237C266.664 87.0237 263.026 86.3635 262.366 91.6808C261.845 95.8867 267.681 103.338 272.179 111.671C273.441 114.008 279.557 112.613 281.064 110.257C281.064 110.257 283.081 106.817 280.557 102.641C278.488 99.2208 282.05 96.4605 285.599 99.4437C285.078 101.836 283.95 108.298 286.086 111.632C289.281 116.618 305.748 117.362 306.158 114.591C306.567 111.819 302.512 102.524 302.512 102.524Z" fill="#1C0E0C"/>
<path d="M593.974 122.395C596.228 122.395 598.055 120.568 598.055 118.315C598.055 116.061 596.228 114.234 593.974 114.234C591.721 114.234 589.894 116.061 589.894 118.315C589.894 120.568 591.721 122.395 593.974 122.395Z" fill="#FCBE9F"/>
<path d="M592.423 120.805C592.423 120.805 591.952 119.198 592.387 117.741C592.535 117.213 592.826 116.736 593.227 116.363C593.629 115.989 594.125 115.734 594.662 115.624" stroke="#070707" stroke-width="2" stroke-linecap="round" stroke-linejoin="round"/>
<path d="M594.662 118.802L592.387 117.746" stroke="#070707" stroke-width="2" stroke-linecap="round" stroke-linejoin="round"/>
<path d="M597.005 124.785C598.053 124.785 598.902 123.936 598.902 122.888C598.902 121.841 598.053 120.991 597.005 120.991C595.957 120.991 595.108 121.841 595.108 122.888C595.108 123.936 595.957 124.785 597.005 124.785Z" fill="white" stroke="#070707" stroke-width="2" stroke-linecap="round" stroke-linejoin="round"/>
<path d="M578.905 114.616C579.418 114.616 579.833 114.007 579.833 113.256C579.833 112.506 579.418 111.897 578.905 111.897C578.393 111.897 577.978 112.506 577.978 113.256C577.978 114.007 578.393 114.616 578.905 114.616Z" fill="#1C0E0C"/>
<path d="M575.633 122.888C575.633 122.888 577.733 123.075 578.905 121.654" stroke="#070707" stroke-width="2" stroke-linecap="round" stroke-linejoin="round"/>
<path d="M287.847 107.669C286 108.181 284.026 107.939 282.357 106.995C280.689 106.052 279.464 104.484 278.952 102.637C278.44 100.79 278.682 98.8158 279.626 97.1476C280.569 95.4795 282.137 94.2545 283.984 93.7422" fill="#FCBE9F"/>
<path d="M287.847 107.669C286 108.181 284.026 107.939 282.357 106.995C280.689 106.052 279.464 104.484 278.952 102.637C278.44 100.79 278.682 98.8158 279.626 97.1476C280.569 95.4795 282.137 94.2545 283.984 93.7422" stroke="#070707" stroke-width="2" stroke-linecap="round" stroke-linejoin="round"/>
<path d="M281.513 99.8699C281.513 99.8699 284.396 97.9953 286.557 101.31L281.513 99.8699Z" fill="#FCBE9F"/>
<path d="M281.513 99.8699C281.513 99.8699 284.396 97.9953 286.557 101.31" stroke="#070707" stroke-width="2" stroke-linecap="round" stroke-linejoin="round"/>
<path d="M284.752 99.6276L283.268 102.524" stroke="#070707" stroke-width="2" stroke-linecap="round" stroke-linejoin="round"/>
<path d="M298.201 96.606C298.823 96.4845 299.179 95.626 298.996 94.6884C298.813 93.7508 298.16 93.0892 297.538 93.2107C296.916 93.3322 296.56 94.1907 296.743 95.1283C296.926 96.0659 297.579 96.7275 298.201 96.606Z" fill="#1C0E0C"/>
<path d="M296.568 89.3986L293.919 90.8298C293.429 91.0945 293.246 91.7063 293.511 92.1962C293.776 92.6862 294.387 92.8688 294.877 92.6041L297.527 91.1729C298.016 90.9082 298.199 90.2964 297.934 89.8065C297.67 89.3165 297.058 89.1339 296.568 89.3986Z" fill="#1C0E0C"/>
<path d="M235.523 160.004L243.097 188.657" stroke="#070707" stroke-width="2" stroke-linecap="round" stroke-linejoin="round"/>
<path d="M328.756 143.208C328.756 143.208 312.576 144.194 310.108 161.73" stroke="#070707" stroke-width="2" stroke-linecap="round" stroke-linejoin="round"/>
</svg>
