<svg width="52" height="52" viewBox="0 0 52 52" fill="none" xmlns="http://www.w3.org/2000/svg">
<rect opacity="0.1" width="52" height="52" rx="16" fill="#FA5542"/>
<path d="M35.9352 24.2581V30.851C35.9352 32.3603 35.3792 33.79 34.3465 34.9021V35.617C34.3465 36.8879 33.3139 38 31.9635 38H25.2912C24.0202 38 22.9082 36.9674 22.9082 35.617C22.9082 35.1404 23.3053 34.8227 23.7025 34.8227C24.0997 34.8227 24.4968 35.1404 24.4968 35.617C24.4968 36.0142 24.8146 36.4113 25.2912 36.4113H31.9635C32.3607 36.4113 32.7579 36.0936 32.7579 35.617V34.3461C32.7579 34.2666 32.8373 34.1872 32.9167 34.1078C33.7905 33.234 34.2671 32.122 34.2671 30.9305V24.3375C34.2671 24.0992 34.1877 23.9403 34.0288 23.7815C33.9494 23.702 33.6316 23.4637 33.2345 23.5432C32.9167 23.6226 32.599 24.0198 32.599 24.4169V26.3233C32.599 26.7999 32.2018 27.1177 31.8047 27.1177C31.4075 27.1177 31.0103 26.7999 31.0103 26.3233V21.9545C31.0103 21.7162 30.9309 21.5574 30.772 21.3985C30.6132 21.2396 30.4543 21.1602 30.216 21.1602C29.8188 21.1602 29.4217 21.5574 29.4217 21.9545V26.3233C29.4217 26.7999 29.0245 27.1177 28.6273 27.1177C28.2302 27.1177 27.833 26.7999 27.833 26.3233V19.5715C27.833 19.3332 27.7536 19.1744 27.5947 19.0155C27.4359 18.8566 27.277 18.7772 27.0387 18.7772C26.6415 18.7772 26.2444 19.1744 26.2444 19.5715V26.3233C26.2444 26.7999 25.8472 27.1177 25.45 27.1177C25.0529 27.1177 24.6557 26.7999 24.6557 26.3233V16.3148C24.6557 16.0765 24.5763 15.9176 24.4174 15.7587C24.338 15.6793 24.0202 15.441 23.6231 15.5204C23.3053 15.5999 22.9876 15.997 22.9876 16.3942V26.085C22.9876 26.4028 22.8287 26.7205 22.511 26.7999C22.1933 26.9588 21.8755 26.8794 21.6372 26.6411L19.572 24.5758C19.0954 24.0992 18.301 24.0992 17.8244 24.6552C17.4273 25.1318 17.5067 25.8467 17.9833 26.3233L23.5436 31.8837C23.8614 32.2014 23.8614 32.678 23.5436 32.9957C23.3848 33.1546 23.1465 33.234 22.9876 33.234C22.7493 33.234 22.5904 33.1546 22.4316 32.9957L16.8713 27.356C15.8386 26.3233 15.6798 24.5758 16.633 23.5432C17.189 22.9077 17.9833 22.5105 18.7776 22.5105C19.4925 22.5105 20.2074 22.8283 20.7635 23.3049L21.4784 24.0198V16.4736C21.4784 15.3616 22.1933 14.3289 23.3053 14.0906C24.0997 13.8523 24.9734 14.0906 25.5295 14.7261C26.0061 15.2027 26.2444 15.7587 26.2444 16.3942V17.3474C26.4827 17.268 26.8004 17.1885 27.0387 17.1885C27.6742 17.1885 28.2302 17.4268 28.7068 17.9034C29.1834 18.38 29.4217 18.9361 29.4217 19.5715V19.7304C29.66 19.651 29.9777 19.5715 30.216 19.5715C30.8515 19.5715 31.4075 19.8098 31.8841 20.2864C32.3607 20.763 32.599 21.3191 32.599 21.9545V22.1134C32.6784 22.1134 32.7579 22.034 32.8373 22.034C33.6316 21.7957 34.5054 22.034 35.0614 22.6694C35.6969 23.0666 35.9352 23.702 35.9352 24.2581Z" fill="#FA5542"/>
</svg>
