<svg width="52" height="52" viewBox="0 0 52 52" fill="none" xmlns="http://www.w3.org/2000/svg">
<rect opacity="0.1" width="52" height="52" rx="16" fill="#676DFF"/>
<path d="M17.6563 14.1023C18.0548 13.9195 18.5235 13.9851 18.8564 14.2711L20.7502 15.8931L22.6441 14.2711C23.066 13.9101 23.6895 13.9101 24.1067 14.2711L26.0006 15.8931L27.8945 14.2711C28.3164 13.9101 28.9398 13.9101 29.3571 14.2711L31.2509 15.8931L33.1448 14.2711C33.4776 13.9851 33.9464 13.9195 34.3449 14.1023C34.7434 14.2852 35.0012 14.6836 35.0012 15.1243V36.8757C35.0012 37.3164 34.7434 37.7148 34.3449 37.8977C33.9464 38.0805 33.4776 38.0149 33.1448 37.7289L31.2509 36.1069L29.3571 37.7289C28.9352 38.0899 28.3117 38.0899 27.8945 37.7289L26.0006 36.1069L24.1067 37.7289C23.6848 38.0899 23.0613 38.0899 22.6441 37.7289L20.7502 36.1069L18.8564 37.7289C18.5235 38.0149 18.0548 38.0805 17.6563 37.8977C17.2578 37.7148 17 37.3164 17 36.8757V15.1243C17 14.6836 17.2578 14.2852 17.6563 14.1023ZM21.5003 20.7497C21.0878 20.7497 20.7502 21.0872 20.7502 21.4997C20.7502 21.9122 21.0878 22.2498 21.5003 22.2498H30.5009C30.9134 22.2498 31.2509 21.9122 31.2509 21.4997C31.2509 21.0872 30.9134 20.7497 30.5009 20.7497H21.5003ZM20.7502 30.5003C20.7502 30.9128 21.0878 31.2503 21.5003 31.2503H30.5009C30.9134 31.2503 31.2509 30.9128 31.2509 30.5003C31.2509 30.0878 30.9134 29.7502 30.5009 29.7502H21.5003C21.0878 29.7502 20.7502 30.0878 20.7502 30.5003ZM21.5003 25.25C21.0878 25.25 20.7502 25.5875 20.7502 26C20.7502 26.4125 21.0878 26.75 21.5003 26.75H30.5009C30.9134 26.75 31.2509 26.4125 31.2509 26C31.2509 25.5875 30.9134 25.25 30.5009 25.25H21.5003Z" fill="#676DFF"/>
</svg>
