<svg width="20" height="20" viewBox="0 0 20 20" fill="none" xmlns="http://www.w3.org/2000/svg">
<g clip-path="url(#clip0_8_3093)">
<path d="M10 0C7.34784 0 4.8043 1.05357 2.92893 2.92893C1.05357 4.8043 0 7.34784 0 10C0 12.6522 1.05357 15.1957 2.92893 17.0711C4.8043 18.9464 7.34784 20 10 20C12.6522 20 15.1957 18.9464 17.0711 17.0711C18.9464 15.1957 20 12.6522 20 10C20 7.34784 18.9464 4.8043 17.0711 2.92893C15.1957 1.05357 12.6522 0 10 0Z" fill="#676DFF"/>
<path d="M12.6345 6C10.3888 6 10.1078 7.86361 10.1078 7.86361C10.1078 7.86361 9.82786 6 7.58213 6C5.42223 6 4.79286 8.27025 5.05646 9.48405C5.75122 12.6922 10.1078 14.94 10.1078 14.94C10.1078 14.94 14.4654 12.6922 15.1602 9.48405C15.4228 8.27025 14.7924 6 12.6345 6Z" fill="white"/>
</g>
<defs>
<clipPath id="clip0_8_3093">
<rect width="20" height="20" fill="white"/>
</clipPath>
</defs>
</svg>
