<svg width="8" height="8" viewBox="0 0 8 8" fill="none" xmlns="http://www.w3.org/2000/svg">
<g clip-path="url(#clip0_16_3945)">
<path d="M4.92812 0.242188C4.83906 0.0921875 4.675 0 4.5 0C4.325 0 4.16094 0.0921875 4.07188 0.242188L2.57188 2.74219C2.47969 2.89687 2.47656 3.08906 2.56562 3.24531C2.65469 3.40156 2.82031 3.49844 3 3.49844H6C6.17969 3.49844 6.34687 3.40156 6.43437 3.24531C6.52187 3.08906 6.52031 2.89687 6.42812 2.74219L4.92812 0.242188ZM4.5 4.875V7.125C4.5 7.47031 4.77969 7.75 5.125 7.75H7.375C7.72031 7.75 8 7.47031 8 7.125V4.875C8 4.52969 7.72031 4.25 7.375 4.25H5.125C4.77969 4.25 4.5 4.52969 4.5 4.875ZM2 8C2.53043 8 3.03914 7.78929 3.41421 7.41421C3.78929 7.03914 4 6.53043 4 6C4 5.46957 3.78929 4.96086 3.41421 4.58579C3.03914 4.21071 2.53043 4 2 4C1.46957 4 0.960859 4.21071 0.585786 4.58579C0.210714 4.96086 0 5.46957 0 6C0 6.53043 0.210714 7.03914 0.585786 7.41421C0.960859 7.78929 1.46957 8 2 8Z" fill="white"/>
</g>
<defs>
<clipPath id="clip0_16_3945">
<rect width="8" height="8" fill="white"/>
</clipPath>
</defs>
</svg>
