<svg width="20" height="20" viewBox="0 0 20 20" fill="none" xmlns="http://www.w3.org/2000/svg">
<g clip-path="url(#clip0_8_3099)">
<path d="M10 0C7.34784 0 4.8043 1.05357 2.92893 2.92893C1.05357 4.8043 0 7.34784 0 10C0 12.6522 1.05357 15.1957 2.92893 17.0711C4.8043 18.9464 7.34784 20 10 20C12.6522 20 15.1957 18.9464 17.0711 17.0711C18.9464 15.1957 20 12.6522 20 10C20 7.34784 18.9464 4.8043 17.0711 2.92893C15.1957 1.05357 12.6522 0 10 0Z" fill="#FA5542"/>
<path d="M12.9739 15C12.8804 14.9998 12.7884 14.9768 12.7057 14.9331L9.76641 13.3876L6.82709 14.9331C6.73192 14.983 6.62471 15.0053 6.51755 14.9974C6.4104 14.9896 6.30755 14.952 6.22061 14.8889C6.13368 14.8258 6.06611 14.7396 6.02552 14.6401C5.98493 14.5406 5.97295 14.4318 5.99091 14.3259L6.55202 11.0527L4.17381 8.73442C4.09687 8.6593 4.04247 8.56417 4.01675 8.45977C3.99102 8.35537 3.995 8.24586 4.02823 8.1436C4.06145 8.04134 4.12261 7.9504 4.20479 7.88106C4.28697 7.81172 4.38689 7.76674 4.49329 7.75119L7.77976 7.2737L9.24971 4.29575C9.30266 4.20569 9.37822 4.13103 9.4689 4.07916C9.55958 4.02729 9.66223 4 9.7667 4C9.87117 4 9.97382 4.02729 10.0645 4.07916C10.1552 4.13103 10.2307 4.20569 10.2837 4.29575L11.7531 7.2737L15.0395 7.75119C15.1459 7.76674 15.2459 7.81172 15.328 7.88106C15.4102 7.9504 15.4714 8.04134 15.5046 8.1436C15.5378 8.24586 15.5418 8.35537 15.5161 8.45977C15.4903 8.56417 15.4359 8.6593 15.359 8.73442L12.9808 11.0527L13.5425 14.3259C13.5567 14.4086 13.5526 14.4934 13.5306 14.5745C13.5086 14.6555 13.4692 14.7307 13.4151 14.7949C13.361 14.8591 13.2936 14.9107 13.2174 14.9461C13.1413 14.9816 13.0578 14.9999 12.9739 15Z" fill="white"/>
</g>
<defs>
<clipPath id="clip0_8_3099">
<rect width="20" height="20" fill="white"/>
</clipPath>
</defs>
</svg>
