<svg width="40" height="40" viewBox="0 0 40 40" fill="none" xmlns="http://www.w3.org/2000/svg">
<g clip-path="url(#clip0_8_3756)">
<path d="M20 0C14.6957 0 9.60859 2.10714 5.85786 5.85786C2.10714 9.60859 0 14.6957 0 20C0 25.3043 2.10714 30.3914 5.85786 34.1421C9.60859 37.8929 14.6957 40 20 40C25.3043 40 30.3914 37.8929 34.1421 34.1421C37.8929 30.3914 40 25.3043 40 20C40 14.6957 37.8929 9.60859 34.1421 5.85786C30.3914 2.10714 25.3043 0 20 0Z" fill="#676DFF"/>
<path d="M25.9478 30C25.7608 29.9995 25.5767 29.9536 25.4115 29.8662L19.5328 26.7752L13.6542 29.8662C13.4638 29.9659 13.2494 30.0105 13.0351 29.9949C12.8208 29.9793 12.6151 29.9041 12.4412 29.7778C12.2674 29.6515 12.1322 29.4792 12.051 29.2802C11.9699 29.0813 11.9459 28.8636 11.9818 28.6517L13.104 22.1053L8.34762 17.4688C8.19375 17.3186 8.08495 17.1283 8.0335 16.9195C7.98205 16.7107 7.99 16.4917 8.05645 16.2872C8.12291 16.0827 8.24522 15.9008 8.40957 15.7621C8.57393 15.6234 8.77379 15.5335 8.98657 15.5024L15.5595 14.5474L18.4994 8.5915C18.6053 8.41139 18.7564 8.26207 18.9378 8.15832C19.1192 8.05458 19.3245 8 19.5334 8C19.7423 8 19.9476 8.05458 20.129 8.15832C20.3104 8.26207 20.4615 8.41139 20.5674 8.5915L23.5061 14.5474L30.0791 15.5024C30.2919 15.5335 30.4917 15.6234 30.6561 15.7621C30.8204 15.9008 30.9427 16.0827 31.0092 16.2872C31.0756 16.4917 31.0836 16.7107 31.0321 16.9195C30.9807 17.1283 30.8719 17.3186 30.718 17.4688L25.9616 22.1053L27.085 28.6517C27.1133 28.8172 27.1052 28.9869 27.0612 29.1489C27.0172 29.311 26.9384 29.4614 26.8302 29.5898C26.722 29.7182 26.5871 29.8214 26.4349 29.8923C26.2827 29.9631 26.1157 29.9999 25.9478 30Z" fill="white"/>
</g>
<defs>
<clipPath id="clip0_8_3756">
<rect width="40" height="40" fill="white"/>
</clipPath>
</defs>
</svg>
