<svg width="29" height="20" viewBox="0 0 29 20" fill="none" xmlns="http://www.w3.org/2000/svg">
<path d="M27.6208 3.225C27.2969 2.00417 26.5868 0.970833 25.3702 0.645833C23.1654 0.0541667 14.1176 0 14.1176 0C14.1176 0 5.0699 0.0541667 2.86505 0.645833C1.64844 0.970833 0.94256 2.00417 0.614533 3.225C0.0249135 5.4375 0 10 0 10C0 10 0.0249135 14.5625 0.614533 16.775C0.938408 17.9958 1.64844 19.0292 2.86505 19.3542C5.0699 19.9458 14.1176 20 14.1176 20C14.1176 20 23.1654 19.9458 25.3702 19.3542C26.5868 19.0292 27.2969 17.9958 27.6208 16.775C28.2104 14.5625 28.2353 10 28.2353 10C28.2353 10 28.2104 5.4375 27.6208 3.225Z" fill="#FF0000"/>
<path d="M18.8236 10L11.7648 5.88239V14.1177" fill="white"/>
</svg>
